<?xml version="1.0" encoding="utf-8"?>
<!-- Generator: Adobe Illustrator 27.5.0, SVG Export Plug-In . SVG Version: 6.00 Build 0)  -->
<svg version="1.1" id="Layer_1" xmlns="http://www.w3.org/2000/svg" xmlns:xlink="http://www.w3.org/1999/xlink" x="0px" y="0px"
	 viewBox="0 0 540 720" style="enable-background:new 0 0 540 720;" xml:space="preserve">
<style type="text/css">
	.st0{fill:none;}
	.st1{fill:#F7BC60;}
	.st2{fill:#FFFFFF;}
	.st3{fill:none;stroke:#A2DEF9;stroke-width:4;stroke-miterlimit:10;}
	.st4{fill:#A2DEF9;}
	.st5{font-family:'YanoneKaffeesatz-Bold';}
	.st6{font-size:43px;}
	.st7{fill:none;stroke:#000000;stroke-width:3;stroke-miterlimit:10;}
	.st8{font-family:'Maestro';}
	.st9{font-size:104.2324px;}
	.st10{font-family:'SuplexmentaryComicNC';}
	.st11{font-size:9px;}
	.st12{font-family:'SuplexmentaryComicNCBoldItalic';}
	.st13{fill:#FFFFFF;stroke:#000000;stroke-width:0.75;}
	.st14{stroke:#FFFFFF;}
	.st15{fill:none;stroke:#A2DEF9;stroke-width:7;stroke-miterlimit:10;}
	.st16{fill:none;stroke:#000000;stroke-width:0.7474;stroke-miterlimit:10;}
	.st17{font-size:20.5px;}
	.st18{font-size:6px;}
</style>
<pattern  x="-36" y="756" width="69" height="69" patternUnits="userSpaceOnUse" id="Polka_Dot_Pattern" viewBox="2.1 -70.9 69 69" style="overflow:visible;">
	<g>
		<rect x="2.1" y="-70.9" class="st0" width="69" height="69"/>
		<rect x="2.1" y="-70.9" class="st1" width="69" height="69"/>
		<g>
			<path class="st2" d="M61.8-71.7c0,0.1,0,0.1,0,0.2c-0.1,0.1-0.1,0.1-0.2,0.1c-0.1,0.1-0.1,0.3-0.1,0.4c-0.2,0.1,0,0.2,0,0.3
				c0,0,0,0.1,0,0.2c0,0.1,0,0.3,0.1,0.4c0.1,0.2,0.3,0.4,0.4,0.5c0.2,0.1,0.4,0.6,0.6,0.6c0.2,0,0.4-0.1,0.5-0.1
				c0.2,0,0.4,0,0.6-0.1c0.2-0.1,0.1-0.3,0.3-0.5c0.1-0.1,0.3,0,0.4-0.1c0.2-0.1,0.3-0.3,0.4-0.5c0-0.1,0-0.1,0-0.2
				c0-0.1,0.1-0.2,0.1-0.3c0-0.1-0.1-0.1-0.1-0.2c0-0.1,0-0.2,0-0.3c0-0.2,0-0.4-0.1-0.5c-0.4-0.7-1.2-0.9-2-0.8
				c-0.2,0-0.3,0.1-0.4,0.2c-0.2,0.1-0.1,0.2-0.3,0.2c-0.1,0-0.2,0.1-0.2,0.2C61.8-71.7,61.8-71.7,61.8-71.7
				C61.8-71.6,61.8-71.6,61.8-71.7"/>
			<path class="st2" d="M54.1-71.7c0,0.1,0,0.1,0,0.2c-0.1,0.1-0.1,0.1-0.2,0.1c-0.1,0.1-0.1,0.3-0.1,0.4c-0.2,0.1,0,0.2,0,0.3
				c0,0,0,0.1,0,0.2c0,0.1,0,0.3,0.1,0.4c0.1,0.2,0.3,0.4,0.4,0.5c0.2,0.1,0.4,0.6,0.6,0.6c0.2,0,0.4-0.1,0.5-0.1
				c0.2,0,0.4,0,0.6-0.1c0.2-0.1,0.1-0.3,0.3-0.5c0.1-0.1,0.3,0,0.4-0.1c0.2-0.1,0.3-0.3,0.4-0.5c0-0.1,0-0.1,0-0.2
				c0-0.1,0.1-0.2,0.1-0.3c0-0.1-0.1-0.1-0.1-0.2c0-0.1,0-0.2,0-0.3c0-0.2,0-0.4-0.1-0.5c-0.4-0.7-1.2-0.9-2-0.8
				c-0.2,0-0.3,0.1-0.4,0.2c-0.2,0.1-0.1,0.2-0.3,0.2c-0.1,0-0.2,0.1-0.2,0.2C54.1-71.7,54.1-71.7,54.1-71.7
				C54.1-71.6,54.1-71.6,54.1-71.7"/>
			<path class="st2" d="M46.4-71.7c0,0.1,0,0.1,0,0.2c-0.1,0.1-0.1,0.1-0.2,0.1c-0.1,0.1-0.1,0.3-0.1,0.4c-0.2,0.1,0,0.2,0,0.3
				c0,0,0,0.1,0,0.2c0,0.1,0,0.3,0.1,0.4c0.1,0.2,0.3,0.4,0.4,0.5c0.2,0.1,0.4,0.6,0.6,0.6c0.2,0,0.4-0.1,0.5-0.1
				c0.2,0,0.4,0,0.6-0.1c0.2-0.1,0.1-0.3,0.3-0.5c0.1-0.1,0.3,0,0.4-0.1c0.2-0.1,0.3-0.3,0.4-0.5c0-0.1,0-0.1,0-0.2
				c0-0.1,0.1-0.2,0.1-0.3c0-0.1-0.1-0.1-0.1-0.2c0-0.1,0-0.2,0-0.3c0-0.2,0-0.4-0.1-0.5c-0.4-0.7-1.2-0.9-2-0.8
				c-0.2,0-0.3,0.1-0.4,0.2c-0.2,0.1-0.1,0.2-0.3,0.2c-0.1,0-0.2,0.1-0.2,0.2C46.4-71.7,46.4-71.7,46.4-71.7
				C46.4-71.6,46.4-71.6,46.4-71.7"/>
			<path class="st2" d="M38.8-71.7c0,0.1,0,0.1,0,0.2c-0.1,0.1-0.1,0.1-0.2,0.1c-0.1,0.1-0.1,0.3-0.1,0.4c-0.2,0.1,0,0.2,0,0.3
				c0,0,0,0.1,0,0.2c0,0.1,0,0.3,0.1,0.4c0.1,0.2,0.3,0.4,0.4,0.5c0.2,0.1,0.4,0.6,0.6,0.6c0.2,0,0.4-0.1,0.5-0.1
				c0.2,0,0.4,0,0.6-0.1c0.2-0.1,0.1-0.3,0.3-0.5c0.1-0.1,0.3,0,0.4-0.1c0.2-0.1,0.3-0.3,0.4-0.5c0-0.1,0-0.1,0-0.2
				c0-0.1,0.1-0.2,0.1-0.3c0-0.1-0.1-0.1-0.1-0.2c0-0.1,0-0.2,0-0.3c0-0.2,0-0.4-0.1-0.5c-0.4-0.7-1.2-0.9-2-0.8
				c-0.2,0-0.3,0.1-0.4,0.2c-0.2,0.1-0.1,0.2-0.3,0.2c-0.1,0-0.2,0.1-0.2,0.2C38.8-71.7,38.8-71.7,38.8-71.7
				C38.8-71.6,38.8-71.6,38.8-71.7"/>
			<path class="st2" d="M31.1-71.7c0,0.1,0,0.1,0,0.2c-0.1,0.1-0.1,0.1-0.2,0.1c-0.1,0.1-0.1,0.3-0.1,0.4c-0.2,0.1,0,0.2,0,0.3
				c0,0,0,0.1,0,0.2c0,0.1,0,0.3,0.1,0.4c0.1,0.2,0.3,0.4,0.4,0.5c0.2,0.1,0.4,0.6,0.6,0.6c0.2,0,0.4-0.1,0.5-0.1
				c0.2,0,0.4,0,0.6-0.1c0.2-0.1,0.1-0.3,0.3-0.5c0.1-0.1,0.3,0,0.4-0.1c0.2-0.1,0.3-0.3,0.4-0.5c0-0.1,0-0.1,0-0.2
				c0-0.1,0.1-0.2,0.1-0.3c0-0.1-0.1-0.1-0.1-0.2c0-0.1,0-0.2,0-0.3c0-0.2,0-0.4-0.1-0.5c-0.4-0.7-1.2-0.9-2-0.8
				c-0.2,0-0.3,0.1-0.4,0.2c-0.2,0.1-0.1,0.2-0.3,0.2c-0.1,0-0.2,0.1-0.2,0.2C31.1-71.7,31.1-71.7,31.1-71.7
				C31.1-71.6,31.1-71.6,31.1-71.7"/>
			<path class="st2" d="M23.4-71.7c0,0.1,0,0.1,0,0.2c-0.1,0.1-0.1,0.1-0.2,0.1c-0.1,0.1-0.1,0.3-0.1,0.4c-0.2,0.1,0,0.2,0,0.3
				c0,0,0,0.1,0,0.2c0,0.1,0,0.3,0.1,0.4c0.1,0.2,0.3,0.4,0.4,0.5c0.2,0.1,0.4,0.6,0.6,0.6c0.2,0,0.4-0.1,0.5-0.1
				c0.2,0,0.4,0,0.6-0.1c0.2-0.1,0.1-0.3,0.3-0.5c0.1-0.1,0.3,0,0.4-0.1c0.2-0.1,0.3-0.3,0.4-0.5c0-0.1,0-0.1,0-0.2
				c0-0.1,0.1-0.2,0.1-0.3c0-0.1-0.1-0.1-0.1-0.2c0-0.1,0-0.2,0-0.3c0-0.2,0-0.4-0.1-0.5c-0.4-0.7-1.2-0.9-2-0.8
				c-0.2,0-0.3,0.1-0.4,0.2c-0.2,0.1-0.1,0.2-0.3,0.2c-0.1,0-0.2,0.1-0.2,0.2C23.4-71.7,23.4-71.7,23.4-71.7
				C23.4-71.6,23.4-71.6,23.4-71.7"/>
			<path class="st2" d="M15.8-71.7c0,0.1,0,0.1,0,0.2c-0.1,0.1-0.1,0.1-0.2,0.1c-0.1,0.1-0.1,0.3-0.1,0.4c-0.2,0.1,0,0.2,0,0.3
				c0,0,0,0.1,0,0.2c0,0.1,0,0.3,0.1,0.4c0.1,0.2,0.3,0.4,0.4,0.5c0.2,0.1,0.4,0.6,0.6,0.6c0.2,0,0.4-0.1,0.5-0.1
				c0.2,0,0.4,0,0.6-0.1c0.2-0.1,0.1-0.3,0.3-0.5c0.1-0.1,0.3,0,0.4-0.1c0.2-0.1,0.3-0.3,0.4-0.5c0-0.1,0-0.1,0-0.2
				c0-0.1,0.1-0.2,0.1-0.3c0-0.1-0.1-0.1-0.1-0.2c0-0.1,0-0.2,0-0.3c0-0.2,0-0.4-0.1-0.5c-0.4-0.7-1.2-0.9-2-0.8
				c-0.2,0-0.3,0.1-0.4,0.2c-0.2,0.1-0.1,0.2-0.3,0.2c-0.1,0-0.2,0.1-0.2,0.2C15.8-71.7,15.8-71.7,15.8-71.7
				C15.8-71.6,15.8-71.6,15.8-71.7"/>
			<path class="st2" d="M8.1-71.7c0,0.1,0,0.1,0,0.2C8-71.4,8-71.4,7.9-71.3c-0.1,0.1-0.1,0.3-0.1,0.4c-0.2,0.1,0,0.2,0,0.3
				c0,0,0,0.1,0,0.2c0,0.1,0,0.3,0.1,0.4c0.1,0.2,0.3,0.4,0.4,0.5c0.2,0.1,0.4,0.6,0.6,0.6c0.2,0,0.4-0.1,0.5-0.1
				c0.2,0,0.4,0,0.6-0.1c0.2-0.1,0.1-0.3,0.3-0.5c0.1-0.1,0.3,0,0.4-0.1c0.2-0.1,0.3-0.3,0.4-0.5c0-0.1,0-0.1,0-0.2
				c0-0.1,0.1-0.2,0.1-0.3c0-0.1-0.1-0.1-0.1-0.2c0-0.1,0-0.2,0-0.3c0-0.2,0-0.4-0.1-0.5c-0.4-0.7-1.2-0.9-2-0.8
				c-0.2,0-0.3,0.1-0.4,0.2c-0.2,0.1-0.1,0.2-0.3,0.2c-0.1,0-0.2,0.1-0.2,0.2C8.1-71.7,8.1-71.7,8.1-71.7
				C8.1-71.6,8.1-71.6,8.1-71.7"/>
			<path class="st2" d="M0.4-71.7c0,0.1,0,0.1,0,0.2c-0.1,0.1-0.1,0.1-0.2,0.1c-0.1,0.1-0.1,0.3-0.1,0.4c-0.2,0.1,0,0.2,0,0.3
				c0,0,0,0.1,0,0.2c0,0.1,0,0.3,0.1,0.4c0.1,0.2,0.3,0.4,0.4,0.5C0.8-69.4,1-69,1.2-68.9c0.2,0,0.4-0.1,0.5-0.1
				c0.2,0,0.4,0,0.6-0.1c0.2-0.1,0.1-0.3,0.3-0.5c0.1-0.1,0.3,0,0.4-0.1c0.2-0.1,0.3-0.3,0.4-0.5c0-0.1,0-0.1,0-0.2
				c0-0.1,0.1-0.2,0.1-0.3c0-0.1-0.1-0.1-0.1-0.2c0-0.1,0-0.2,0-0.3c0-0.2,0-0.4-0.1-0.5c-0.4-0.7-1.2-0.9-2-0.8
				c-0.2,0-0.3,0.1-0.4,0.2c-0.2,0.1-0.1,0.2-0.3,0.2c-0.1,0-0.2,0.1-0.2,0.2C0.4-71.7,0.4-71.7,0.4-71.7
				C0.4-71.6,0.4-71.6,0.4-71.7"/>
		</g>
		<g>
			<path class="st2" d="M69.4-71.7c0,0.1,0,0.1,0,0.2c-0.1,0.1-0.1,0.1-0.2,0.1c-0.1,0.1-0.1,0.3-0.1,0.4c-0.2,0.1,0,0.2,0,0.3
				c0,0,0,0.1,0,0.2c0,0.1,0,0.3,0.1,0.4c0.1,0.2,0.3,0.4,0.4,0.5c0.2,0.1,0.4,0.6,0.6,0.6c0.2,0,0.4-0.1,0.5-0.1
				c0.2,0,0.4,0,0.6-0.1c0.2-0.1,0.1-0.3,0.3-0.5c0.1-0.1,0.3,0,0.4-0.1c0.2-0.1,0.3-0.3,0.4-0.5c0-0.1,0-0.1,0-0.2
				c0-0.1,0.1-0.2,0.1-0.3c0-0.1-0.1-0.1-0.1-0.2c0-0.1,0-0.2,0-0.3c0-0.2,0-0.4-0.1-0.5c-0.4-0.7-1.2-0.9-2-0.8
				c-0.2,0-0.3,0.1-0.4,0.2c-0.2,0.1-0.1,0.2-0.3,0.2c-0.1,0-0.2,0.1-0.2,0.2C69.4-71.7,69.4-71.7,69.4-71.7
				C69.4-71.6,69.4-71.6,69.4-71.7"/>
		</g>
		<path class="st2" d="M0.5-71.7c0,0.1,0,0.1,0,0.2c-0.1,0.1-0.1,0.1-0.2,0.1c-0.1,0.1-0.1,0.3-0.1,0.4c-0.2,0.1,0,0.2,0,0.3
			c0,0,0,0.1,0,0.2c0,0.1,0,0.3,0.1,0.4c0.1,0.2,0.3,0.4,0.4,0.5C0.9-69.4,1-69,1.3-68.9c0.2,0,0.4-0.1,0.5-0.1c0.2,0,0.4,0,0.6-0.1
			c0.2-0.1,0.1-0.3,0.3-0.5c0.1-0.1,0.3,0,0.4-0.1c0.2-0.1,0.3-0.3,0.4-0.5c0-0.1,0-0.1,0-0.2c0-0.1,0.1-0.2,0.1-0.3
			c0-0.1-0.1-0.1-0.1-0.2c0-0.1,0-0.2,0-0.3c0-0.2,0-0.4-0.1-0.5c-0.4-0.7-1.2-0.9-2-0.8c-0.2,0-0.3,0.1-0.4,0.2
			c-0.2,0.1-0.1,0.2-0.3,0.2c-0.1,0-0.2,0.1-0.2,0.2C0.5-71.7,0.5-71.7,0.5-71.7C0.5-71.6,0.5-71.6,0.5-71.7"/>
		<g>
			<g>
				<path class="st2" d="M69.4-64c0,0.1,0,0.1,0,0.2c-0.1,0.1-0.1,0.1-0.2,0.1c-0.1,0.1-0.1,0.3-0.1,0.4c-0.2,0.1,0,0.2,0,0.3
					c0,0,0,0.1,0,0.2c0,0.1,0,0.3,0.1,0.4c0.1,0.2,0.3,0.4,0.4,0.5c0.2,0.1,0.4,0.6,0.6,0.6c0.2,0,0.4-0.1,0.5-0.1
					c0.2,0,0.4,0,0.6-0.1c0.2-0.1,0.1-0.3,0.3-0.5c0.1-0.1,0.3,0,0.4-0.1c0.2-0.1,0.3-0.3,0.4-0.5c0-0.1,0-0.1,0-0.2
					c0-0.1,0.1-0.2,0.1-0.3c0-0.1-0.1-0.1-0.1-0.2c0-0.1,0-0.2,0-0.3c0-0.2,0-0.4-0.1-0.5c-0.4-0.7-1.2-0.9-2-0.8
					c-0.2,0-0.3,0.1-0.4,0.2c-0.2,0.1-0.1,0.2-0.3,0.2c-0.1,0-0.2,0.1-0.2,0.2C69.4-64,69.4-64.1,69.4-64C69.4-64,69.4-64,69.4-64"
					/>
				<path class="st2" d="M61.8-64c0,0.1,0,0.1,0,0.2c-0.1,0.1-0.1,0.1-0.2,0.1c-0.1,0.1-0.1,0.3-0.1,0.4c-0.2,0.1,0,0.2,0,0.3
					c0,0,0,0.1,0,0.2c0,0.1,0,0.3,0.1,0.4c0.1,0.2,0.3,0.4,0.4,0.5c0.2,0.1,0.4,0.6,0.6,0.6c0.2,0,0.4-0.1,0.5-0.1
					c0.2,0,0.4,0,0.6-0.1c0.2-0.1,0.1-0.3,0.3-0.5c0.1-0.1,0.3,0,0.4-0.1c0.2-0.1,0.3-0.3,0.4-0.5c0-0.1,0-0.1,0-0.2
					c0-0.1,0.1-0.2,0.1-0.3c0-0.1-0.1-0.1-0.1-0.2c0-0.1,0-0.2,0-0.3c0-0.2,0-0.4-0.1-0.5c-0.4-0.7-1.2-0.9-2-0.8
					c-0.2,0-0.3,0.1-0.4,0.2c-0.2,0.1-0.1,0.2-0.3,0.2c-0.1,0-0.2,0.1-0.2,0.2C61.8-64,61.8-64.1,61.8-64C61.8-64,61.8-64,61.8-64"
					/>
				<path class="st2" d="M54.1-64c0,0.1,0,0.1,0,0.2c-0.1,0.1-0.1,0.1-0.2,0.1c-0.1,0.1-0.1,0.3-0.1,0.4c-0.2,0.1,0,0.2,0,0.3
					c0,0,0,0.1,0,0.2c0,0.1,0,0.3,0.1,0.4c0.1,0.2,0.3,0.4,0.4,0.5c0.2,0.1,0.4,0.6,0.6,0.6c0.2,0,0.4-0.1,0.5-0.1
					c0.2,0,0.4,0,0.6-0.1c0.2-0.1,0.1-0.3,0.3-0.5c0.1-0.1,0.3,0,0.4-0.1c0.2-0.1,0.3-0.3,0.4-0.5c0-0.1,0-0.1,0-0.2
					c0-0.1,0.1-0.2,0.1-0.3c0-0.1-0.1-0.1-0.1-0.2c0-0.1,0-0.2,0-0.3c0-0.2,0-0.4-0.1-0.5c-0.4-0.7-1.2-0.9-2-0.8
					c-0.2,0-0.3,0.1-0.4,0.2c-0.2,0.1-0.1,0.2-0.3,0.2c-0.1,0-0.2,0.1-0.2,0.2C54.1-64,54.1-64.1,54.1-64C54.1-64,54.1-64,54.1-64"
					/>
				<path class="st2" d="M46.5-64c0,0.1,0,0.1,0,0.2c-0.1,0.1-0.1,0.1-0.2,0.1c-0.1,0.1-0.1,0.3-0.1,0.4c-0.2,0.1,0,0.2,0,0.3
					c0,0,0,0.1,0,0.2c0,0.1,0,0.3,0.1,0.4c0.1,0.2,0.3,0.4,0.4,0.5c0.2,0.1,0.4,0.6,0.6,0.6c0.2,0,0.4-0.1,0.5-0.1
					c0.2,0,0.4,0,0.6-0.1c0.2-0.1,0.1-0.3,0.3-0.5c0.1-0.1,0.3,0,0.4-0.1c0.2-0.1,0.3-0.3,0.4-0.5c0-0.1,0-0.1,0-0.2
					c0-0.1,0.1-0.2,0.1-0.3c0-0.1-0.1-0.1-0.1-0.2c0-0.1,0-0.2,0-0.3c0-0.2,0-0.4-0.1-0.5c-0.4-0.7-1.2-0.9-2-0.8
					c-0.2,0-0.3,0.1-0.4,0.2c-0.2,0.1-0.1,0.2-0.3,0.2c-0.1,0-0.2,0.1-0.2,0.2C46.5-64,46.5-64.1,46.5-64C46.5-64,46.5-64,46.5-64"
					/>
				<path class="st2" d="M38.8-64c0,0.1,0,0.1,0,0.2c-0.1,0.1-0.1,0.1-0.2,0.1c-0.1,0.1-0.1,0.3-0.1,0.4c-0.2,0.1,0,0.2,0,0.3
					c0,0,0,0.1,0,0.2c0,0.1,0,0.3,0.1,0.4c0.1,0.2,0.3,0.4,0.4,0.5c0.2,0.1,0.4,0.6,0.6,0.6c0.2,0,0.4-0.1,0.5-0.1
					c0.2,0,0.4,0,0.6-0.1c0.2-0.1,0.1-0.3,0.3-0.5c0.1-0.1,0.3,0,0.4-0.1c0.2-0.1,0.3-0.3,0.4-0.5c0-0.1,0-0.1,0-0.2
					c0-0.1,0.1-0.2,0.1-0.3c0-0.1-0.1-0.1-0.1-0.2c0-0.1,0-0.2,0-0.3c0-0.2,0-0.4-0.1-0.5c-0.4-0.7-1.2-0.9-2-0.8
					c-0.2,0-0.3,0.1-0.4,0.2c-0.2,0.1-0.1,0.2-0.3,0.2c-0.1,0-0.2,0.1-0.2,0.2C38.8-64,38.8-64.1,38.8-64C38.8-64,38.8-64,38.8-64"
					/>
				<path class="st2" d="M31.1-64c0,0.1,0,0.1,0,0.2c-0.1,0.1-0.1,0.1-0.2,0.1c-0.1,0.1-0.1,0.3-0.1,0.4c-0.2,0.1,0,0.2,0,0.3
					c0,0,0,0.1,0,0.2c0,0.1,0,0.3,0.1,0.4c0.1,0.2,0.3,0.4,0.4,0.5c0.2,0.1,0.4,0.6,0.6,0.6c0.2,0,0.4-0.1,0.5-0.1
					c0.2,0,0.4,0,0.6-0.1c0.2-0.1,0.1-0.3,0.3-0.5c0.1-0.1,0.3,0,0.4-0.1c0.2-0.1,0.3-0.3,0.4-0.5c0-0.1,0-0.1,0-0.2
					c0-0.1,0.1-0.2,0.1-0.3c0-0.1-0.1-0.1-0.1-0.2c0-0.1,0-0.2,0-0.3c0-0.2,0-0.4-0.1-0.5c-0.4-0.7-1.2-0.9-2-0.8
					c-0.2,0-0.3,0.1-0.4,0.2c-0.2,0.1-0.1,0.2-0.3,0.2c-0.1,0-0.2,0.1-0.2,0.2C31.1-64,31.1-64.1,31.1-64C31.1-64,31.1-64,31.1-64"
					/>
				<path class="st2" d="M23.5-64c0,0.1,0,0.1,0,0.2c-0.1,0.1-0.1,0.1-0.2,0.1c-0.1,0.1-0.1,0.3-0.1,0.4c-0.2,0.1,0,0.2,0,0.3
					c0,0,0,0.1,0,0.2c0,0.1,0,0.3,0.1,0.4c0.1,0.2,0.3,0.4,0.4,0.5c0.2,0.1,0.4,0.6,0.6,0.6c0.2,0,0.4-0.1,0.5-0.1
					c0.2,0,0.4,0,0.6-0.1c0.2-0.1,0.1-0.3,0.3-0.5c0.1-0.1,0.3,0,0.4-0.1c0.2-0.1,0.3-0.3,0.4-0.5c0-0.1,0-0.1,0-0.2
					c0-0.1,0.1-0.2,0.1-0.3c0-0.1-0.1-0.1-0.1-0.2c0-0.1,0-0.2,0-0.3c0-0.2,0-0.4-0.1-0.5c-0.4-0.7-1.2-0.9-2-0.8
					c-0.2,0-0.3,0.1-0.4,0.2c-0.2,0.1-0.1,0.2-0.3,0.2c-0.1,0-0.2,0.1-0.2,0.2C23.5-64,23.5-64.1,23.5-64C23.5-64,23.5-64,23.5-64"
					/>
				<path class="st2" d="M15.8-64c0,0.1,0,0.1,0,0.2c-0.1,0.1-0.1,0.1-0.2,0.1c-0.1,0.1-0.1,0.3-0.1,0.4c-0.2,0.1,0,0.2,0,0.3
					c0,0,0,0.1,0,0.2c0,0.1,0,0.3,0.1,0.4c0.1,0.2,0.3,0.4,0.4,0.5c0.2,0.1,0.4,0.6,0.6,0.6c0.2,0,0.4-0.1,0.5-0.1
					c0.2,0,0.4,0,0.6-0.1c0.2-0.1,0.1-0.3,0.3-0.5c0.1-0.1,0.3,0,0.4-0.1c0.2-0.1,0.3-0.3,0.4-0.5c0-0.1,0-0.1,0-0.2
					c0-0.1,0.1-0.2,0.1-0.3c0-0.1-0.1-0.1-0.1-0.2c0-0.1,0-0.2,0-0.3c0-0.2,0-0.4-0.1-0.5c-0.4-0.7-1.2-0.9-2-0.8
					c-0.2,0-0.3,0.1-0.4,0.2c-0.2,0.1-0.1,0.2-0.3,0.2c-0.1,0-0.2,0.1-0.2,0.2C15.8-64,15.8-64.1,15.8-64C15.8-64,15.8-64,15.8-64"
					/>
				<path class="st2" d="M8.2-64c0,0.1,0,0.1,0,0.2C8.1-63.7,8-63.7,8-63.7c-0.1,0.1-0.1,0.3-0.1,0.4c-0.2,0.1,0,0.2,0,0.3
					c0,0,0,0.1,0,0.2c0,0.1,0,0.3,0.1,0.4C8-62.2,8.2-62,8.3-61.9c0.2,0.1,0.4,0.6,0.6,0.6c0.2,0,0.4-0.1,0.5-0.1
					c0.2,0,0.4,0,0.6-0.1c0.2-0.1,0.1-0.3,0.3-0.5c0.1-0.1,0.3,0,0.4-0.1c0.2-0.1,0.3-0.3,0.4-0.5c0-0.1,0-0.1,0-0.2
					c0-0.1,0.1-0.2,0.1-0.3c0-0.1-0.1-0.1-0.1-0.2c0-0.1,0-0.2,0-0.3c0-0.2,0-0.4-0.1-0.5c-0.4-0.7-1.2-0.9-2-0.8
					c-0.2,0-0.3,0.1-0.4,0.2c-0.2,0.1-0.1,0.2-0.3,0.2c-0.1,0-0.2,0.1-0.2,0.2C8.2-64,8.2-64.1,8.2-64C8.1-64,8.1-64,8.2-64"/>
				<path class="st2" d="M0.5-64c0,0.1,0,0.1,0,0.2c-0.1,0.1-0.1,0.1-0.2,0.1c-0.1,0.1-0.1,0.3-0.1,0.4c-0.2,0.1,0,0.2,0,0.3
					c0,0,0,0.1,0,0.2c0,0.1,0,0.3,0.1,0.4c0.1,0.2,0.3,0.4,0.4,0.5c0.2,0.1,0.4,0.6,0.6,0.6c0.2,0,0.4-0.1,0.5-0.1
					c0.2,0,0.4,0,0.6-0.1c0.2-0.1,0.1-0.3,0.3-0.5C2.8-62,3-61.9,3.1-62c0.2-0.1,0.3-0.3,0.4-0.5c0-0.1,0-0.1,0-0.2
					c0-0.1,0.1-0.2,0.1-0.3c0-0.1-0.1-0.1-0.1-0.2c0-0.1,0-0.2,0-0.3c0-0.2,0-0.4-0.1-0.5c-0.4-0.7-1.2-0.9-2-0.8
					c-0.2,0-0.3,0.1-0.4,0.2c-0.2,0.1-0.1,0.2-0.3,0.2c-0.1,0-0.2,0.1-0.2,0.2C0.5-64,0.5-64.1,0.5-64C0.5-64,0.5-64,0.5-64"/>
			</g>
			<g>
				<path class="st2" d="M69.4-56.3c0,0.1,0,0.1,0,0.2c-0.1,0.1-0.1,0.1-0.2,0.1c-0.1,0.1-0.1,0.3-0.1,0.4c-0.2,0.1,0,0.2,0,0.3
					c0,0,0,0.1,0,0.2c0,0.1,0,0.3,0.1,0.4c0.1,0.2,0.3,0.4,0.4,0.5c0.2,0.1,0.4,0.6,0.6,0.6c0.2,0,0.4-0.1,0.5-0.1
					c0.2,0,0.4,0,0.6-0.1c0.2-0.1,0.1-0.3,0.3-0.5c0.1-0.1,0.3,0,0.4-0.1c0.2-0.1,0.3-0.3,0.4-0.5c0-0.1,0-0.1,0-0.2
					c0-0.1,0.1-0.2,0.1-0.3c0-0.1-0.1-0.1-0.1-0.2c0-0.1,0-0.2,0-0.3c0-0.2,0-0.4-0.1-0.5c-0.4-0.7-1.2-0.9-2-0.8
					c-0.2,0-0.3,0.1-0.4,0.2c-0.2,0.1-0.1,0.2-0.3,0.2c-0.1,0-0.2,0.1-0.2,0.2C69.4-56.4,69.4-56.4,69.4-56.3
					C69.4-56.3,69.4-56.3,69.4-56.3"/>
				<path class="st2" d="M61.8-56.3c0,0.1,0,0.1,0,0.2c-0.1,0.1-0.1,0.1-0.2,0.1c-0.1,0.1-0.1,0.3-0.1,0.4c-0.2,0.1,0,0.2,0,0.3
					c0,0,0,0.1,0,0.2c0,0.1,0,0.3,0.1,0.4c0.1,0.2,0.3,0.4,0.4,0.5c0.2,0.1,0.4,0.6,0.6,0.6c0.2,0,0.4-0.1,0.5-0.1
					c0.2,0,0.4,0,0.6-0.1c0.2-0.1,0.1-0.3,0.3-0.5c0.1-0.1,0.3,0,0.4-0.1c0.2-0.1,0.3-0.3,0.4-0.5c0-0.1,0-0.1,0-0.2
					c0-0.1,0.1-0.2,0.1-0.3c0-0.1-0.1-0.1-0.1-0.2c0-0.1,0-0.2,0-0.3c0-0.2,0-0.4-0.1-0.5c-0.4-0.7-1.2-0.9-2-0.8
					c-0.2,0-0.3,0.1-0.4,0.2c-0.2,0.1-0.1,0.2-0.3,0.2c-0.1,0-0.2,0.1-0.2,0.2C61.8-56.4,61.8-56.4,61.8-56.3
					C61.8-56.3,61.8-56.3,61.8-56.3"/>
				<path class="st2" d="M54.1-56.3c0,0.1,0,0.1,0,0.2C54-56.1,54-56.1,53.9-56c-0.1,0.1-0.1,0.3-0.1,0.4c-0.2,0.1,0,0.2,0,0.3
					c0,0,0,0.1,0,0.2c0,0.1,0,0.3,0.1,0.4c0.1,0.2,0.3,0.4,0.4,0.5c0.2,0.1,0.4,0.6,0.6,0.6c0.2,0,0.4-0.1,0.5-0.1
					c0.2,0,0.4,0,0.6-0.1c0.2-0.1,0.1-0.3,0.3-0.5c0.1-0.1,0.3,0,0.4-0.1c0.2-0.1,0.3-0.3,0.4-0.5c0-0.1,0-0.1,0-0.2
					c0-0.1,0.1-0.2,0.1-0.3c0-0.1-0.1-0.1-0.1-0.2c0-0.1,0-0.2,0-0.3c0-0.2,0-0.4-0.1-0.5c-0.4-0.7-1.2-0.9-2-0.8
					c-0.2,0-0.3,0.1-0.4,0.2c-0.2,0.1-0.1,0.2-0.3,0.2c-0.1,0-0.2,0.1-0.2,0.2C54.1-56.4,54.1-56.4,54.1-56.3
					C54.1-56.3,54.1-56.3,54.1-56.3"/>
				<path class="st2" d="M46.5-56.3c0,0.1,0,0.1,0,0.2c-0.1,0.1-0.1,0.1-0.2,0.1c-0.1,0.1-0.1,0.3-0.1,0.4c-0.2,0.1,0,0.2,0,0.3
					c0,0,0,0.1,0,0.2c0,0.1,0,0.3,0.1,0.4c0.1,0.2,0.3,0.4,0.4,0.5c0.2,0.1,0.4,0.6,0.6,0.6c0.2,0,0.4-0.1,0.5-0.1
					c0.2,0,0.4,0,0.6-0.1c0.2-0.1,0.1-0.3,0.3-0.5c0.1-0.1,0.3,0,0.4-0.1c0.2-0.1,0.3-0.3,0.4-0.5c0-0.1,0-0.1,0-0.2
					c0-0.1,0.1-0.2,0.1-0.3c0-0.1-0.1-0.1-0.1-0.2c0-0.1,0-0.2,0-0.3c0-0.2,0-0.4-0.1-0.5c-0.4-0.7-1.2-0.9-2-0.8
					c-0.2,0-0.3,0.1-0.4,0.2c-0.2,0.1-0.1,0.2-0.3,0.2c-0.1,0-0.2,0.1-0.2,0.2C46.5-56.4,46.5-56.4,46.5-56.3
					C46.5-56.3,46.5-56.3,46.5-56.3"/>
				<path class="st2" d="M38.8-56.3c0,0.1,0,0.1,0,0.2c-0.1,0.1-0.1,0.1-0.2,0.1c-0.1,0.1-0.1,0.3-0.1,0.4c-0.2,0.1,0,0.2,0,0.3
					c0,0,0,0.1,0,0.2c0,0.1,0,0.3,0.1,0.4c0.1,0.2,0.3,0.4,0.4,0.5c0.2,0.1,0.4,0.6,0.6,0.6c0.2,0,0.4-0.1,0.5-0.1
					c0.2,0,0.4,0,0.6-0.1c0.2-0.1,0.1-0.3,0.3-0.5c0.1-0.1,0.3,0,0.4-0.1c0.2-0.1,0.3-0.3,0.4-0.5c0-0.1,0-0.1,0-0.2
					c0-0.1,0.1-0.2,0.1-0.3c0-0.1-0.1-0.1-0.1-0.2c0-0.1,0-0.2,0-0.3c0-0.2,0-0.4-0.1-0.5c-0.4-0.7-1.2-0.9-2-0.8
					c-0.2,0-0.3,0.1-0.4,0.2c-0.2,0.1-0.1,0.2-0.3,0.2c-0.1,0-0.2,0.1-0.2,0.2C38.8-56.4,38.8-56.4,38.8-56.3
					C38.8-56.3,38.8-56.3,38.8-56.3"/>
				<path class="st2" d="M31.1-56.3c0,0.1,0,0.1,0,0.2c-0.1,0.1-0.1,0.1-0.2,0.1c-0.1,0.1-0.1,0.3-0.1,0.4c-0.2,0.1,0,0.2,0,0.3
					c0,0,0,0.1,0,0.2c0,0.1,0,0.3,0.1,0.4c0.1,0.2,0.3,0.4,0.4,0.5c0.2,0.1,0.4,0.6,0.6,0.6c0.2,0,0.4-0.1,0.5-0.1
					c0.2,0,0.4,0,0.6-0.1c0.2-0.1,0.1-0.3,0.3-0.5c0.1-0.1,0.3,0,0.4-0.1c0.2-0.1,0.3-0.3,0.4-0.5c0-0.1,0-0.1,0-0.2
					c0-0.1,0.1-0.2,0.1-0.3c0-0.1-0.1-0.1-0.1-0.2c0-0.1,0-0.2,0-0.3c0-0.2,0-0.4-0.1-0.5c-0.4-0.7-1.2-0.9-2-0.8
					c-0.2,0-0.3,0.1-0.4,0.2c-0.2,0.1-0.1,0.2-0.3,0.2c-0.1,0-0.2,0.1-0.2,0.2C31.1-56.4,31.1-56.4,31.1-56.3
					C31.1-56.3,31.1-56.3,31.1-56.3"/>
				<path class="st2" d="M23.5-56.3c0,0.1,0,0.1,0,0.2c-0.1,0.1-0.1,0.1-0.2,0.1c-0.1,0.1-0.1,0.3-0.1,0.4c-0.2,0.1,0,0.2,0,0.3
					c0,0,0,0.1,0,0.2c0,0.1,0,0.3,0.1,0.4c0.1,0.2,0.3,0.4,0.4,0.5c0.2,0.1,0.4,0.6,0.6,0.6c0.2,0,0.4-0.1,0.5-0.1
					c0.2,0,0.4,0,0.6-0.1c0.2-0.1,0.1-0.3,0.3-0.5c0.1-0.1,0.3,0,0.4-0.1c0.2-0.1,0.3-0.3,0.4-0.5c0-0.1,0-0.1,0-0.2
					c0-0.1,0.1-0.2,0.1-0.3c0-0.1-0.1-0.1-0.1-0.2c0-0.1,0-0.2,0-0.3c0-0.2,0-0.4-0.1-0.5c-0.4-0.7-1.2-0.9-2-0.8
					c-0.2,0-0.3,0.1-0.4,0.2c-0.2,0.1-0.1,0.2-0.3,0.2c-0.1,0-0.2,0.1-0.2,0.2C23.5-56.4,23.5-56.4,23.5-56.3
					C23.5-56.3,23.5-56.3,23.5-56.3"/>
				<path class="st2" d="M15.8-56.3c0,0.1,0,0.1,0,0.2c-0.1,0.1-0.1,0.1-0.2,0.1c-0.1,0.1-0.1,0.3-0.1,0.4c-0.2,0.1,0,0.2,0,0.3
					c0,0,0,0.1,0,0.2c0,0.1,0,0.3,0.1,0.4c0.1,0.2,0.3,0.4,0.4,0.5c0.2,0.1,0.4,0.6,0.6,0.6c0.2,0,0.4-0.1,0.5-0.1
					c0.2,0,0.4,0,0.6-0.1c0.2-0.1,0.1-0.3,0.3-0.5c0.1-0.1,0.3,0,0.4-0.1c0.2-0.1,0.3-0.3,0.4-0.5c0-0.1,0-0.1,0-0.2
					c0-0.1,0.1-0.2,0.1-0.3c0-0.1-0.1-0.1-0.1-0.2c0-0.1,0-0.2,0-0.3c0-0.2,0-0.4-0.1-0.5c-0.4-0.7-1.2-0.9-2-0.8
					c-0.2,0-0.3,0.1-0.4,0.2c-0.2,0.1-0.1,0.2-0.3,0.2c-0.1,0-0.2,0.1-0.2,0.2C15.8-56.4,15.8-56.4,15.8-56.3
					C15.8-56.3,15.8-56.3,15.8-56.3"/>
				<path class="st2" d="M8.2-56.3c0,0.1,0,0.1,0,0.2C8.1-56.1,8-56.1,8-56c-0.1,0.1-0.1,0.3-0.1,0.4c-0.2,0.1,0,0.2,0,0.3
					c0,0,0,0.1,0,0.2c0,0.1,0,0.3,0.1,0.4c0.1,0.2,0.3,0.4,0.4,0.5c0.2,0.1,0.4,0.6,0.6,0.6c0.2,0,0.4-0.1,0.5-0.1
					c0.2,0,0.4,0,0.6-0.1c0.2-0.1,0.1-0.3,0.3-0.5c0.1-0.1,0.3,0,0.4-0.1c0.2-0.1,0.3-0.3,0.4-0.5c0-0.1,0-0.1,0-0.2
					c0-0.1,0.1-0.2,0.1-0.3c0-0.1-0.1-0.1-0.1-0.2c0-0.1,0-0.2,0-0.3c0-0.2,0-0.4-0.1-0.5c-0.4-0.7-1.2-0.9-2-0.8
					c-0.2,0-0.3,0.1-0.4,0.2c-0.2,0.1-0.1,0.2-0.3,0.2c-0.1,0-0.2,0.1-0.2,0.2C8.2-56.4,8.2-56.4,8.2-56.3
					C8.1-56.3,8.1-56.3,8.2-56.3"/>
				<path class="st2" d="M0.5-56.3c0,0.1,0,0.1,0,0.2c-0.1,0.1-0.1,0.1-0.2,0.1c-0.1,0.1-0.1,0.3-0.1,0.4c-0.2,0.1,0,0.2,0,0.3
					c0,0,0,0.1,0,0.2c0,0.1,0,0.3,0.1,0.4c0.1,0.2,0.3,0.4,0.4,0.5c0.2,0.1,0.4,0.6,0.6,0.6c0.2,0,0.4-0.1,0.5-0.1
					c0.2,0,0.4,0,0.6-0.1c0.2-0.1,0.1-0.3,0.3-0.5c0.1-0.1,0.3,0,0.4-0.1c0.2-0.1,0.3-0.3,0.4-0.5c0-0.1,0-0.1,0-0.2
					c0-0.1,0.1-0.2,0.1-0.3c0-0.1-0.1-0.1-0.1-0.2c0-0.1,0-0.2,0-0.3c0-0.2,0-0.4-0.1-0.5c-0.4-0.7-1.2-0.9-2-0.8
					c-0.2,0-0.3,0.1-0.4,0.2c-0.2,0.1-0.1,0.2-0.3,0.2c-0.1,0-0.2,0.1-0.2,0.2C0.5-56.4,0.5-56.4,0.5-56.3
					C0.5-56.3,0.5-56.3,0.5-56.3"/>
			</g>
			<g>
				<path class="st2" d="M69.4-48.7c0,0.1,0,0.1,0,0.2c-0.1,0.1-0.1,0.1-0.2,0.1c-0.1,0.1-0.1,0.3-0.1,0.4c-0.2,0.1,0,0.2,0,0.3
					c0,0,0,0.1,0,0.2c0,0.1,0,0.3,0.1,0.4c0.1,0.2,0.3,0.4,0.4,0.5c0.2,0.1,0.4,0.6,0.6,0.6c0.2,0,0.4-0.1,0.5-0.1
					c0.2,0,0.4,0,0.6-0.1c0.2-0.1,0.1-0.3,0.3-0.5c0.1-0.1,0.3,0,0.4-0.1c0.2-0.1,0.3-0.3,0.4-0.5c0-0.1,0-0.1,0-0.2
					c0-0.1,0.1-0.2,0.1-0.3c0-0.1-0.1-0.1-0.1-0.2c0-0.1,0-0.2,0-0.3c0-0.2,0-0.4-0.1-0.5c-0.4-0.7-1.2-0.9-2-0.8
					c-0.2,0-0.3,0.1-0.4,0.2c-0.2,0.1-0.1,0.2-0.3,0.2c-0.1,0-0.2,0.1-0.2,0.2C69.4-48.7,69.4-48.8,69.4-48.7
					C69.4-48.7,69.4-48.7,69.4-48.7"/>
				<path class="st2" d="M61.8-48.7c0,0.1,0,0.1,0,0.2c-0.1,0.1-0.1,0.1-0.2,0.1c-0.1,0.1-0.1,0.3-0.1,0.4c-0.2,0.1,0,0.2,0,0.3
					c0,0,0,0.1,0,0.2c0,0.1,0,0.3,0.1,0.4c0.1,0.2,0.3,0.4,0.4,0.5c0.2,0.1,0.4,0.6,0.6,0.6c0.2,0,0.4-0.1,0.5-0.1
					c0.2,0,0.4,0,0.6-0.1c0.2-0.1,0.1-0.3,0.3-0.5c0.1-0.1,0.3,0,0.4-0.1c0.2-0.1,0.3-0.3,0.4-0.5c0-0.1,0-0.1,0-0.2
					c0-0.1,0.1-0.2,0.1-0.3c0-0.1-0.1-0.1-0.1-0.2c0-0.1,0-0.2,0-0.3c0-0.2,0-0.4-0.1-0.5c-0.4-0.7-1.2-0.9-2-0.8
					c-0.2,0-0.3,0.1-0.4,0.2c-0.2,0.1-0.1,0.2-0.3,0.2c-0.1,0-0.2,0.1-0.2,0.2C61.8-48.7,61.8-48.8,61.8-48.7
					C61.8-48.7,61.8-48.7,61.8-48.7"/>
				<path class="st2" d="M54.1-48.7c0,0.1,0,0.1,0,0.2c-0.1,0.1-0.1,0.1-0.2,0.1c-0.1,0.1-0.1,0.3-0.1,0.4c-0.2,0.1,0,0.2,0,0.3
					c0,0,0,0.1,0,0.2c0,0.1,0,0.3,0.1,0.4c0.1,0.2,0.3,0.4,0.4,0.5c0.2,0.1,0.4,0.6,0.6,0.6c0.2,0,0.4-0.1,0.5-0.1
					c0.2,0,0.4,0,0.6-0.1c0.2-0.1,0.1-0.3,0.3-0.5c0.1-0.1,0.3,0,0.4-0.1c0.2-0.1,0.3-0.3,0.4-0.5c0-0.1,0-0.1,0-0.2
					c0-0.1,0.1-0.2,0.1-0.3c0-0.1-0.1-0.1-0.1-0.2c0-0.1,0-0.2,0-0.3c0-0.2,0-0.4-0.1-0.5c-0.4-0.7-1.2-0.9-2-0.8
					c-0.2,0-0.3,0.1-0.4,0.2c-0.2,0.1-0.1,0.2-0.3,0.2c-0.1,0-0.2,0.1-0.2,0.2C54.1-48.7,54.1-48.8,54.1-48.7
					C54.1-48.7,54.1-48.7,54.1-48.7"/>
				<path class="st2" d="M46.5-48.7c0,0.1,0,0.1,0,0.2c-0.1,0.1-0.1,0.1-0.2,0.1c-0.1,0.1-0.1,0.3-0.1,0.4c-0.2,0.1,0,0.2,0,0.3
					c0,0,0,0.1,0,0.2c0,0.1,0,0.3,0.1,0.4c0.1,0.2,0.3,0.4,0.4,0.5c0.2,0.1,0.4,0.6,0.6,0.6c0.2,0,0.4-0.1,0.5-0.1
					c0.2,0,0.4,0,0.6-0.1c0.2-0.1,0.1-0.3,0.3-0.5c0.1-0.1,0.3,0,0.4-0.1c0.2-0.1,0.3-0.3,0.4-0.5c0-0.1,0-0.1,0-0.2
					c0-0.1,0.1-0.2,0.1-0.3c0-0.1-0.1-0.1-0.1-0.2c0-0.1,0-0.2,0-0.3c0-0.2,0-0.4-0.1-0.5c-0.4-0.7-1.2-0.9-2-0.8
					c-0.2,0-0.3,0.1-0.4,0.2c-0.2,0.1-0.1,0.2-0.3,0.2c-0.1,0-0.2,0.1-0.2,0.2C46.5-48.7,46.5-48.8,46.5-48.7
					C46.5-48.7,46.5-48.7,46.5-48.7"/>
				<path class="st2" d="M38.8-48.7c0,0.1,0,0.1,0,0.2c-0.1,0.1-0.1,0.1-0.2,0.1c-0.1,0.1-0.1,0.3-0.1,0.4c-0.2,0.1,0,0.2,0,0.3
					c0,0,0,0.1,0,0.2c0,0.1,0,0.3,0.1,0.4c0.1,0.2,0.3,0.4,0.4,0.5c0.2,0.1,0.4,0.6,0.6,0.6c0.2,0,0.4-0.1,0.5-0.1
					c0.2,0,0.4,0,0.6-0.1c0.2-0.1,0.1-0.3,0.3-0.5c0.1-0.1,0.3,0,0.4-0.1c0.2-0.1,0.3-0.3,0.4-0.5c0-0.1,0-0.1,0-0.2
					c0-0.1,0.1-0.2,0.1-0.3c0-0.1-0.1-0.1-0.1-0.2c0-0.1,0-0.2,0-0.3c0-0.2,0-0.4-0.1-0.5c-0.4-0.7-1.2-0.9-2-0.8
					c-0.2,0-0.3,0.1-0.4,0.2c-0.2,0.1-0.1,0.2-0.3,0.2c-0.1,0-0.2,0.1-0.2,0.2C38.8-48.7,38.8-48.8,38.8-48.7
					C38.8-48.7,38.8-48.7,38.8-48.7"/>
				<path class="st2" d="M31.1-48.7c0,0.1,0,0.1,0,0.2c-0.1,0.1-0.1,0.1-0.2,0.1c-0.1,0.1-0.1,0.3-0.1,0.4c-0.2,0.1,0,0.2,0,0.3
					c0,0,0,0.1,0,0.2c0,0.1,0,0.3,0.1,0.4c0.1,0.2,0.3,0.4,0.4,0.5c0.2,0.1,0.4,0.6,0.6,0.6c0.2,0,0.4-0.1,0.5-0.1
					c0.2,0,0.4,0,0.6-0.1c0.2-0.1,0.1-0.3,0.3-0.5c0.1-0.1,0.3,0,0.4-0.1c0.2-0.1,0.3-0.3,0.4-0.5c0-0.1,0-0.1,0-0.2
					c0-0.1,0.1-0.2,0.1-0.3c0-0.1-0.1-0.1-0.1-0.2c0-0.1,0-0.2,0-0.3c0-0.2,0-0.4-0.1-0.5c-0.4-0.7-1.2-0.9-2-0.8
					c-0.2,0-0.3,0.1-0.4,0.2c-0.2,0.1-0.1,0.2-0.3,0.2c-0.1,0-0.2,0.1-0.2,0.2C31.1-48.7,31.1-48.8,31.1-48.7
					C31.1-48.7,31.1-48.7,31.1-48.7"/>
				<path class="st2" d="M23.5-48.7c0,0.1,0,0.1,0,0.2c-0.1,0.1-0.1,0.1-0.2,0.1c-0.1,0.1-0.1,0.3-0.1,0.4c-0.2,0.1,0,0.2,0,0.3
					c0,0,0,0.1,0,0.2c0,0.1,0,0.3,0.1,0.4c0.1,0.2,0.3,0.4,0.4,0.5c0.2,0.1,0.4,0.6,0.6,0.6c0.2,0,0.4-0.1,0.5-0.1
					c0.2,0,0.4,0,0.6-0.1c0.2-0.1,0.1-0.3,0.3-0.5c0.1-0.1,0.3,0,0.4-0.1c0.2-0.1,0.3-0.3,0.4-0.5c0-0.1,0-0.1,0-0.2
					c0-0.1,0.1-0.2,0.1-0.3c0-0.1-0.1-0.1-0.1-0.2c0-0.1,0-0.2,0-0.3c0-0.2,0-0.4-0.1-0.5c-0.4-0.7-1.2-0.9-2-0.8
					c-0.2,0-0.3,0.1-0.4,0.2c-0.2,0.1-0.1,0.2-0.3,0.2c-0.1,0-0.2,0.1-0.2,0.2C23.5-48.7,23.5-48.8,23.5-48.7
					C23.5-48.7,23.5-48.7,23.5-48.7"/>
				<path class="st2" d="M15.8-48.7c0,0.1,0,0.1,0,0.2c-0.1,0.1-0.1,0.1-0.2,0.1c-0.1,0.1-0.1,0.3-0.1,0.4c-0.2,0.1,0,0.2,0,0.3
					c0,0,0,0.1,0,0.2c0,0.1,0,0.3,0.1,0.4c0.1,0.2,0.3,0.4,0.4,0.5c0.2,0.1,0.4,0.6,0.6,0.6c0.2,0,0.4-0.1,0.5-0.1
					c0.2,0,0.4,0,0.6-0.1c0.2-0.1,0.1-0.3,0.3-0.5c0.1-0.1,0.3,0,0.4-0.1c0.2-0.1,0.3-0.3,0.4-0.5c0-0.1,0-0.1,0-0.2
					c0-0.1,0.1-0.2,0.1-0.3c0-0.1-0.1-0.1-0.1-0.2c0-0.1,0-0.2,0-0.3c0-0.2,0-0.4-0.1-0.5c-0.4-0.7-1.2-0.9-2-0.8
					c-0.2,0-0.3,0.1-0.4,0.2c-0.2,0.1-0.1,0.2-0.3,0.2c-0.1,0-0.2,0.1-0.2,0.2C15.8-48.7,15.8-48.8,15.8-48.7
					C15.8-48.7,15.8-48.7,15.8-48.7"/>
				<path class="st2" d="M8.2-48.7c0,0.1,0,0.1,0,0.2C8.1-48.4,8-48.4,8-48.4c-0.1,0.1-0.1,0.3-0.1,0.4c-0.2,0.1,0,0.2,0,0.3
					c0,0,0,0.1,0,0.2c0,0.1,0,0.3,0.1,0.4c0.1,0.2,0.3,0.4,0.4,0.5C8.5-46.4,8.7-46,8.9-46c0.2,0,0.4-0.1,0.5-0.1
					c0.2,0,0.4,0,0.6-0.1c0.2-0.1,0.1-0.3,0.3-0.5c0.1-0.1,0.3,0,0.4-0.1c0.2-0.1,0.3-0.3,0.4-0.5c0-0.1,0-0.1,0-0.2
					c0-0.1,0.1-0.2,0.1-0.3c0-0.1-0.1-0.1-0.1-0.2c0-0.1,0-0.2,0-0.3c0-0.2,0-0.4-0.1-0.5c-0.4-0.7-1.2-0.9-2-0.8
					c-0.2,0-0.3,0.1-0.4,0.2c-0.2,0.1-0.1,0.2-0.3,0.2c-0.1,0-0.2,0.1-0.2,0.2C8.2-48.7,8.2-48.8,8.2-48.7
					C8.1-48.7,8.1-48.7,8.2-48.7"/>
				<path class="st2" d="M0.5-48.7c0,0.1,0,0.1,0,0.2c-0.1,0.1-0.1,0.1-0.2,0.1c-0.1,0.1-0.1,0.3-0.1,0.4c-0.2,0.1,0,0.2,0,0.3
					c0,0,0,0.1,0,0.2c0,0.1,0,0.3,0.1,0.4c0.1,0.2,0.3,0.4,0.4,0.5C0.9-46.4,1-46,1.3-46c0.2,0,0.4-0.1,0.5-0.1c0.2,0,0.4,0,0.6-0.1
					c0.2-0.1,0.1-0.3,0.3-0.5c0.1-0.1,0.3,0,0.4-0.1c0.2-0.1,0.3-0.3,0.4-0.5c0-0.1,0-0.1,0-0.2c0-0.1,0.1-0.2,0.1-0.3
					c0-0.1-0.1-0.1-0.1-0.2c0-0.1,0-0.2,0-0.3c0-0.2,0-0.4-0.1-0.5c-0.4-0.7-1.2-0.9-2-0.8c-0.2,0-0.3,0.1-0.4,0.2
					c-0.2,0.1-0.1,0.2-0.3,0.2c-0.1,0-0.2,0.1-0.2,0.2C0.5-48.7,0.5-48.8,0.5-48.7C0.5-48.7,0.5-48.7,0.5-48.7"/>
			</g>
			<g>
				<path class="st2" d="M69.4-41c0,0.1,0,0.1,0,0.2c-0.1,0.1-0.1,0.1-0.2,0.1c-0.1,0.1-0.1,0.3-0.1,0.4c-0.2,0.1,0,0.2,0,0.3
					c0,0,0,0.1,0,0.2c0,0.1,0,0.3,0.1,0.4c0.1,0.2,0.3,0.4,0.4,0.5c0.2,0.1,0.4,0.6,0.6,0.6c0.2,0,0.4-0.1,0.5-0.1
					c0.2,0,0.4,0,0.6-0.1c0.2-0.1,0.1-0.3,0.3-0.5c0.1-0.1,0.3,0,0.4-0.1c0.2-0.1,0.3-0.3,0.4-0.5c0-0.1,0-0.1,0-0.2
					c0-0.1,0.1-0.2,0.1-0.3c0-0.1-0.1-0.1-0.1-0.2c0-0.1,0-0.2,0-0.3c0-0.2,0-0.4-0.1-0.5c-0.4-0.7-1.2-0.9-2-0.8
					c-0.2,0-0.3,0.1-0.4,0.2c-0.2,0.1-0.1,0.2-0.3,0.2c-0.1,0-0.2,0.1-0.2,0.2C69.4-41.1,69.4-41.1,69.4-41C69.4-41,69.4-41,69.4-41
					"/>
				<path class="st2" d="M61.8-41c0,0.1,0,0.1,0,0.2c-0.1,0.1-0.1,0.1-0.2,0.1c-0.1,0.1-0.1,0.3-0.1,0.4c-0.2,0.1,0,0.2,0,0.3
					c0,0,0,0.1,0,0.2c0,0.1,0,0.3,0.1,0.4c0.1,0.2,0.3,0.4,0.4,0.5c0.2,0.1,0.4,0.6,0.6,0.6c0.2,0,0.4-0.1,0.5-0.1
					c0.2,0,0.4,0,0.6-0.1c0.2-0.1,0.1-0.3,0.3-0.5c0.1-0.1,0.3,0,0.4-0.1c0.2-0.1,0.3-0.3,0.4-0.5c0-0.1,0-0.1,0-0.2
					c0-0.1,0.1-0.2,0.1-0.3c0-0.1-0.1-0.1-0.1-0.2c0-0.1,0-0.2,0-0.3c0-0.2,0-0.4-0.1-0.5c-0.4-0.7-1.2-0.9-2-0.8
					c-0.2,0-0.3,0.1-0.4,0.2c-0.2,0.1-0.1,0.2-0.3,0.2c-0.1,0-0.2,0.1-0.2,0.2C61.8-41.1,61.8-41.1,61.8-41C61.8-41,61.8-41,61.8-41
					"/>
				<path class="st2" d="M54.1-41c0,0.1,0,0.1,0,0.2c-0.1,0.1-0.1,0.1-0.2,0.1c-0.1,0.1-0.1,0.3-0.1,0.4c-0.2,0.1,0,0.2,0,0.3
					c0,0,0,0.1,0,0.2c0,0.1,0,0.3,0.1,0.4c0.1,0.2,0.3,0.4,0.4,0.5c0.2,0.1,0.4,0.6,0.6,0.6c0.2,0,0.4-0.1,0.5-0.1
					c0.2,0,0.4,0,0.6-0.1c0.2-0.1,0.1-0.3,0.3-0.5c0.1-0.1,0.3,0,0.4-0.1c0.2-0.1,0.3-0.3,0.4-0.5c0-0.1,0-0.1,0-0.2
					c0-0.1,0.1-0.2,0.1-0.3c0-0.1-0.1-0.1-0.1-0.2c0-0.1,0-0.2,0-0.3c0-0.2,0-0.4-0.1-0.5c-0.4-0.7-1.2-0.9-2-0.8
					c-0.2,0-0.3,0.1-0.4,0.2c-0.2,0.1-0.1,0.2-0.3,0.2c-0.1,0-0.2,0.1-0.2,0.2C54.1-41.1,54.1-41.1,54.1-41C54.1-41,54.1-41,54.1-41
					"/>
				<path class="st2" d="M46.5-41c0,0.1,0,0.1,0,0.2c-0.1,0.1-0.1,0.1-0.2,0.1c-0.1,0.1-0.1,0.3-0.1,0.4c-0.2,0.1,0,0.2,0,0.3
					c0,0,0,0.1,0,0.2c0,0.1,0,0.3,0.1,0.4c0.1,0.2,0.3,0.4,0.4,0.5c0.2,0.1,0.4,0.6,0.6,0.6c0.2,0,0.4-0.1,0.5-0.1
					c0.2,0,0.4,0,0.6-0.1c0.2-0.1,0.1-0.3,0.3-0.5c0.1-0.1,0.3,0,0.4-0.1c0.2-0.1,0.3-0.3,0.4-0.5c0-0.1,0-0.1,0-0.2
					c0-0.1,0.1-0.2,0.1-0.3c0-0.1-0.1-0.1-0.1-0.2c0-0.1,0-0.2,0-0.3c0-0.2,0-0.4-0.1-0.5c-0.4-0.7-1.2-0.9-2-0.8
					c-0.2,0-0.3,0.1-0.4,0.2c-0.2,0.1-0.1,0.2-0.3,0.2c-0.1,0-0.2,0.1-0.2,0.2C46.5-41.1,46.5-41.1,46.5-41C46.5-41,46.5-41,46.5-41
					"/>
				<path class="st2" d="M38.8-41c0,0.1,0,0.1,0,0.2c-0.1,0.1-0.1,0.1-0.2,0.1c-0.1,0.1-0.1,0.3-0.1,0.4c-0.2,0.1,0,0.2,0,0.3
					c0,0,0,0.1,0,0.2c0,0.1,0,0.3,0.1,0.4c0.1,0.2,0.3,0.4,0.4,0.5c0.2,0.1,0.4,0.6,0.6,0.6c0.2,0,0.4-0.1,0.5-0.1
					c0.2,0,0.4,0,0.6-0.1c0.2-0.1,0.1-0.3,0.3-0.5c0.1-0.1,0.3,0,0.4-0.1c0.2-0.1,0.3-0.3,0.4-0.5c0-0.1,0-0.1,0-0.2
					c0-0.1,0.1-0.2,0.1-0.3c0-0.1-0.1-0.1-0.1-0.2c0-0.1,0-0.2,0-0.3c0-0.2,0-0.4-0.1-0.5c-0.4-0.7-1.2-0.9-2-0.8
					c-0.2,0-0.3,0.1-0.4,0.2c-0.2,0.1-0.1,0.2-0.3,0.2c-0.1,0-0.2,0.1-0.2,0.2C38.8-41.1,38.8-41.1,38.8-41C38.8-41,38.8-41,38.8-41
					"/>
				<path class="st2" d="M31.1-41c0,0.1,0,0.1,0,0.2c-0.1,0.1-0.1,0.1-0.2,0.1c-0.1,0.1-0.1,0.3-0.1,0.4c-0.2,0.1,0,0.2,0,0.3
					c0,0,0,0.1,0,0.2c0,0.1,0,0.3,0.1,0.4c0.1,0.2,0.3,0.4,0.4,0.5c0.2,0.1,0.4,0.6,0.6,0.6c0.2,0,0.4-0.1,0.5-0.1
					c0.2,0,0.4,0,0.6-0.1c0.2-0.1,0.1-0.3,0.3-0.5c0.1-0.1,0.3,0,0.4-0.1c0.2-0.1,0.3-0.3,0.4-0.5c0-0.1,0-0.1,0-0.2
					c0-0.1,0.1-0.2,0.1-0.3c0-0.1-0.1-0.1-0.1-0.2c0-0.1,0-0.2,0-0.3c0-0.2,0-0.4-0.1-0.5c-0.4-0.7-1.2-0.9-2-0.8
					c-0.2,0-0.3,0.1-0.4,0.2c-0.2,0.1-0.1,0.2-0.3,0.2c-0.1,0-0.2,0.1-0.2,0.2C31.1-41.1,31.1-41.1,31.1-41C31.1-41,31.1-41,31.1-41
					"/>
				<path class="st2" d="M23.5-41c0,0.1,0,0.1,0,0.2c-0.1,0.1-0.1,0.1-0.2,0.1c-0.1,0.1-0.1,0.3-0.1,0.4c-0.2,0.1,0,0.2,0,0.3
					c0,0,0,0.1,0,0.2c0,0.1,0,0.3,0.1,0.4c0.1,0.2,0.3,0.4,0.4,0.5c0.2,0.1,0.4,0.6,0.6,0.6c0.2,0,0.4-0.1,0.5-0.1
					c0.2,0,0.4,0,0.6-0.1c0.2-0.1,0.1-0.3,0.3-0.5c0.1-0.1,0.3,0,0.4-0.1c0.2-0.1,0.3-0.3,0.4-0.5c0-0.1,0-0.1,0-0.2
					c0-0.1,0.1-0.2,0.1-0.3c0-0.1-0.1-0.1-0.1-0.2c0-0.1,0-0.2,0-0.3c0-0.2,0-0.4-0.1-0.5c-0.4-0.7-1.2-0.9-2-0.8
					c-0.2,0-0.3,0.1-0.4,0.2c-0.2,0.1-0.1,0.2-0.3,0.2c-0.1,0-0.2,0.1-0.2,0.2C23.5-41.1,23.5-41.1,23.5-41C23.5-41,23.5-41,23.5-41
					"/>
				<path class="st2" d="M15.8-41c0,0.1,0,0.1,0,0.2c-0.1,0.1-0.1,0.1-0.2,0.1c-0.1,0.1-0.1,0.3-0.1,0.4c-0.2,0.1,0,0.2,0,0.3
					c0,0,0,0.1,0,0.2c0,0.1,0,0.3,0.1,0.4c0.1,0.2,0.3,0.4,0.4,0.5c0.2,0.1,0.4,0.6,0.6,0.6c0.2,0,0.4-0.1,0.5-0.1
					c0.2,0,0.4,0,0.6-0.1c0.2-0.1,0.1-0.3,0.3-0.5c0.1-0.1,0.3,0,0.4-0.1c0.2-0.1,0.3-0.3,0.4-0.5c0-0.1,0-0.1,0-0.2
					c0-0.1,0.1-0.2,0.1-0.3c0-0.1-0.1-0.1-0.1-0.2c0-0.1,0-0.2,0-0.3c0-0.2,0-0.4-0.1-0.5c-0.4-0.7-1.2-0.9-2-0.8
					c-0.2,0-0.3,0.1-0.4,0.2c-0.2,0.1-0.1,0.2-0.3,0.2c-0.1,0-0.2,0.1-0.2,0.2C15.8-41.1,15.8-41.1,15.8-41C15.8-41,15.8-41,15.8-41
					"/>
				<path class="st2" d="M8.2-41c0,0.1,0,0.1,0,0.2C8.1-40.8,8-40.8,8-40.7c-0.1,0.1-0.1,0.3-0.1,0.4c-0.2,0.1,0,0.2,0,0.3
					c0,0,0,0.1,0,0.2c0,0.1,0,0.3,0.1,0.4c0.1,0.2,0.3,0.4,0.4,0.5c0.2,0.1,0.4,0.6,0.6,0.6c0.2,0,0.4-0.1,0.5-0.1
					c0.2,0,0.4,0,0.6-0.1c0.2-0.1,0.1-0.3,0.3-0.5c0.1-0.1,0.3,0,0.4-0.1c0.2-0.1,0.3-0.3,0.4-0.5c0-0.1,0-0.1,0-0.2
					c0-0.1,0.1-0.2,0.1-0.3c0-0.1-0.1-0.1-0.1-0.2c0-0.1,0-0.2,0-0.3c0-0.2,0-0.4-0.1-0.5c-0.4-0.7-1.2-0.9-2-0.8
					c-0.2,0-0.3,0.1-0.4,0.2c-0.2,0.1-0.1,0.2-0.3,0.2c-0.1,0-0.2,0.1-0.2,0.2C8.2-41.1,8.2-41.1,8.2-41C8.1-41,8.1-41,8.2-41"/>
				<path class="st2" d="M0.5-41c0,0.1,0,0.1,0,0.2c-0.1,0.1-0.1,0.1-0.2,0.1c-0.1,0.1-0.1,0.3-0.1,0.4c-0.2,0.1,0,0.2,0,0.3
					c0,0,0,0.1,0,0.2c0,0.1,0,0.3,0.1,0.4c0.1,0.2,0.3,0.4,0.4,0.5c0.2,0.1,0.4,0.6,0.6,0.6c0.2,0,0.4-0.1,0.5-0.1
					c0.2,0,0.4,0,0.6-0.1c0.2-0.1,0.1-0.3,0.3-0.5C2.8-39,3-39,3.1-39c0.2-0.1,0.3-0.3,0.4-0.5c0-0.1,0-0.1,0-0.2
					c0-0.1,0.1-0.2,0.1-0.3c0-0.1-0.1-0.1-0.1-0.2c0-0.1,0-0.2,0-0.3c0-0.2,0-0.4-0.1-0.5c-0.4-0.7-1.2-0.9-2-0.8
					c-0.2,0-0.3,0.1-0.4,0.2c-0.2,0.1-0.1,0.2-0.3,0.2c-0.1,0-0.2,0.1-0.2,0.2C0.5-41.1,0.5-41.1,0.5-41C0.5-41,0.5-41,0.5-41"/>
			</g>
			<g>
				<path class="st2" d="M69.4-33.4c0,0.1,0,0.1,0,0.2c-0.1,0.1-0.1,0.1-0.2,0.1c-0.1,0.1-0.1,0.3-0.1,0.4c-0.2,0.1,0,0.2,0,0.3
					c0,0,0,0.1,0,0.2c0,0.1,0,0.3,0.1,0.4c0.1,0.2,0.3,0.4,0.4,0.5c0.2,0.1,0.4,0.6,0.6,0.6c0.2,0,0.4-0.1,0.5-0.1
					c0.2,0,0.4,0,0.6-0.1c0.2-0.1,0.1-0.3,0.3-0.5c0.1-0.1,0.3,0,0.4-0.1c0.2-0.1,0.3-0.3,0.4-0.5c0-0.1,0-0.1,0-0.2
					c0-0.1,0.1-0.2,0.1-0.3c0-0.1-0.1-0.1-0.1-0.2c0-0.1,0-0.2,0-0.3c0-0.2,0-0.4-0.1-0.5c-0.4-0.7-1.2-0.9-2-0.8
					c-0.2,0-0.3,0.1-0.4,0.2c-0.2,0.1-0.1,0.2-0.3,0.2c-0.1,0-0.2,0.1-0.2,0.2C69.4-33.4,69.4-33.5,69.4-33.4
					C69.4-33.4,69.4-33.4,69.4-33.4"/>
				<path class="st2" d="M61.8-33.4c0,0.1,0,0.1,0,0.2c-0.1,0.1-0.1,0.1-0.2,0.1c-0.1,0.1-0.1,0.3-0.1,0.4c-0.2,0.1,0,0.2,0,0.3
					c0,0,0,0.1,0,0.2c0,0.1,0,0.3,0.1,0.4c0.1,0.2,0.3,0.4,0.4,0.5c0.2,0.1,0.4,0.6,0.6,0.6c0.2,0,0.4-0.1,0.5-0.1
					c0.2,0,0.4,0,0.6-0.1c0.2-0.1,0.1-0.3,0.3-0.5c0.1-0.1,0.3,0,0.4-0.1c0.2-0.1,0.3-0.3,0.4-0.5c0-0.1,0-0.1,0-0.2
					c0-0.1,0.1-0.2,0.1-0.3c0-0.1-0.1-0.1-0.1-0.2c0-0.1,0-0.2,0-0.3c0-0.2,0-0.4-0.1-0.5c-0.4-0.7-1.2-0.9-2-0.8
					c-0.2,0-0.3,0.1-0.4,0.2c-0.2,0.1-0.1,0.2-0.3,0.2c-0.1,0-0.2,0.1-0.2,0.2C61.8-33.4,61.8-33.5,61.8-33.4
					C61.8-33.4,61.8-33.4,61.8-33.4"/>
				<path class="st2" d="M54.1-33.4c0,0.1,0,0.1,0,0.2c-0.1,0.1-0.1,0.1-0.2,0.1c-0.1,0.1-0.1,0.3-0.1,0.4c-0.2,0.1,0,0.2,0,0.3
					c0,0,0,0.1,0,0.2c0,0.1,0,0.3,0.1,0.4c0.1,0.2,0.3,0.4,0.4,0.5c0.2,0.1,0.4,0.6,0.6,0.6c0.2,0,0.4-0.1,0.5-0.1
					c0.2,0,0.4,0,0.6-0.1c0.2-0.1,0.1-0.3,0.3-0.5c0.1-0.1,0.3,0,0.4-0.1c0.2-0.1,0.3-0.3,0.4-0.5c0-0.1,0-0.1,0-0.2
					c0-0.1,0.1-0.2,0.1-0.3c0-0.1-0.1-0.1-0.1-0.2c0-0.1,0-0.2,0-0.3c0-0.2,0-0.4-0.1-0.5c-0.4-0.7-1.2-0.9-2-0.8
					c-0.2,0-0.3,0.1-0.4,0.2c-0.2,0.1-0.1,0.2-0.3,0.2c-0.1,0-0.2,0.1-0.2,0.2C54.1-33.4,54.1-33.5,54.1-33.4
					C54.1-33.4,54.1-33.4,54.1-33.4"/>
				<path class="st2" d="M46.5-33.4c0,0.1,0,0.1,0,0.2c-0.1,0.1-0.1,0.1-0.2,0.1c-0.1,0.1-0.1,0.3-0.1,0.4c-0.2,0.1,0,0.2,0,0.3
					c0,0,0,0.1,0,0.2c0,0.1,0,0.3,0.1,0.4c0.1,0.2,0.3,0.4,0.4,0.5c0.2,0.1,0.4,0.6,0.6,0.6c0.2,0,0.4-0.1,0.5-0.1
					c0.2,0,0.4,0,0.6-0.1c0.2-0.1,0.1-0.3,0.3-0.5c0.1-0.1,0.3,0,0.4-0.1c0.2-0.1,0.3-0.3,0.4-0.5c0-0.1,0-0.1,0-0.2
					c0-0.1,0.1-0.2,0.1-0.3c0-0.1-0.1-0.1-0.1-0.2c0-0.1,0-0.2,0-0.3c0-0.2,0-0.4-0.1-0.5c-0.4-0.7-1.2-0.9-2-0.8
					c-0.2,0-0.3,0.1-0.4,0.2c-0.2,0.1-0.1,0.2-0.3,0.2c-0.1,0-0.2,0.1-0.2,0.2C46.5-33.4,46.5-33.5,46.5-33.4
					C46.5-33.4,46.5-33.4,46.5-33.4"/>
				<path class="st2" d="M38.8-33.4c0,0.1,0,0.1,0,0.2c-0.1,0.1-0.1,0.1-0.2,0.1c-0.1,0.1-0.1,0.3-0.1,0.4c-0.2,0.1,0,0.2,0,0.3
					c0,0,0,0.1,0,0.2c0,0.1,0,0.3,0.1,0.4c0.1,0.2,0.3,0.4,0.4,0.5c0.2,0.1,0.4,0.6,0.6,0.6c0.2,0,0.4-0.1,0.5-0.1
					c0.2,0,0.4,0,0.6-0.1c0.2-0.1,0.1-0.3,0.3-0.5c0.1-0.1,0.3,0,0.4-0.1c0.2-0.1,0.3-0.3,0.4-0.5c0-0.1,0-0.1,0-0.2
					c0-0.1,0.1-0.2,0.1-0.3c0-0.1-0.1-0.1-0.1-0.2c0-0.1,0-0.2,0-0.3c0-0.2,0-0.4-0.1-0.5c-0.4-0.7-1.2-0.9-2-0.8
					c-0.2,0-0.3,0.1-0.4,0.2c-0.2,0.1-0.1,0.2-0.3,0.2c-0.1,0-0.2,0.1-0.2,0.2C38.8-33.4,38.8-33.5,38.8-33.4
					C38.8-33.4,38.8-33.4,38.8-33.4"/>
				<path class="st2" d="M31.1-33.4c0,0.1,0,0.1,0,0.2c-0.1,0.1-0.1,0.1-0.2,0.1c-0.1,0.1-0.1,0.3-0.1,0.4c-0.2,0.1,0,0.2,0,0.3
					c0,0,0,0.1,0,0.2c0,0.1,0,0.3,0.1,0.4c0.1,0.2,0.3,0.4,0.4,0.5c0.2,0.1,0.4,0.6,0.6,0.6c0.2,0,0.4-0.1,0.5-0.1
					c0.2,0,0.4,0,0.6-0.1c0.2-0.1,0.1-0.3,0.3-0.5c0.1-0.1,0.3,0,0.4-0.1c0.2-0.1,0.3-0.3,0.4-0.5c0-0.1,0-0.1,0-0.2
					c0-0.1,0.1-0.2,0.1-0.3c0-0.1-0.1-0.1-0.1-0.2c0-0.1,0-0.2,0-0.3c0-0.2,0-0.4-0.1-0.5c-0.4-0.7-1.2-0.9-2-0.8
					c-0.2,0-0.3,0.1-0.4,0.2c-0.2,0.1-0.1,0.2-0.3,0.2c-0.1,0-0.2,0.1-0.2,0.2C31.1-33.4,31.1-33.5,31.1-33.4
					C31.1-33.4,31.1-33.4,31.1-33.4"/>
				<path class="st2" d="M23.5-33.4c0,0.1,0,0.1,0,0.2c-0.1,0.1-0.1,0.1-0.2,0.1c-0.1,0.1-0.1,0.3-0.1,0.4c-0.2,0.1,0,0.2,0,0.3
					c0,0,0,0.1,0,0.2c0,0.1,0,0.3,0.1,0.4c0.1,0.2,0.3,0.4,0.4,0.5c0.2,0.1,0.4,0.6,0.6,0.6c0.2,0,0.4-0.1,0.5-0.1
					c0.2,0,0.4,0,0.6-0.1c0.2-0.1,0.1-0.3,0.3-0.5c0.1-0.1,0.3,0,0.4-0.1c0.2-0.1,0.3-0.3,0.4-0.5c0-0.1,0-0.1,0-0.2
					c0-0.1,0.1-0.2,0.1-0.3c0-0.1-0.1-0.1-0.1-0.2c0-0.1,0-0.2,0-0.3c0-0.2,0-0.4-0.1-0.5c-0.4-0.7-1.2-0.9-2-0.8
					c-0.2,0-0.3,0.1-0.4,0.2c-0.2,0.1-0.1,0.2-0.3,0.2c-0.1,0-0.2,0.1-0.2,0.2C23.5-33.4,23.5-33.5,23.5-33.4
					C23.5-33.4,23.5-33.4,23.5-33.4"/>
				<path class="st2" d="M15.8-33.4c0,0.1,0,0.1,0,0.2c-0.1,0.1-0.1,0.1-0.2,0.1c-0.1,0.1-0.1,0.3-0.1,0.4c-0.2,0.1,0,0.2,0,0.3
					c0,0,0,0.1,0,0.2c0,0.1,0,0.3,0.1,0.4c0.1,0.2,0.3,0.4,0.4,0.5c0.2,0.1,0.4,0.6,0.6,0.6c0.2,0,0.4-0.1,0.5-0.1
					c0.2,0,0.4,0,0.6-0.1c0.2-0.1,0.1-0.3,0.3-0.5c0.1-0.1,0.3,0,0.4-0.1c0.2-0.1,0.3-0.3,0.4-0.5c0-0.1,0-0.1,0-0.2
					c0-0.1,0.1-0.2,0.1-0.3c0-0.1-0.1-0.1-0.1-0.2c0-0.1,0-0.2,0-0.3c0-0.2,0-0.4-0.1-0.5c-0.4-0.7-1.2-0.9-2-0.8
					c-0.2,0-0.3,0.1-0.4,0.2c-0.2,0.1-0.1,0.2-0.3,0.2c-0.1,0-0.2,0.1-0.2,0.2C15.8-33.4,15.8-33.5,15.8-33.4
					C15.8-33.4,15.8-33.4,15.8-33.4"/>
				<path class="st2" d="M8.2-33.4c0,0.1,0,0.1,0,0.2C8.1-33.1,8-33.1,8-33.1c-0.1,0.1-0.1,0.3-0.1,0.4c-0.2,0.1,0,0.2,0,0.3
					c0,0,0,0.1,0,0.2c0,0.1,0,0.3,0.1,0.4c0.1,0.2,0.3,0.4,0.4,0.5c0.2,0.1,0.4,0.6,0.6,0.6c0.2,0,0.4-0.1,0.5-0.1
					c0.2,0,0.4,0,0.6-0.1c0.2-0.1,0.1-0.3,0.3-0.5c0.1-0.1,0.3,0,0.4-0.1c0.2-0.1,0.3-0.3,0.4-0.5c0-0.1,0-0.1,0-0.2
					c0-0.1,0.1-0.2,0.1-0.3c0-0.1-0.1-0.1-0.1-0.2c0-0.1,0-0.2,0-0.3c0-0.2,0-0.4-0.1-0.5c-0.4-0.7-1.2-0.9-2-0.8
					c-0.2,0-0.3,0.1-0.4,0.2c-0.2,0.1-0.1,0.2-0.3,0.2c-0.1,0-0.2,0.1-0.2,0.2C8.2-33.4,8.2-33.5,8.2-33.4
					C8.1-33.4,8.1-33.4,8.2-33.4"/>
				<path class="st2" d="M0.5-33.4c0,0.1,0,0.1,0,0.2c-0.1,0.1-0.1,0.1-0.2,0.1c-0.1,0.1-0.1,0.3-0.1,0.4c-0.2,0.1,0,0.2,0,0.3
					c0,0,0,0.1,0,0.2c0,0.1,0,0.3,0.1,0.4c0.1,0.2,0.3,0.4,0.4,0.5c0.2,0.1,0.4,0.6,0.6,0.6c0.2,0,0.4-0.1,0.5-0.1
					c0.2,0,0.4,0,0.6-0.1c0.2-0.1,0.1-0.3,0.3-0.5c0.1-0.1,0.3,0,0.4-0.1c0.2-0.1,0.3-0.3,0.4-0.5c0-0.1,0-0.1,0-0.2
					c0-0.1,0.1-0.2,0.1-0.3c0-0.1-0.1-0.1-0.1-0.2c0-0.1,0-0.2,0-0.3c0-0.2,0-0.4-0.1-0.5c-0.4-0.7-1.2-0.9-2-0.8
					c-0.2,0-0.3,0.1-0.4,0.2c-0.2,0.1-0.1,0.2-0.3,0.2c-0.1,0-0.2,0.1-0.2,0.2C0.5-33.4,0.5-33.5,0.5-33.4
					C0.5-33.4,0.5-33.4,0.5-33.4"/>
			</g>
			<g>
				<path class="st2" d="M69.4-25.7c0,0.1,0,0.1,0,0.2c-0.1,0.1-0.1,0.1-0.2,0.1c-0.1,0.1-0.1,0.3-0.1,0.4c-0.2,0.1,0,0.2,0,0.3
					c0,0,0,0.1,0,0.2c0,0.1,0,0.3,0.1,0.4c0.1,0.2,0.3,0.4,0.4,0.5c0.2,0.1,0.4,0.6,0.6,0.6c0.2,0,0.4-0.1,0.5-0.1
					c0.2,0,0.4,0,0.6-0.1c0.2-0.1,0.1-0.3,0.3-0.5c0.1-0.1,0.3,0,0.4-0.1c0.2-0.1,0.3-0.3,0.4-0.5c0-0.1,0-0.1,0-0.2
					c0-0.1,0.1-0.2,0.1-0.3c0-0.1-0.1-0.1-0.1-0.2c0-0.1,0-0.2,0-0.3c0-0.2,0-0.4-0.1-0.5c-0.4-0.7-1.2-0.9-2-0.8
					c-0.2,0-0.3,0.1-0.4,0.2c-0.2,0.1-0.1,0.2-0.3,0.2c-0.1,0-0.2,0.1-0.2,0.2C69.4-25.8,69.4-25.8,69.4-25.7
					C69.4-25.7,69.4-25.7,69.4-25.7"/>
				<path class="st2" d="M61.8-25.7c0,0.1,0,0.1,0,0.2c-0.1,0.1-0.1,0.1-0.2,0.1c-0.1,0.1-0.1,0.3-0.1,0.4c-0.2,0.1,0,0.2,0,0.3
					c0,0,0,0.1,0,0.2c0,0.1,0,0.3,0.1,0.4c0.1,0.2,0.3,0.4,0.4,0.5c0.2,0.1,0.4,0.6,0.6,0.6c0.2,0,0.4-0.1,0.5-0.1
					c0.2,0,0.4,0,0.6-0.1c0.2-0.1,0.1-0.3,0.3-0.5c0.1-0.1,0.3,0,0.4-0.1c0.2-0.1,0.3-0.3,0.4-0.5c0-0.1,0-0.1,0-0.2
					c0-0.1,0.1-0.2,0.1-0.3c0-0.1-0.1-0.1-0.1-0.2c0-0.1,0-0.2,0-0.3c0-0.2,0-0.4-0.1-0.5c-0.4-0.7-1.2-0.9-2-0.8
					c-0.2,0-0.3,0.1-0.4,0.2c-0.2,0.1-0.1,0.2-0.3,0.2c-0.1,0-0.2,0.1-0.2,0.2C61.8-25.8,61.8-25.8,61.8-25.7
					C61.8-25.7,61.8-25.7,61.8-25.7"/>
				<path class="st2" d="M54.1-25.7c0,0.1,0,0.1,0,0.2c-0.1,0.1-0.1,0.1-0.2,0.1c-0.1,0.1-0.1,0.3-0.1,0.4c-0.2,0.1,0,0.2,0,0.3
					c0,0,0,0.1,0,0.2c0,0.1,0,0.3,0.1,0.4c0.1,0.2,0.3,0.4,0.4,0.5c0.2,0.1,0.4,0.6,0.6,0.6c0.2,0,0.4-0.1,0.5-0.1
					c0.2,0,0.4,0,0.6-0.1c0.2-0.1,0.1-0.3,0.3-0.5c0.1-0.1,0.3,0,0.4-0.1c0.2-0.1,0.3-0.3,0.4-0.5c0-0.1,0-0.1,0-0.2
					c0-0.1,0.1-0.2,0.1-0.3c0-0.1-0.1-0.1-0.1-0.2c0-0.1,0-0.2,0-0.3c0-0.2,0-0.4-0.1-0.5c-0.4-0.7-1.2-0.9-2-0.8
					c-0.2,0-0.3,0.1-0.4,0.2c-0.2,0.1-0.1,0.2-0.3,0.2c-0.1,0-0.2,0.1-0.2,0.2C54.1-25.8,54.1-25.8,54.1-25.7
					C54.1-25.7,54.1-25.7,54.1-25.7"/>
				<path class="st2" d="M46.5-25.7c0,0.1,0,0.1,0,0.2c-0.1,0.1-0.1,0.1-0.2,0.1c-0.1,0.1-0.1,0.3-0.1,0.4c-0.2,0.1,0,0.2,0,0.3
					c0,0,0,0.1,0,0.2c0,0.1,0,0.3,0.1,0.4c0.1,0.2,0.3,0.4,0.4,0.5c0.2,0.1,0.4,0.6,0.6,0.6c0.2,0,0.4-0.1,0.5-0.1
					c0.2,0,0.4,0,0.6-0.1c0.2-0.1,0.1-0.3,0.3-0.5c0.1-0.1,0.3,0,0.4-0.1c0.2-0.1,0.3-0.3,0.4-0.5c0-0.1,0-0.1,0-0.2
					c0-0.1,0.1-0.2,0.1-0.3c0-0.1-0.1-0.1-0.1-0.2c0-0.1,0-0.2,0-0.3c0-0.2,0-0.4-0.1-0.5c-0.4-0.7-1.2-0.9-2-0.8
					c-0.2,0-0.3,0.1-0.4,0.2c-0.2,0.1-0.1,0.2-0.3,0.2c-0.1,0-0.2,0.1-0.2,0.2C46.5-25.8,46.5-25.8,46.5-25.7
					C46.5-25.7,46.5-25.7,46.5-25.7"/>
				<path class="st2" d="M38.8-25.7c0,0.1,0,0.1,0,0.2c-0.1,0.1-0.1,0.1-0.2,0.1c-0.1,0.1-0.1,0.3-0.1,0.4c-0.2,0.1,0,0.2,0,0.3
					c0,0,0,0.1,0,0.2c0,0.1,0,0.3,0.1,0.4c0.1,0.2,0.3,0.4,0.4,0.5c0.2,0.1,0.4,0.6,0.6,0.6c0.2,0,0.4-0.1,0.5-0.1
					c0.2,0,0.4,0,0.6-0.1c0.2-0.1,0.1-0.3,0.3-0.5c0.1-0.1,0.3,0,0.4-0.1c0.2-0.1,0.3-0.3,0.4-0.5c0-0.1,0-0.1,0-0.2
					c0-0.1,0.1-0.2,0.1-0.3c0-0.1-0.1-0.1-0.1-0.2c0-0.1,0-0.2,0-0.3c0-0.2,0-0.4-0.1-0.5c-0.4-0.7-1.2-0.9-2-0.8
					c-0.2,0-0.3,0.1-0.4,0.2c-0.2,0.1-0.1,0.2-0.3,0.2c-0.1,0-0.2,0.1-0.2,0.2C38.8-25.8,38.8-25.8,38.8-25.7
					C38.8-25.7,38.8-25.7,38.8-25.7"/>
				<path class="st2" d="M31.1-25.7c0,0.1,0,0.1,0,0.2c-0.1,0.1-0.1,0.1-0.2,0.1c-0.1,0.1-0.1,0.3-0.1,0.4c-0.2,0.1,0,0.2,0,0.3
					c0,0,0,0.1,0,0.2c0,0.1,0,0.3,0.1,0.4c0.1,0.2,0.3,0.4,0.4,0.5c0.2,0.1,0.4,0.6,0.6,0.6c0.2,0,0.4-0.1,0.5-0.1
					c0.2,0,0.4,0,0.6-0.1c0.2-0.1,0.1-0.3,0.3-0.5c0.1-0.1,0.3,0,0.4-0.1c0.2-0.1,0.3-0.3,0.4-0.5c0-0.1,0-0.1,0-0.2
					c0-0.1,0.1-0.2,0.1-0.3c0-0.1-0.1-0.1-0.1-0.2c0-0.1,0-0.2,0-0.3c0-0.2,0-0.4-0.1-0.5c-0.4-0.7-1.2-0.9-2-0.8
					c-0.2,0-0.3,0.1-0.4,0.2c-0.2,0.1-0.1,0.2-0.3,0.2c-0.1,0-0.2,0.1-0.2,0.2C31.1-25.8,31.1-25.8,31.1-25.7
					C31.1-25.7,31.1-25.7,31.1-25.7"/>
				<path class="st2" d="M23.5-25.7c0,0.1,0,0.1,0,0.2c-0.1,0.1-0.1,0.1-0.2,0.1c-0.1,0.1-0.1,0.3-0.1,0.4c-0.2,0.1,0,0.2,0,0.3
					c0,0,0,0.1,0,0.2c0,0.1,0,0.3,0.1,0.4c0.1,0.2,0.3,0.4,0.4,0.5c0.2,0.1,0.4,0.6,0.6,0.6c0.2,0,0.4-0.1,0.5-0.1
					c0.2,0,0.4,0,0.6-0.1c0.2-0.1,0.1-0.3,0.3-0.5c0.1-0.1,0.3,0,0.4-0.1c0.2-0.1,0.3-0.3,0.4-0.5c0-0.1,0-0.1,0-0.2
					c0-0.1,0.1-0.2,0.1-0.3c0-0.1-0.1-0.1-0.1-0.2c0-0.1,0-0.2,0-0.3c0-0.2,0-0.4-0.1-0.5c-0.4-0.7-1.2-0.9-2-0.8
					c-0.2,0-0.3,0.1-0.4,0.2c-0.2,0.1-0.1,0.2-0.3,0.2c-0.1,0-0.2,0.1-0.2,0.2C23.5-25.8,23.5-25.8,23.5-25.7
					C23.5-25.7,23.5-25.7,23.5-25.7"/>
				<path class="st2" d="M15.8-25.7c0,0.1,0,0.1,0,0.2c-0.1,0.1-0.1,0.1-0.2,0.1c-0.1,0.1-0.1,0.3-0.1,0.4c-0.2,0.1,0,0.2,0,0.3
					c0,0,0,0.1,0,0.2c0,0.1,0,0.3,0.1,0.4c0.1,0.2,0.3,0.4,0.4,0.5c0.2,0.1,0.4,0.6,0.6,0.6c0.2,0,0.4-0.1,0.5-0.1
					c0.2,0,0.4,0,0.6-0.1c0.2-0.1,0.1-0.3,0.3-0.5c0.1-0.1,0.3,0,0.4-0.1c0.2-0.1,0.3-0.3,0.4-0.5c0-0.1,0-0.1,0-0.2
					c0-0.1,0.1-0.2,0.1-0.3c0-0.1-0.1-0.1-0.1-0.2c0-0.1,0-0.2,0-0.3c0-0.2,0-0.4-0.1-0.5c-0.4-0.7-1.2-0.9-2-0.8
					c-0.2,0-0.3,0.1-0.4,0.2c-0.2,0.1-0.1,0.2-0.3,0.2c-0.1,0-0.2,0.1-0.2,0.2C15.8-25.8,15.8-25.8,15.8-25.7
					C15.8-25.7,15.8-25.7,15.8-25.7"/>
				<path class="st2" d="M8.2-25.7c0,0.1,0,0.1,0,0.2C8.1-25.4,8-25.5,8-25.4c-0.1,0.1-0.1,0.3-0.1,0.4c-0.2,0.1,0,0.2,0,0.3
					c0,0,0,0.1,0,0.2c0,0.1,0,0.3,0.1,0.4C8-24,8.2-23.8,8.3-23.6c0.2,0.1,0.4,0.6,0.6,0.6c0.2,0,0.4-0.1,0.5-0.1
					c0.2,0,0.4,0,0.6-0.1c0.2-0.1,0.1-0.3,0.3-0.5c0.1-0.1,0.3,0,0.4-0.1c0.2-0.1,0.3-0.3,0.4-0.5c0-0.1,0-0.1,0-0.2
					c0-0.1,0.1-0.2,0.1-0.3c0-0.1-0.1-0.1-0.1-0.2c0-0.1,0-0.2,0-0.3c0-0.2,0-0.4-0.1-0.5c-0.4-0.7-1.2-0.9-2-0.8
					c-0.2,0-0.3,0.1-0.4,0.2c-0.2,0.1-0.1,0.2-0.3,0.2c-0.1,0-0.2,0.1-0.2,0.2C8.2-25.8,8.2-25.8,8.2-25.7
					C8.1-25.7,8.1-25.7,8.2-25.7"/>
				<path class="st2" d="M0.5-25.7c0,0.1,0,0.1,0,0.2c-0.1,0.1-0.1,0.1-0.2,0.1c-0.1,0.1-0.1,0.3-0.1,0.4c-0.2,0.1,0,0.2,0,0.3
					c0,0,0,0.1,0,0.2c0,0.1,0,0.3,0.1,0.4c0.1,0.2,0.3,0.4,0.4,0.5C0.9-23.5,1-23.1,1.3-23c0.2,0,0.4-0.1,0.5-0.1
					c0.2,0,0.4,0,0.6-0.1c0.2-0.1,0.1-0.3,0.3-0.5c0.1-0.1,0.3,0,0.4-0.1c0.2-0.1,0.3-0.3,0.4-0.5c0-0.1,0-0.1,0-0.2
					c0-0.1,0.1-0.2,0.1-0.3c0-0.1-0.1-0.1-0.1-0.2c0-0.1,0-0.2,0-0.3c0-0.2,0-0.4-0.1-0.5c-0.4-0.7-1.2-0.9-2-0.8
					c-0.2,0-0.3,0.1-0.4,0.2c-0.2,0.1-0.1,0.2-0.3,0.2c-0.1,0-0.2,0.1-0.2,0.2C0.5-25.8,0.5-25.8,0.5-25.7
					C0.5-25.7,0.5-25.7,0.5-25.7"/>
			</g>
			<g>
				<path class="st2" d="M69.4-18.1c0,0.1,0,0.1,0,0.2c-0.1,0.1-0.1,0.1-0.2,0.1c-0.1,0.1-0.1,0.3-0.1,0.4c-0.2,0.1,0,0.2,0,0.3
					c0,0,0,0.1,0,0.2c0,0.1,0,0.3,0.1,0.4c0.1,0.2,0.3,0.4,0.4,0.5c0.2,0.1,0.4,0.6,0.6,0.6c0.2,0,0.4-0.1,0.5-0.1
					c0.2,0,0.4,0,0.6-0.1c0.2-0.1,0.1-0.3,0.3-0.5c0.1-0.1,0.3,0,0.4-0.1c0.2-0.1,0.3-0.3,0.4-0.5c0-0.1,0-0.1,0-0.2
					c0-0.1,0.1-0.2,0.1-0.3c0-0.1-0.1-0.1-0.1-0.2c0-0.1,0-0.2,0-0.3c0-0.2,0-0.4-0.1-0.5c-0.4-0.7-1.2-0.9-2-0.8
					c-0.2,0-0.3,0.1-0.4,0.2c-0.2,0.1-0.1,0.2-0.3,0.2c-0.1,0-0.2,0.1-0.2,0.2C69.4-18.1,69.4-18.2,69.4-18.1
					C69.4-18,69.4-18.1,69.4-18.1"/>
				<path class="st2" d="M61.8-18.1c0,0.1,0,0.1,0,0.2c-0.1,0.1-0.1,0.1-0.2,0.1c-0.1,0.1-0.1,0.3-0.1,0.4c-0.2,0.1,0,0.2,0,0.3
					c0,0,0,0.1,0,0.2c0,0.1,0,0.3,0.1,0.4c0.1,0.2,0.3,0.4,0.4,0.5c0.2,0.1,0.4,0.6,0.6,0.6c0.2,0,0.4-0.1,0.5-0.1
					c0.2,0,0.4,0,0.6-0.1c0.2-0.1,0.1-0.3,0.3-0.5c0.1-0.1,0.3,0,0.4-0.1c0.2-0.1,0.3-0.3,0.4-0.5c0-0.1,0-0.1,0-0.2
					c0-0.1,0.1-0.2,0.1-0.3c0-0.1-0.1-0.1-0.1-0.2c0-0.1,0-0.2,0-0.3c0-0.2,0-0.4-0.1-0.5c-0.4-0.7-1.2-0.9-2-0.8
					c-0.2,0-0.3,0.1-0.4,0.2c-0.2,0.1-0.1,0.2-0.3,0.2c-0.1,0-0.2,0.1-0.2,0.2C61.8-18.1,61.8-18.2,61.8-18.1
					C61.8-18,61.8-18.1,61.8-18.1"/>
				<path class="st2" d="M54.1-18.1c0,0.1,0,0.1,0,0.2c-0.1,0.1-0.1,0.1-0.2,0.1c-0.1,0.1-0.1,0.3-0.1,0.4c-0.2,0.1,0,0.2,0,0.3
					c0,0,0,0.1,0,0.2c0,0.1,0,0.3,0.1,0.4c0.1,0.2,0.3,0.4,0.4,0.5c0.2,0.1,0.4,0.6,0.6,0.6c0.2,0,0.4-0.1,0.5-0.1
					c0.2,0,0.4,0,0.6-0.1c0.2-0.1,0.1-0.3,0.3-0.5c0.1-0.1,0.3,0,0.4-0.1c0.2-0.1,0.3-0.3,0.4-0.5c0-0.1,0-0.1,0-0.2
					c0-0.1,0.1-0.2,0.1-0.3c0-0.1-0.1-0.1-0.1-0.2c0-0.1,0-0.2,0-0.3c0-0.2,0-0.4-0.1-0.5c-0.4-0.7-1.2-0.9-2-0.8
					c-0.2,0-0.3,0.1-0.4,0.2c-0.2,0.1-0.1,0.2-0.3,0.2c-0.1,0-0.2,0.1-0.2,0.2C54.1-18.1,54.1-18.2,54.1-18.1
					C54.1-18,54.1-18.1,54.1-18.1"/>
				<path class="st2" d="M46.5-18.1c0,0.1,0,0.1,0,0.2c-0.1,0.1-0.1,0.1-0.2,0.1c-0.1,0.1-0.1,0.3-0.1,0.4c-0.2,0.1,0,0.2,0,0.3
					c0,0,0,0.1,0,0.2c0,0.1,0,0.3,0.1,0.4c0.1,0.2,0.3,0.4,0.4,0.5c0.2,0.1,0.4,0.6,0.6,0.6c0.2,0,0.4-0.1,0.5-0.1
					c0.2,0,0.4,0,0.6-0.1c0.2-0.1,0.1-0.3,0.3-0.5c0.1-0.1,0.3,0,0.4-0.1c0.2-0.1,0.3-0.3,0.4-0.5c0-0.1,0-0.1,0-0.2
					c0-0.1,0.1-0.2,0.1-0.3c0-0.1-0.1-0.1-0.1-0.2c0-0.1,0-0.2,0-0.3c0-0.2,0-0.4-0.1-0.5c-0.4-0.7-1.2-0.9-2-0.8
					c-0.2,0-0.3,0.1-0.4,0.2c-0.2,0.1-0.1,0.2-0.3,0.2c-0.1,0-0.2,0.1-0.2,0.2C46.5-18.1,46.5-18.2,46.5-18.1
					C46.5-18,46.5-18.1,46.5-18.1"/>
				<path class="st2" d="M38.8-18.1c0,0.1,0,0.1,0,0.2c-0.1,0.1-0.1,0.1-0.2,0.1c-0.1,0.1-0.1,0.3-0.1,0.4c-0.2,0.1,0,0.2,0,0.3
					c0,0,0,0.1,0,0.2c0,0.1,0,0.3,0.1,0.4c0.1,0.2,0.3,0.4,0.4,0.5c0.2,0.1,0.4,0.6,0.6,0.6c0.2,0,0.4-0.1,0.5-0.1
					c0.2,0,0.4,0,0.6-0.1c0.2-0.1,0.1-0.3,0.3-0.5c0.1-0.1,0.3,0,0.4-0.1c0.2-0.1,0.3-0.3,0.4-0.5c0-0.1,0-0.1,0-0.2
					c0-0.1,0.1-0.2,0.1-0.3c0-0.1-0.1-0.1-0.1-0.2c0-0.1,0-0.2,0-0.3c0-0.2,0-0.4-0.1-0.5c-0.4-0.7-1.2-0.9-2-0.8
					c-0.2,0-0.3,0.1-0.4,0.2c-0.2,0.1-0.1,0.2-0.3,0.2c-0.1,0-0.2,0.1-0.2,0.2C38.8-18.1,38.8-18.2,38.8-18.1
					C38.8-18,38.8-18.1,38.8-18.1"/>
				<path class="st2" d="M31.1-18.1c0,0.1,0,0.1,0,0.2c-0.1,0.1-0.1,0.1-0.2,0.1c-0.1,0.1-0.1,0.3-0.1,0.4c-0.2,0.1,0,0.2,0,0.3
					c0,0,0,0.1,0,0.2c0,0.1,0,0.3,0.1,0.4c0.1,0.2,0.3,0.4,0.4,0.5c0.2,0.1,0.4,0.6,0.6,0.6c0.2,0,0.4-0.1,0.5-0.1
					c0.2,0,0.4,0,0.6-0.1c0.2-0.1,0.1-0.3,0.3-0.5c0.1-0.1,0.3,0,0.4-0.1c0.2-0.1,0.3-0.3,0.4-0.5c0-0.1,0-0.1,0-0.2
					c0-0.1,0.1-0.2,0.1-0.3c0-0.1-0.1-0.1-0.1-0.2c0-0.1,0-0.2,0-0.3c0-0.2,0-0.4-0.1-0.5c-0.4-0.7-1.2-0.9-2-0.8
					c-0.2,0-0.3,0.1-0.4,0.2c-0.2,0.1-0.1,0.2-0.3,0.2c-0.1,0-0.2,0.1-0.2,0.2C31.1-18.1,31.1-18.2,31.1-18.1
					C31.1-18,31.1-18.1,31.1-18.1"/>
				<path class="st2" d="M23.5-18.1c0,0.1,0,0.1,0,0.2c-0.1,0.1-0.1,0.1-0.2,0.1c-0.1,0.1-0.1,0.3-0.1,0.4c-0.2,0.1,0,0.2,0,0.3
					c0,0,0,0.1,0,0.2c0,0.1,0,0.3,0.1,0.4c0.1,0.2,0.3,0.4,0.4,0.5c0.2,0.1,0.4,0.6,0.6,0.6c0.2,0,0.4-0.1,0.5-0.1
					c0.2,0,0.4,0,0.6-0.1c0.2-0.1,0.1-0.3,0.3-0.5c0.1-0.1,0.3,0,0.4-0.1c0.2-0.1,0.3-0.3,0.4-0.5c0-0.1,0-0.1,0-0.2
					c0-0.1,0.1-0.2,0.1-0.3c0-0.1-0.1-0.1-0.1-0.2c0-0.1,0-0.2,0-0.3c0-0.2,0-0.4-0.1-0.5c-0.4-0.7-1.2-0.9-2-0.8
					c-0.2,0-0.3,0.1-0.4,0.2c-0.2,0.1-0.1,0.2-0.3,0.2c-0.1,0-0.2,0.1-0.2,0.2C23.5-18.1,23.5-18.2,23.5-18.1
					C23.5-18,23.5-18.1,23.5-18.1"/>
				<path class="st2" d="M15.8-18.1c0,0.1,0,0.1,0,0.2c-0.1,0.1-0.1,0.1-0.2,0.1c-0.1,0.1-0.1,0.3-0.1,0.4c-0.2,0.1,0,0.2,0,0.3
					c0,0,0,0.1,0,0.2c0,0.1,0,0.3,0.1,0.4c0.1,0.2,0.3,0.4,0.4,0.5c0.2,0.1,0.4,0.6,0.6,0.6c0.2,0,0.4-0.1,0.5-0.1
					c0.2,0,0.4,0,0.6-0.1c0.2-0.1,0.1-0.3,0.3-0.5c0.1-0.1,0.3,0,0.4-0.1c0.2-0.1,0.3-0.3,0.4-0.5c0-0.1,0-0.1,0-0.2
					c0-0.1,0.1-0.2,0.1-0.3c0-0.1-0.1-0.1-0.1-0.2c0-0.1,0-0.2,0-0.3c0-0.2,0-0.4-0.1-0.5c-0.4-0.7-1.2-0.9-2-0.8
					c-0.2,0-0.3,0.1-0.4,0.2c-0.2,0.1-0.1,0.2-0.3,0.2c-0.1,0-0.2,0.1-0.2,0.2C15.8-18.1,15.8-18.2,15.8-18.1
					C15.8-18,15.8-18.1,15.8-18.1"/>
				<path class="st2" d="M8.2-18.1c0,0.1,0,0.1,0,0.2C8.1-17.8,8-17.8,8-17.8c-0.1,0.1-0.1,0.3-0.1,0.4c-0.2,0.1,0,0.2,0,0.3
					c0,0,0,0.1,0,0.2c0,0.1,0,0.3,0.1,0.4C8-16.3,8.2-16.1,8.3-16c0.2,0.1,0.4,0.6,0.6,0.6c0.2,0,0.4-0.1,0.5-0.1
					c0.2,0,0.4,0,0.6-0.1c0.2-0.1,0.1-0.3,0.3-0.5c0.1-0.1,0.3,0,0.4-0.1c0.2-0.1,0.3-0.3,0.4-0.5c0-0.1,0-0.1,0-0.2
					c0-0.1,0.1-0.2,0.1-0.3c0-0.1-0.1-0.1-0.1-0.2c0-0.1,0-0.2,0-0.3c0-0.2,0-0.4-0.1-0.5c-0.4-0.7-1.2-0.9-2-0.8
					c-0.2,0-0.3,0.1-0.4,0.2c-0.2,0.1-0.1,0.2-0.3,0.2c-0.1,0-0.2,0.1-0.2,0.2C8.2-18.1,8.2-18.2,8.2-18.1C8.1-18,8.1-18.1,8.2-18.1
					"/>
				<path class="st2" d="M0.5-18.1c0,0.1,0,0.1,0,0.2c-0.1,0.1-0.1,0.1-0.2,0.1c-0.1,0.1-0.1,0.3-0.1,0.4c-0.2,0.1,0,0.2,0,0.3
					c0,0,0,0.1,0,0.2c0,0.1,0,0.3,0.1,0.4c0.1,0.2,0.3,0.4,0.4,0.5c0.2,0.1,0.4,0.6,0.6,0.6c0.2,0,0.4-0.1,0.5-0.1
					c0.2,0,0.4,0,0.6-0.1c0.2-0.1,0.1-0.3,0.3-0.5C2.8-16.1,3-16,3.1-16c0.2-0.1,0.3-0.3,0.4-0.5c0-0.1,0-0.1,0-0.2
					c0-0.1,0.1-0.2,0.1-0.3c0-0.1-0.1-0.1-0.1-0.2c0-0.1,0-0.2,0-0.3c0-0.2,0-0.4-0.1-0.5c-0.4-0.7-1.2-0.9-2-0.8
					c-0.2,0-0.3,0.1-0.4,0.2c-0.2,0.1-0.1,0.2-0.3,0.2c-0.1,0-0.2,0.1-0.2,0.2C0.5-18.1,0.5-18.2,0.5-18.1C0.5-18,0.5-18.1,0.5-18.1
					"/>
			</g>
			<g>
				<path class="st2" d="M69.4-10.4c0,0.1,0,0.1,0,0.2c-0.1,0.1-0.1,0.1-0.2,0.1c-0.1,0.1-0.1,0.3-0.1,0.4c-0.2,0.1,0,0.2,0,0.3
					c0,0,0,0.1,0,0.2c0,0.1,0,0.3,0.1,0.4c0.1,0.2,0.3,0.4,0.4,0.5c0.2,0.1,0.4,0.6,0.6,0.6c0.2,0,0.4-0.1,0.5-0.1
					c0.2,0,0.4,0,0.6-0.1c0.2-0.1,0.1-0.3,0.3-0.5c0.1-0.1,0.3,0,0.4-0.1c0.2-0.1,0.3-0.3,0.4-0.5c0-0.1,0-0.1,0-0.2
					c0-0.1,0.1-0.2,0.1-0.3c0-0.1-0.1-0.1-0.1-0.2c0-0.1,0-0.2,0-0.3c0-0.2,0-0.4-0.1-0.5c-0.4-0.7-1.2-0.9-2-0.8
					c-0.2,0-0.3,0.1-0.4,0.2c-0.2,0.1-0.1,0.2-0.3,0.2c-0.1,0-0.2,0.1-0.2,0.2C69.4-10.5,69.4-10.5,69.4-10.4
					C69.4-10.4,69.4-10.4,69.4-10.4"/>
				<path class="st2" d="M61.8-10.4c0,0.1,0,0.1,0,0.2c-0.1,0.1-0.1,0.1-0.2,0.1c-0.1,0.1-0.1,0.3-0.1,0.4c-0.2,0.1,0,0.2,0,0.3
					c0,0,0,0.1,0,0.2c0,0.1,0,0.3,0.1,0.4c0.1,0.2,0.3,0.4,0.4,0.5c0.2,0.1,0.4,0.6,0.6,0.6c0.2,0,0.4-0.1,0.5-0.1
					c0.2,0,0.4,0,0.6-0.1C63.9-8,63.8-8.2,64-8.3c0.1-0.1,0.3,0,0.4-0.1c0.2-0.1,0.3-0.3,0.4-0.5c0-0.1,0-0.1,0-0.2
					c0-0.1,0.1-0.2,0.1-0.3c0-0.1-0.1-0.1-0.1-0.2c0-0.1,0-0.2,0-0.3c0-0.2,0-0.4-0.1-0.5c-0.4-0.7-1.2-0.9-2-0.8
					c-0.2,0-0.3,0.1-0.4,0.2c-0.2,0.1-0.1,0.2-0.3,0.2c-0.1,0-0.2,0.1-0.2,0.2C61.8-10.5,61.8-10.5,61.8-10.4
					C61.8-10.4,61.8-10.4,61.8-10.4"/>
				<path class="st2" d="M54.1-10.4c0,0.1,0,0.1,0,0.2c-0.1,0.1-0.1,0.1-0.2,0.1c-0.1,0.1-0.1,0.3-0.1,0.4c-0.2,0.1,0,0.2,0,0.3
					c0,0,0,0.1,0,0.2c0,0.1,0,0.3,0.1,0.4c0.1,0.2,0.3,0.4,0.4,0.5c0.2,0.1,0.4,0.6,0.6,0.6c0.2,0,0.4-0.1,0.5-0.1
					c0.2,0,0.4,0,0.6-0.1c0.2-0.1,0.1-0.3,0.3-0.5c0.1-0.1,0.3,0,0.4-0.1c0.2-0.1,0.3-0.3,0.4-0.5c0-0.1,0-0.1,0-0.2
					c0-0.1,0.1-0.2,0.1-0.3c0-0.1-0.1-0.1-0.1-0.2c0-0.1,0-0.2,0-0.3c0-0.2,0-0.4-0.1-0.5c-0.4-0.7-1.2-0.9-2-0.8
					c-0.2,0-0.3,0.1-0.4,0.2c-0.2,0.1-0.1,0.2-0.3,0.2c-0.1,0-0.2,0.1-0.2,0.2C54.1-10.5,54.1-10.5,54.1-10.4
					C54.1-10.4,54.1-10.4,54.1-10.4"/>
				<path class="st2" d="M46.5-10.4c0,0.1,0,0.1,0,0.2c-0.1,0.1-0.1,0.1-0.2,0.1c-0.1,0.1-0.1,0.3-0.1,0.4c-0.2,0.1,0,0.2,0,0.3
					c0,0,0,0.1,0,0.2c0,0.1,0,0.3,0.1,0.4c0.1,0.2,0.3,0.4,0.4,0.5c0.2,0.1,0.4,0.6,0.6,0.6c0.2,0,0.4-0.1,0.5-0.1
					c0.2,0,0.4,0,0.6-0.1c0.2-0.1,0.1-0.3,0.3-0.5c0.1-0.1,0.3,0,0.4-0.1c0.2-0.1,0.3-0.3,0.4-0.5c0-0.1,0-0.1,0-0.2
					c0-0.1,0.1-0.2,0.1-0.3c0-0.1-0.1-0.1-0.1-0.2c0-0.1,0-0.2,0-0.3c0-0.2,0-0.4-0.1-0.5c-0.4-0.7-1.2-0.9-2-0.8
					c-0.2,0-0.3,0.1-0.4,0.2c-0.2,0.1-0.1,0.2-0.3,0.2c-0.1,0-0.2,0.1-0.2,0.2C46.5-10.5,46.5-10.5,46.5-10.4
					C46.5-10.4,46.5-10.4,46.5-10.4"/>
				<path class="st2" d="M38.8-10.4c0,0.1,0,0.1,0,0.2c-0.1,0.1-0.1,0.1-0.2,0.1c-0.1,0.1-0.1,0.3-0.1,0.4c-0.2,0.1,0,0.2,0,0.3
					c0,0,0,0.1,0,0.2c0,0.1,0,0.3,0.1,0.4c0.1,0.2,0.3,0.4,0.4,0.5c0.2,0.1,0.4,0.6,0.6,0.6c0.2,0,0.4-0.1,0.5-0.1
					c0.2,0,0.4,0,0.6-0.1C40.9-8,40.8-8.2,41-8.3c0.1-0.1,0.3,0,0.4-0.1c0.2-0.1,0.3-0.3,0.4-0.5c0-0.1,0-0.1,0-0.2
					c0-0.1,0.1-0.2,0.1-0.3c0-0.1-0.1-0.1-0.1-0.2c0-0.1,0-0.2,0-0.3c0-0.2,0-0.4-0.1-0.5c-0.4-0.7-1.2-0.9-2-0.8
					c-0.2,0-0.3,0.1-0.4,0.2c-0.2,0.1-0.1,0.2-0.3,0.2c-0.1,0-0.2,0.1-0.2,0.2C38.8-10.5,38.8-10.5,38.8-10.4
					C38.8-10.4,38.8-10.4,38.8-10.4"/>
				<path class="st2" d="M31.1-10.4c0,0.1,0,0.1,0,0.2c-0.1,0.1-0.1,0.1-0.2,0.1c-0.1,0.1-0.1,0.3-0.1,0.4c-0.2,0.1,0,0.2,0,0.3
					c0,0,0,0.1,0,0.2c0,0.1,0,0.3,0.1,0.4c0.1,0.2,0.3,0.4,0.4,0.5c0.2,0.1,0.4,0.6,0.6,0.6c0.2,0,0.4-0.1,0.5-0.1
					c0.2,0,0.4,0,0.6-0.1c0.2-0.1,0.1-0.3,0.3-0.5c0.1-0.1,0.3,0,0.4-0.1c0.2-0.1,0.3-0.3,0.4-0.5c0-0.1,0-0.1,0-0.2
					c0-0.1,0.1-0.2,0.1-0.3c0-0.1-0.1-0.1-0.1-0.2c0-0.1,0-0.2,0-0.3c0-0.2,0-0.4-0.1-0.5c-0.4-0.7-1.2-0.9-2-0.8
					c-0.2,0-0.3,0.1-0.4,0.2c-0.2,0.1-0.1,0.2-0.3,0.2c-0.1,0-0.2,0.1-0.2,0.2C31.1-10.5,31.1-10.5,31.1-10.4
					C31.1-10.4,31.1-10.4,31.1-10.4"/>
				<path class="st2" d="M23.5-10.4c0,0.1,0,0.1,0,0.2c-0.1,0.1-0.1,0.1-0.2,0.1c-0.1,0.1-0.1,0.3-0.1,0.4c-0.2,0.1,0,0.2,0,0.3
					c0,0,0,0.1,0,0.2c0,0.1,0,0.3,0.1,0.4c0.1,0.2,0.3,0.4,0.4,0.5c0.2,0.1,0.4,0.6,0.6,0.6c0.2,0,0.4-0.1,0.5-0.1
					c0.2,0,0.4,0,0.6-0.1c0.2-0.1,0.1-0.3,0.3-0.5c0.1-0.1,0.3,0,0.4-0.1c0.2-0.1,0.3-0.3,0.4-0.5c0-0.1,0-0.1,0-0.2
					c0-0.1,0.1-0.2,0.1-0.3c0-0.1-0.1-0.1-0.1-0.2c0-0.1,0-0.2,0-0.3c0-0.2,0-0.4-0.1-0.5c-0.4-0.7-1.2-0.9-2-0.8
					c-0.2,0-0.3,0.1-0.4,0.2c-0.2,0.1-0.1,0.2-0.3,0.2c-0.1,0-0.2,0.1-0.2,0.2C23.5-10.5,23.5-10.5,23.5-10.4
					C23.5-10.4,23.5-10.4,23.5-10.4"/>
				<path class="st2" d="M15.8-10.4c0,0.1,0,0.1,0,0.2c-0.1,0.1-0.1,0.1-0.2,0.1c-0.1,0.1-0.1,0.3-0.1,0.4c-0.2,0.1,0,0.2,0,0.3
					c0,0,0,0.1,0,0.2c0,0.1,0,0.3,0.1,0.4c0.1,0.2,0.3,0.4,0.4,0.5c0.2,0.1,0.4,0.6,0.6,0.6c0.2,0,0.4-0.1,0.5-0.1
					c0.2,0,0.4,0,0.6-0.1C17.9-8,17.8-8.2,18-8.3c0.1-0.1,0.3,0,0.4-0.1c0.2-0.1,0.3-0.3,0.4-0.5c0-0.1,0-0.1,0-0.2
					c0-0.1,0.1-0.2,0.1-0.3c0-0.1-0.1-0.1-0.1-0.2c0-0.1,0-0.2,0-0.3c0-0.2,0-0.4-0.1-0.5c-0.4-0.7-1.2-0.9-2-0.8
					c-0.2,0-0.3,0.1-0.4,0.2c-0.2,0.1-0.1,0.2-0.3,0.2c-0.1,0-0.2,0.1-0.2,0.2C15.8-10.5,15.8-10.5,15.8-10.4
					C15.8-10.4,15.8-10.4,15.8-10.4"/>
				<path class="st2" d="M8.2-10.4c0,0.1,0,0.1,0,0.2C8.1-10.1,8-10.2,8-10.1C7.9-10,7.9-9.8,7.9-9.8c-0.2,0.1,0,0.2,0,0.3
					c0,0,0,0.1,0,0.2c0,0.1,0,0.3,0.1,0.4C8-8.7,8.2-8.5,8.3-8.3c0.2,0.1,0.4,0.6,0.6,0.6c0.2,0,0.4-0.1,0.5-0.1
					c0.2,0,0.4,0,0.6-0.1c0.2-0.1,0.1-0.3,0.3-0.5c0.1-0.1,0.3,0,0.4-0.1c0.2-0.1,0.3-0.3,0.4-0.5c0-0.1,0-0.1,0-0.2
					c0-0.1,0.1-0.2,0.1-0.3c0-0.1-0.1-0.1-0.1-0.2c0-0.1,0-0.2,0-0.3c0-0.2,0-0.4-0.1-0.5c-0.4-0.7-1.2-0.9-2-0.8
					c-0.2,0-0.3,0.1-0.4,0.2c-0.2,0.1-0.1,0.2-0.3,0.2c-0.1,0-0.2,0.1-0.2,0.2C8.2-10.5,8.2-10.5,8.2-10.4
					C8.1-10.4,8.1-10.4,8.2-10.4"/>
				<path class="st2" d="M0.5-10.4c0,0.1,0,0.1,0,0.2c-0.1,0.1-0.1,0.1-0.2,0.1C0.3-10,0.2-9.8,0.2-9.8c-0.2,0.1,0,0.2,0,0.3
					c0,0,0,0.1,0,0.2c0,0.1,0,0.3,0.1,0.4c0.1,0.2,0.3,0.4,0.4,0.5C0.9-8.2,1-7.8,1.3-7.7c0.2,0,0.4-0.1,0.5-0.1
					c0.2,0,0.4,0,0.6-0.1C2.6-8,2.5-8.2,2.7-8.3c0.1-0.1,0.3,0,0.4-0.1c0.2-0.1,0.3-0.3,0.4-0.5c0-0.1,0-0.1,0-0.2
					c0-0.1,0.1-0.2,0.1-0.3c0-0.1-0.1-0.1-0.1-0.2c0-0.1,0-0.2,0-0.3c0-0.2,0-0.4-0.1-0.5c-0.4-0.7-1.2-0.9-2-0.8
					c-0.2,0-0.3,0.1-0.4,0.2c-0.2,0.1-0.1,0.2-0.3,0.2c-0.1,0-0.2,0.1-0.2,0.2C0.5-10.5,0.5-10.5,0.5-10.4
					C0.5-10.4,0.5-10.4,0.5-10.4"/>
			</g>
		</g>
		<g>
			<path class="st2" d="M69.4-2.8c0,0.1,0,0.1,0,0.2c-0.1,0.1-0.1,0.1-0.2,0.1c-0.1,0.1-0.1,0.3-0.1,0.4c-0.2,0.1,0,0.2,0,0.3
				c0,0,0,0.1,0,0.2c0,0.1,0,0.3,0.1,0.4c0.1,0.2,0.3,0.4,0.4,0.5C69.8-0.5,70-0.1,70.2,0c0.2,0,0.4-0.1,0.5-0.1
				c0.2,0,0.4,0,0.6-0.1c0.2-0.1,0.1-0.3,0.3-0.5c0.1-0.1,0.3,0,0.4-0.1c0.2-0.1,0.3-0.3,0.4-0.5c0-0.1,0-0.1,0-0.2
				c0-0.1,0.1-0.2,0.1-0.3c0-0.1-0.1-0.1-0.1-0.2c0-0.1,0-0.2,0-0.3c0-0.2,0-0.4-0.1-0.5c-0.4-0.7-1.2-0.9-2-0.8
				c-0.2,0-0.3,0.1-0.4,0.2c-0.2,0.1-0.1,0.2-0.3,0.2c-0.1,0-0.2,0.1-0.2,0.2C69.4-2.8,69.4-2.9,69.4-2.8
				C69.4-2.7,69.4-2.8,69.4-2.8"/>
			<path class="st2" d="M61.8-2.8c0,0.1,0,0.1,0,0.2c-0.1,0.1-0.1,0.1-0.2,0.1c-0.1,0.1-0.1,0.3-0.1,0.4c-0.2,0.1,0,0.2,0,0.3
				c0,0,0,0.1,0,0.2c0,0.1,0,0.3,0.1,0.4C61.6-1,61.8-0.8,62-0.7c0.2,0.1,0.4,0.6,0.6,0.6c0.2,0,0.4-0.1,0.5-0.1
				c0.2,0,0.4,0,0.6-0.1c0.2-0.1,0.1-0.3,0.3-0.5c0.1-0.1,0.3,0,0.4-0.1c0.2-0.1,0.3-0.3,0.4-0.5c0-0.1,0-0.1,0-0.2
				c0-0.1,0.1-0.2,0.1-0.3c0-0.1-0.1-0.1-0.1-0.2c0-0.1,0-0.2,0-0.3c0-0.2,0-0.4-0.1-0.5c-0.4-0.7-1.2-0.9-2-0.8
				c-0.2,0-0.3,0.1-0.4,0.2c-0.2,0.1-0.1,0.2-0.3,0.2c-0.1,0-0.2,0.1-0.2,0.2C61.8-2.8,61.8-2.9,61.8-2.8
				C61.8-2.7,61.8-2.8,61.8-2.8"/>
			<path class="st2" d="M54.1-2.8c0,0.1,0,0.1,0,0.2C54-2.5,54-2.5,53.9-2.5c-0.1,0.1-0.1,0.3-0.1,0.4c-0.2,0.1,0,0.2,0,0.3
				c0,0,0,0.1,0,0.2c0,0.1,0,0.3,0.1,0.4C54-1,54.1-0.8,54.3-0.7c0.2,0.1,0.4,0.6,0.6,0.6c0.2,0,0.4-0.1,0.5-0.1
				c0.2,0,0.4,0,0.6-0.1c0.2-0.1,0.1-0.3,0.3-0.5c0.1-0.1,0.3,0,0.4-0.1C56.9-0.8,57-1,57.1-1.2c0-0.1,0-0.1,0-0.2
				c0-0.1,0.1-0.2,0.1-0.3c0-0.1-0.1-0.1-0.1-0.2c0-0.1,0-0.2,0-0.3c0-0.2,0-0.4-0.1-0.5c-0.4-0.7-1.2-0.9-2-0.8
				c-0.2,0-0.3,0.1-0.4,0.2c-0.2,0.1-0.1,0.2-0.3,0.2c-0.1,0-0.2,0.1-0.2,0.2C54.1-2.8,54.1-2.9,54.1-2.8
				C54.1-2.7,54.1-2.8,54.1-2.8"/>
			<path class="st2" d="M46.5-2.8c0,0.1,0,0.1,0,0.2c-0.1,0.1-0.1,0.1-0.2,0.1c-0.1,0.1-0.1,0.3-0.1,0.4c-0.2,0.1,0,0.2,0,0.3
				c0,0,0,0.1,0,0.2c0,0.1,0,0.3,0.1,0.4c0.1,0.2,0.3,0.4,0.4,0.5C46.8-0.5,47-0.1,47.2,0c0.2,0,0.4-0.1,0.5-0.1
				c0.2,0,0.4,0,0.6-0.1c0.2-0.1,0.1-0.3,0.3-0.5c0.1-0.1,0.3,0,0.4-0.1c0.2-0.1,0.3-0.3,0.4-0.5c0-0.1,0-0.1,0-0.2
				c0-0.1,0.1-0.2,0.1-0.3c0-0.1-0.1-0.1-0.1-0.2c0-0.1,0-0.2,0-0.3c0-0.2,0-0.4-0.1-0.5c-0.4-0.7-1.2-0.9-2-0.8
				c-0.2,0-0.3,0.1-0.4,0.2c-0.2,0.1-0.1,0.2-0.3,0.2c-0.1,0-0.2,0.1-0.2,0.2C46.5-2.8,46.5-2.9,46.5-2.8
				C46.5-2.7,46.5-2.8,46.5-2.8"/>
			<path class="st2" d="M38.8-2.8c0,0.1,0,0.1,0,0.2c-0.1,0.1-0.1,0.1-0.2,0.1c-0.1,0.1-0.1,0.3-0.1,0.4c-0.2,0.1,0,0.2,0,0.3
				c0,0,0,0.1,0,0.2c0,0.1,0,0.3,0.1,0.4C38.6-1,38.8-0.8,39-0.7c0.2,0.1,0.4,0.6,0.6,0.6c0.2,0,0.4-0.1,0.5-0.1
				c0.2,0,0.4,0,0.6-0.1c0.2-0.1,0.1-0.3,0.3-0.5c0.1-0.1,0.3,0,0.4-0.1c0.2-0.1,0.3-0.3,0.4-0.5c0-0.1,0-0.1,0-0.2
				c0-0.1,0.1-0.2,0.1-0.3c0-0.1-0.1-0.1-0.1-0.2c0-0.1,0-0.2,0-0.3c0-0.2,0-0.4-0.1-0.5c-0.4-0.7-1.2-0.9-2-0.8
				c-0.2,0-0.3,0.1-0.4,0.2c-0.2,0.1-0.1,0.2-0.3,0.2c-0.1,0-0.2,0.1-0.2,0.2C38.8-2.8,38.8-2.9,38.8-2.8
				C38.8-2.7,38.8-2.8,38.8-2.8"/>
			<path class="st2" d="M31.1-2.8c0,0.1,0,0.1,0,0.2c-0.1,0.1-0.1,0.1-0.2,0.1c-0.1,0.1-0.1,0.3-0.1,0.4c-0.2,0.1,0,0.2,0,0.3
				c0,0,0,0.1,0,0.2c0,0.1,0,0.3,0.1,0.4C31-1,31.1-0.8,31.3-0.7c0.2,0.1,0.4,0.6,0.6,0.6c0.2,0,0.4-0.1,0.5-0.1
				c0.2,0,0.4,0,0.6-0.1c0.2-0.1,0.1-0.3,0.3-0.5c0.1-0.1,0.3,0,0.4-0.1c0.2-0.1,0.3-0.3,0.4-0.5c0-0.1,0-0.1,0-0.2
				c0-0.1,0.1-0.2,0.1-0.3c0-0.1-0.1-0.1-0.1-0.2c0-0.1,0-0.2,0-0.3c0-0.2,0-0.4-0.1-0.5c-0.4-0.7-1.2-0.9-2-0.8
				c-0.2,0-0.3,0.1-0.4,0.2c-0.2,0.1-0.1,0.2-0.3,0.2c-0.1,0-0.2,0.1-0.2,0.2C31.1-2.8,31.1-2.9,31.1-2.8
				C31.1-2.7,31.1-2.8,31.1-2.8"/>
			<path class="st2" d="M23.5-2.8c0,0.1,0,0.1,0,0.2c-0.1,0.1-0.1,0.1-0.2,0.1c-0.1,0.1-0.1,0.3-0.1,0.4c-0.2,0.1,0,0.2,0,0.3
				c0,0,0,0.1,0,0.2c0,0.1,0,0.3,0.1,0.4c0.1,0.2,0.3,0.4,0.4,0.5C23.8-0.5,24-0.1,24.3,0c0.2,0,0.4-0.1,0.5-0.1
				c0.2,0,0.4,0,0.6-0.1c0.2-0.1,0.1-0.3,0.3-0.5c0.1-0.1,0.3,0,0.4-0.1c0.2-0.1,0.3-0.3,0.4-0.5c0-0.1,0-0.1,0-0.2
				c0-0.1,0.1-0.2,0.1-0.3c0-0.1-0.1-0.1-0.1-0.2c0-0.1,0-0.2,0-0.3c0-0.2,0-0.4-0.1-0.5c-0.4-0.7-1.2-0.9-2-0.8
				c-0.2,0-0.3,0.1-0.4,0.2c-0.2,0.1-0.1,0.2-0.3,0.2c-0.1,0-0.2,0.1-0.2,0.2C23.5-2.8,23.5-2.9,23.5-2.8
				C23.5-2.7,23.5-2.8,23.5-2.8"/>
			<path class="st2" d="M15.8-2.8c0,0.1,0,0.1,0,0.2c-0.1,0.1-0.1,0.1-0.2,0.1c-0.1,0.1-0.1,0.3-0.1,0.4c-0.2,0.1,0,0.2,0,0.3
				c0,0,0,0.1,0,0.2c0,0.1,0,0.3,0.1,0.4C15.7-1,15.8-0.8,16-0.7c0.2,0.1,0.4,0.6,0.6,0.6c0.2,0,0.4-0.1,0.5-0.1
				c0.2,0,0.4,0,0.6-0.1c0.2-0.1,0.1-0.3,0.3-0.5c0.1-0.1,0.3,0,0.4-0.1c0.2-0.1,0.3-0.3,0.4-0.5c0-0.1,0-0.1,0-0.2
				c0-0.1,0.1-0.2,0.1-0.3c0-0.1-0.1-0.1-0.1-0.2c0-0.1,0-0.2,0-0.3c0-0.2,0-0.4-0.1-0.5c-0.4-0.7-1.2-0.9-2-0.8
				c-0.2,0-0.3,0.1-0.4,0.2c-0.2,0.1-0.1,0.2-0.3,0.2c-0.1,0-0.2,0.1-0.2,0.2C15.8-2.8,15.8-2.9,15.8-2.8
				C15.8-2.7,15.8-2.8,15.8-2.8"/>
			<path class="st2" d="M8.2-2.8c0,0.1,0,0.1,0,0.2C8.1-2.5,8-2.5,8-2.5C7.9-2.4,7.9-2.2,7.9-2.1c-0.2,0.1,0,0.2,0,0.3
				c0,0,0,0.1,0,0.2c0,0.1,0,0.3,0.1,0.4C8-1,8.2-0.8,8.3-0.7C8.5-0.5,8.7-0.1,8.9,0c0.2,0,0.4-0.1,0.5-0.1c0.2,0,0.4,0,0.6-0.1
				c0.2-0.1,0.1-0.3,0.3-0.5c0.1-0.1,0.3,0,0.4-0.1c0.2-0.1,0.3-0.3,0.4-0.5c0-0.1,0-0.1,0-0.2c0-0.1,0.1-0.2,0.1-0.3
				c0-0.1-0.1-0.1-0.1-0.2c0-0.1,0-0.2,0-0.3c0-0.2,0-0.4-0.1-0.5c-0.4-0.7-1.2-0.9-2-0.8C9-3.5,8.8-3.4,8.7-3.4
				C8.5-3.3,8.6-3.2,8.4-3.1C8.3-3.1,8.2-3,8.2-2.9C8.2-2.8,8.2-2.9,8.2-2.8C8.1-2.7,8.1-2.8,8.2-2.8"/>
			<path class="st2" d="M0.5-2.8c0,0.1,0,0.1,0,0.2C0.4-2.5,0.4-2.5,0.3-2.5C0.3-2.4,0.2-2.2,0.2-2.1c-0.2,0.1,0,0.2,0,0.3
				c0,0,0,0.1,0,0.2c0,0.1,0,0.3,0.1,0.4C0.3-1,0.5-0.8,0.7-0.7C0.9-0.5,1-0.1,1.3,0c0.2,0,0.4-0.1,0.5-0.1c0.2,0,0.4,0,0.6-0.1
				c0.2-0.1,0.1-0.3,0.3-0.5c0.1-0.1,0.3,0,0.4-0.1C3.3-0.8,3.4-1,3.5-1.2c0-0.1,0-0.1,0-0.2c0-0.1,0.1-0.2,0.1-0.3
				c0-0.1-0.1-0.1-0.1-0.2c0-0.1,0-0.2,0-0.3c0-0.2,0-0.4-0.1-0.5c-0.4-0.7-1.2-0.9-2-0.8C1.3-3.5,1.2-3.4,1-3.4
				C0.9-3.3,0.9-3.2,0.7-3.1C0.6-3.1,0.5-3,0.5-2.9C0.5-2.8,0.5-2.9,0.5-2.8C0.5-2.7,0.5-2.8,0.5-2.8"/>
		</g>
	</g>
</pattern>
<line class="st3" x1="238.3" y1="644.7" x2="261.7" y2="616"/>
<line class="st3" x1="315" y1="656.7" x2="339" y2="628.7"/>
<line class="st3" x1="391" y1="688.7" x2="413.7" y2="660"/>
<line class="st3" x1="467.7" y1="701.3" x2="491" y2="670"/>
<path class="st4" d="M255,95.7c0,6.6-5.4,12-12,12H55.7c-6.6,0-12-5.4-12-12V61c0-6.6,5.4-12,12-12H243c6.6,0,12,5.4,12,12V95.7z"/>
<path class="st4" d="M255.5,148.1c0,5.4-5.9,9.7-13.2,9.7H36c-7.3,0-13.2-4.4-13.2-9.7v-28.1c0-5.4,5.9-9.7,13.2-9.7h206.2
	c7.3,0,13.2,4.4,13.2,9.7V148.1z"/>
<path class="st4" d="M489.7,89.7c0,6.3-4.7,11.3-10.5,11.3H314.9c-5.8,0-10.5-5.1-10.5-11.3V57c0-6.3,4.7-11.3,10.5-11.3h164.3
	c5.8,0,10.5,5.1,10.5,11.3V89.7z"/>
<path class="st4" d="M524.3,176.5c0,10.4-5.6,18.9-12.5,18.9H316.2c-6.9,0-12.5-8.5-12.5-18.9v-54.6c0-10.4,5.6-18.9,12.5-18.9
	h195.6c6.9,0,12.5,8.5,12.5,18.9V176.5z"/>
<text transform="matrix(0.91 0 0 1 5.2725 40.1572)" class="st5 st6">:  </text>
<g>
	<line class="st7" x1="53.2" y1="198.7" x2="53.2" y2="579.8"/>
	<text transform="matrix(1 0 0 1 82.2061 276.832)" class="st8 st9">&amp;</text>
	<text transform="matrix(1 0 0 1 82.2061 501.582)" class="st8 st9">?</text>
	<line class="st7" x1="320.3" y1="198.7" x2="320.3" y2="579.8"/>
	<line class="st7" x1="51.8" y1="198.7" x2="321.7" y2="198.7"/>
	<line class="st7" x1="51.8" y1="224.7" x2="321.7" y2="224.7"/>
	<line class="st7" x1="51.8" y1="250.8" x2="321.7" y2="250.8"/>
	<line class="st7" x1="51.8" y1="276.9" x2="321.7" y2="276.9"/>
	<line class="st7" x1="51.8" y1="302.9" x2="321.7" y2="302.9"/>
	<line class="st7" x1="51.8" y1="475.5" x2="321.7" y2="475.5"/>
	<line class="st7" x1="51.8" y1="501.6" x2="321.7" y2="501.6"/>
	<line class="st7" x1="51.8" y1="527.7" x2="321.7" y2="527.7"/>
	<line class="st7" x1="51.8" y1="553.7" x2="321.7" y2="553.7"/>
	<line class="st7" x1="51.8" y1="579.8" x2="321.7" y2="579.8"/>
	<path d="M38.8,198.7c-63.7,104.2,32.4,139-25,191.1h3.3c53.5-39.4-17.3-112.3,21.1-183.3L38.8,198.7z"/>
	<path d="M38.8,579.8c-63.7-104.2,32.4-137.9-25-190h3.3C70.6,429.2-0.2,500.9,38.2,572L38.8,579.8z"/>
	<line class="st7" x1="237.7" y1="233.4" x2="237.7" y2="172.6"/>
	<text transform="matrix(1 0 0 1 206.3652 237.7832)" class="st8 st9"></text>
	<line class="st7" x1="208.3" y1="307.2" x2="208.3" y2="368.1"/>
	<text transform="matrix(1 0 0 1 206.3652 302.9287)" class="st8 st9"></text>
	<line class="st7" x1="237.7" y1="484.2" x2="237.7" y2="423.4"/>
	<text transform="matrix(1 0 0 1 206.3652 488.5527)" class="st8 st9"></text>
	<line class="st7" x1="208.3" y1="545" x2="208.3" y2="605.8"/>
	<text transform="matrix(1 0 0 1 206.3652 540.6689)" class="st8 st9"></text>
</g>
<text transform="matrix(1 0 0 1 65.0718 60.3926)"><tspan x="0" y="0" class="st10 st11"> ,    ,</tspan><tspan x="-2" y="10.8" class="st10 st11">   ,</tspan><tspan x="7.6" y="21.6" class="st10 st11">   , </tspan><tspan x="6.8" y="32.4" class="st12 st11"> ,</tspan><tspan x="89.7" y="32.4" class="st10 st11">  </tspan><tspan x="33.3" y="43.2" class="st10 st11"> .</tspan></text>
<text transform="matrix(1 0 0 1 29.8904 121.4066)"><tspan x="0" y="0" class="st10 st11"> ,      ,</tspan><tspan x="0.3" y="10.8" class="st10 st11">  ,    </tspan><tspan x="5.7" y="21.6" class="st12 st11"></tspan><tspan x="47.3" y="21.6" class="st10 st11">  </tspan><tspan x="76.4" y="21.6" class="st12 st11"> ,</tspan><tspan x="134.3" y="21.6" class="st10 st11">   </tspan><tspan x="14.7" y="32.4" class="st12 st11">&quot;&quot;</tspan><tspan x="83.5" y="32.4" class="st10 st11">   .</tspan></text>
<text transform="matrix(1 0 0 1 325.4927 60.3926)"><tspan x="0" y="0" class="st12 st11"></tspan><tspan x="45.5" y="0" class="st10 st11">  ,  </tspan><tspan x="-6.8" y="10.8" class="st10 st11"> </tspan><tspan x="-13.3" y="21.6" class="st10 st11">&quot;&quot;...   </tspan><tspan x="-15.9" y="32.4" class="st10 st11">,  </tspan><tspan x="22.3" y="32.4" class="st12 st11"> </tspan><tspan x="116.3" y="32.4" class="st10 st11">  .</tspan></text>
<text transform="matrix(1 0 0 1 316.9912 114.7216)"><tspan x="0" y="0" class="st10 st11">    </tspan><tspan x="13.9" y="10.8" class="st10 st11">   </tspan><tspan x="137.7" y="10.8" class="st12 st11"></tspan><tspan x="8" y="21.6" class="st12 st11">  ... </tspan><tspan x="105.7" y="21.6" class="st10 st11"> </tspan><tspan x="12.4" y="32.4" class="st10 st11">  </tspan><tspan x="103" y="32.4" class="st12 st11"></tspan><tspan x="0" y="43.2" class="st10 st11"> , , ,</tspan><tspan x="-11.2" y="54" class="st10 st11"> </tspan><tspan x="16.6" y="54" class="st12 st11">&quot; &quot;.</tspan><tspan x="94.9" y="54" class="st10 st11">  , </tspan><tspan x="186.3" y="54" class="st12 st11"></tspan><tspan x="13" y="64.8" class="st10 st11"> </tspan><tspan x="73.8" y="64.8" class="st12 st11"> </tspan><tspan x="19.7" y="75.6" class="st12 st11"></tspan><tspan x="67.5" y="75.6" class="st10 st11">  </tspan><tspan x="89.8" y="75.6" class="st12 st11"> !</tspan></text>
<text transform="matrix(1 0 0 1 329.3687 211.3796)"><tspan x="0" y="0" class="st10 st11">   </tspan><tspan x="61.2" y="0" class="st12 st11"> ...</tspan><tspan x="0" y="10.8" class="st10 st11">   </tspan><tspan x="0" y="21.6" class="st10 st11"> </tspan><tspan x="67.6" y="21.6" class="st12 st11"></tspan><tspan x="117" y="21.6" class="st10 st11"> </tspan><tspan x="0" y="32.4" class="st12 st11"> .</tspan></text>
<text transform="matrix(1 0 0 1 149.7026 239.0596)" class="st12 st11"></text>
<text transform="matrix(1 0 0 1 227.0361 663.5801)" class="st12 st11"></text>
<text transform="matrix(1 0 0 1 179.0366 295.7275)" class="st12 st11"></text>
<text transform="matrix(1 0 0 1 321.7036 670.0605)" class="st12 st11"></text>
<text transform="matrix(1 0 0 1 165.7031 492.3926)" class="st12 st11"></text>
<text transform="matrix(1 0 0 1 389.0366 652.0596)" class="st12 st11"></text>
<text transform="matrix(1 0 0 1 169.7036 545.0605)" class="st12 st11"></text>
<text transform="matrix(1 0 0 1 470.3701 658.5385)" class="st12 st11"></text>
<g>
	<g>
		<g>
			<path d="M292.3,90.5c-0.1-0.8-0.2-1.5-0.3-2.3c-0.1-0.4-0.1-0.8-0.3-1.4c-0.1-0.6-0.3-1.2-0.5-1.8c-0.2-0.6-0.5-1.3-0.7-1.9
				c-0.3-0.6-0.6-1.2-0.9-1.7c-0.7-1.2-1.4-2.3-2.2-3.3c-0.7-1-1.4-1.9-2-2.8c-0.5-0.8-1-1.7-1.5-2.6c-0.4-1-0.7-2-0.7-2.9h0v0h-1.6
				V101c-0.4-0.3-0.9-0.6-1.4-0.9c-0.9-0.4-1.9-0.6-3-0.6c-1.1,0-2.3,0.2-3.4,0.5c-1.1,0.3-2.1,0.8-3.1,1.4c-1,0.6-1.8,1.3-2.5,2.2
				c-0.7,0.8-1.3,1.7-1.6,2.7c-0.4,1-0.5,1.9-0.4,2.7c0.1,0.8,0.4,1.6,0.9,2.2c0.5,0.6,1.2,1.2,2,1.5c0.8,0.4,1.8,0.6,3,0.6
				c1.1,0,2.2-0.2,3.3-0.5c1.1-0.3,2.2-0.8,3.1-1.4c1-0.6,1.8-1.4,2.6-2.2c0.8-0.8,1.3-1.7,1.7-2.7c0.3-0.9,0.5-1.8,0.4-2.6V79.5h0
				c0.3,0,0.7,0.1,1.1,0.2c0.3,0.1,0.7,0.2,1.1,0.4c0.4,0.2,0.8,0.4,1.2,0.7c0.6,0.4,1.3,1,2.1,2c0.8,1,1.5,2.3,2.1,4
				c0.3,0.9,0.6,1.9,0.7,3c0.1,1.1,0.2,2.1,0.2,2.9c0,1-0.1,2.1-0.2,3.3c-0.2,1.2-0.4,2.2-0.8,3.1l0.4,0.1c0.7-1.9,1.1-4.1,1.2-6.3
				C292.4,92,292.4,91.3,292.3,90.5z"/>
		</g>
	</g>
	<path class="st13" d="M272.1,100.2c0,1.2-1,2.2-2.2,2.2c-1.2,0-2.2-1-2.2-2.2c0-1.2,1-2.2,2.2-2.2C271.1,98,272.1,99,272.1,100.2z"
		/>
	<path class="st13" d="M276.3,99.8c0,1.2-1,2.2-2.2,2.2c-1.2,0-2.2-1-2.2-2.2c0-1.2,1-2.2,2.2-2.2C275.3,97.6,276.3,98.6,276.3,99.8
		z"/>
	<path d="M270.7,100.6c0,0.4-0.3,0.7-0.7,0.7c-0.4,0-0.7-0.3-0.7-0.7c0-0.4,0.3-0.7,0.7-0.7C270.4,99.9,270.7,100.2,270.7,100.6z"/>
	<path d="M275.1,100.4c0,0.4-0.3,0.7-0.7,0.7c-0.4,0-0.7-0.3-0.7-0.7c0-0.4,0.3-0.7,0.7-0.7C274.7,99.7,275.1,100,275.1,100.4z"/>
	<path class="st14" d="M268.8,109.3c1.9-0.1,6.5,0.1,9.4-2.1c3-2.2,0.9,0.4,0.6,0.9c-0.3,0.4-0.7,1.5-1.9,1.3"/>
</g>
<line class="st15" x1="256.3" y1="237" x2="256.3" y2="297.7"/>
<line class="st15" x1="256.3" y1="308.3" x2="256.3" y2="487.7"/>
<line class="st3" x1="257.7" y1="265.7" x2="333.7" y2="280.3"/>
<line class="st3" x1="258.3" y1="401.7" x2="335" y2="293"/>
<path class="st4" d="M327.7,280.3c0,2.9,2.2,5.3,5,5.3h97.2c2.8,0,5-2.4,5-5.3l0,0c0-2.9-2.2-5.3-5-5.3h-97.2
	C329.9,275,327.7,277.4,327.7,280.3L327.7,280.3z"/>
<path class="st4" d="M328.7,291.3c0,3.1,2.7,5.7,5.9,5.7h94.3c3.3,0,5.9-2.5,5.9-5.7l0,0c0-3.1-2.7-5.7-5.9-5.7h-94.3
	C331.3,285.7,328.7,288.2,328.7,291.3L328.7,291.3z"/>
<text transform="matrix(1 0 0 1 329.936 273.0596)"><tspan x="0" y="0" class="st10 st11">-,  </tspan><tspan x="0" y="10.8" class="st12 st11">  </tspan><tspan x="101.4" y="10.8" class="st10 st11">  </tspan><tspan x="0" y="21.6" class="st12 st11">  </tspan><tspan x="101.2" y="21.6" class="st10 st11">  </tspan><tspan x="0" y="32.4" class="st10 st11"> </tspan><tspan x="33.5" y="32.4" class="st12 st11">  .</tspan><tspan x="0" y="54" class="st10 st11">     </tspan><tspan x="0" y="64.8" class="st12 st11">   ,</tspan><tspan x="122.3" y="64.8" class="st10 st11">  </tspan><tspan x="0" y="75.6" class="st12 st11">!</tspan></text>
<text transform="matrix(1 0 0 1 329.936 379.0596)"><tspan x="0" y="0" class="st10 st11">-,  </tspan><tspan x="0" y="10.8" class="st10 st11">  </tspan><tspan x="80.9" y="10.8" class="st12 st11"></tspan><tspan x="0" y="21.6" class="st12 st11">;</tspan><tspan x="49.1" y="21.6" class="st10 st11">  , </tspan><tspan x="119.1" y="21.6" class="st12 st11"></tspan><tspan x="0" y="32.4" class="st10 st11">   </tspan><tspan x="80.9" y="32.4" class="st12 st11">,</tspan><tspan x="110.4" y="32.4" class="st10 st11">  </tspan><tspan x="132.1" y="32.4" class="st12 st11">.</tspan><tspan x="0" y="43.2" class="st10 st11">(     ,</tspan><tspan x="0" y="54" class="st10 st11">    </tspan><tspan x="0" y="64.8" class="st10 st11">  </tspan><tspan x="121.2" y="64.8" class="st12 st11"></tspan><tspan x="0" y="75.6" class="st12 st11"> .</tspan><tspan x="115.2" y="75.6" class="st10 st11">)</tspan></text>
<text transform="matrix(1 0 0 1 329.936 491.7266)"><tspan x="0" y="0" class="st10 st11">-,    </tspan><tspan x="0" y="10.8" class="st12 st11"> </tspan><tspan x="82.3" y="10.8" class="st10 st11">  </tspan><tspan x="0" y="21.6" class="st12 st11"> </tspan><tspan x="50.1" y="21.6" class="st10 st11">  </tspan><tspan x="59.3" y="21.6" class="st12 st11">,</tspan><tspan x="120.9" y="21.6" class="st10 st11"> </tspan><tspan x="0" y="32.4" class="st10 st11">    </tspan><tspan x="0" y="43.2" class="st12 st11">.</tspan><tspan x="76.5" y="43.2" class="st10 st11">   </tspan><tspan x="0" y="54" class="st12 st11"> ,</tspan><tspan x="87.6" y="54" class="st10 st11">  </tspan><tspan x="0" y="64.8" class="st10 st11"> </tspan><tspan x="55.7" y="64.8" class="st12 st11"> </tspan><tspan x="0" y="75.6" class="st10 st11">,   </tspan><tspan x="0" y="86.4" class="st10 st11"> </tspan><tspan x="0" y="97.2" class="st10 st11"> .</tspan></text>
<text transform="matrix(1 0 0 1 13.4409 613.3936)"><tspan x="0" y="0" class="st10 st11">,   </tspan><tspan x="8.7" y="10.8" class="st10 st11">   </tspan><tspan x="101.5" y="10.8" class="st12 st11">.</tspan><tspan x="52.1" y="21.6" class="st10 st11"> </tspan><tspan x="73.4" y="21.6" class="st12 st11"></tspan><tspan x="27.1" y="32.4" class="st10 st11">  </tspan><tspan x="93.4" y="32.4" class="st12 st11"></tspan><tspan x="0.6" y="43.2" class="st12 st11">,</tspan><tspan x="42" y="43.2" class="st10 st11">  ,  </tspan><tspan x="13.8" y="54" class="st10 st11">    </tspan><tspan x="34.4" y="64.8" class="st10 st11"> </tspan><tspan x="55" y="64.8" class="st12 st11">:</tspan><tspan x="11.1" y="75.6" class="st12 st11"> , </tspan><tspan x="121.9" y="75.6" class="st10 st11"></tspan><tspan x="2.5" y="86.4" class="st10 st11"> </tspan><tspan x="57.5" y="86.4" class="st12 st11"></tspan><tspan x="103.1" y="86.4" class="st10 st11">  </tspan><tspan x="112.4" y="86.4" class="st12 st11">!</tspan></text>
<line class="st15" x1="255.7" y1="294" x2="247.7" y2="296"/>
<line class="st15" x1="255.7" y1="484.3" x2="247.7" y2="486.3"/>
<line class="st15" x1="247.7" y1="309.8" x2="255.7" y2="311.8"/>
<line class="st15" x1="247.7" y1="238.5" x2="255.7" y2="240.5"/>
<line class="st16" x1="198.8" y1="621.4" x2="198.8" y2="696.3"/>
<text transform="matrix(1 0 0 1 204.4473 636.7578)" class="st8 st17">&amp;</text>
<text transform="matrix(1 0 0 1 204.4473 680.9609)" class="st8 st17">?</text>
<path class="st16" d="M293.2,621.4v75 M371,621.4v75 M445.5,621.4v75 M523.3,621.4v75 M198.5,621.4h325.2 M198.5,626.5h325.2
	 M198.5,631.6h325.2 M198.5,636.8h325.2 M198.5,641.9h325.2 M198.5,675.8h325.2 M198.5,681h325.2 M198.5,686.1h325.2 M198.5,691.2
	h325.2 M198.5,696.3h325.2"/>
<path d="M195.9,621.4c-12.5,20.5,6.4,27.3-4.9,37.6h0.6c10.5-7.8-3.4-22.1,4.1-36L195.9,621.4z"/>
<path d="M195.9,696.3c-12.5-20.5,6.4-27.1-4.9-37.4h0.6c10.5,7.8-3.4,21.9,4.1,35.8L195.9,696.3z"/>
<text transform="matrix(1 0 0 1 235.8145 644.4453)" class="st8 st17"></text>
<line class="st16" x1="257.4" y1="616.3" x2="266.6" y2="616.3"/>
<text transform="matrix(1 0 0 1 258.6895 616.2578)" class="st8 st17"></text>
<path class="st16" d="M310.8,657.3h9.2 M310.8,652.1h9.2 M310.8,647h9.2"/>
<text transform="matrix(1 0 0 1 312.041 657.2578)" class="st8 st17"></text>
<text transform="matrix(1 0 0 1 335.5645 629.0703)" class="st8 st17"></text>
<text transform="matrix(1 0 0 1 388.0645 688.6562)" class="st8 st17"></text>
<path class="st16" d="M409.7,670.7h9.2 M409.7,665.6h9.2 M409.7,660.5h9.2"/>
<text transform="matrix(1 0 0 1 410.9473 660.4531)" class="st8 st17"></text>
<line class="st16" x1="463" y1="701.5" x2="472.2" y2="701.5"/>
<text transform="matrix(1 0 0 1 464.2988 701.4688)" class="st8 st17"></text>
<line class="st16" x1="486.5" y1="670.7" x2="495.7" y2="670.7"/>
<text transform="matrix(1 0 0 1 487.8223 670.7109)" class="st8 st17"></text>
<g>
	<rect x="-0.7" y="712" class="st4" width="540" height="8"/>
	<text transform="matrix(1 0 0 1 24.7441 718.1138)"><tspan x="0" y="0" class="st10 st18">  </tspan><tspan x="45" y="0" class="st12 st18">CREATIVE COMMONS BY-NC</tspan><tspan x="135.3" y="0" class="st10 st18"> -</tspan><tspan x="139.1" y="0" class="st10 st18"> </tspan><tspan x="140.2" y="0" class="st10 st18">  </tspan><tspan x="199.8" y="0" class="st12 st18"> </tspan><tspan x="267" y="0" class="st10 st18"> -      </tspan><tspan x="437.7" y="0" class="st12 st18">TOBYRUSH.COM</tspan></text>
</g>
<g>
	<rect x="-0.7" class="st4" width="540" height="8"/>
	<text transform="matrix(1 0 0 1 149.8979 6.1133)"><tspan x="0" y="0" class="st12 st18">      , </tspan><tspan x="198" y="0" class="st10 st18">TOBY W. RUSH</tspan></text>
</g>
</svg>
