<?xml version="1.0" encoding="utf-8"?>
<!-- Generator: Adobe Illustrator 27.5.0, SVG Export Plug-In . SVG Version: 6.00 Build 0)  -->
<svg version="1.1" id="Layer_1" xmlns="http://www.w3.org/2000/svg" xmlns:xlink="http://www.w3.org/1999/xlink" x="0px" y="0px"
	 viewBox="0 0 540 720" style="enable-background:new 0 0 540 720;" xml:space="preserve">
<style type="text/css">
	.st0{fill:none;}
	.st1{fill:#F7BC60;}
	.st2{fill:#FFFFFF;}
	.st3{fill:#A2DEF9;}
	.st4{fill:#FFFFFF;stroke:#000000;stroke-width:1.5;}
	.st5{font-family:'AJensonPro-Regular';}
	.st6{font-size:10.6271px;}
	.st7{fill:#FFFFFF;stroke:#000000;stroke-width:0.75;}
	.st8{stroke:#FFFFFF;}
	.st9{font-family:'MightMakesRightBB';}
	.st10{font-size:8.5px;}
	.st11{font-family:'MightMakesRightBB-BoldItalic';}
	.st12{font-size:10px;}
	.st13{font-size:9px;}
	.st14{font-family:'Haettenschweiler';}
	.st15{font-size:42px;}
	.st16{font-family:'Maestro';}
	.st17{font-size:29.3994px;}
	.st18{fill:none;stroke:#000000;stroke-width:1.0719;stroke-miterlimit:10;}
	.st19{font-family:'CooperBlackStd';}
	.st20{font-size:72px;}
	.st21{opacity:0.54;fill:#FFFFFF;stroke:#000000;stroke-width:0.9009;}
	.st22{font-family:'BankGothic-Medium';}
	.st23{font-size:12px;}
	.st24{letter-spacing:2;}
	.st25{opacity:0.54;fill:#FFFFFF;stroke:#000000;stroke-width:1.1594;}
	.st26{opacity:0.54;fill:#FFFFFF;stroke:#000000;stroke-width:0.8866;}
	.st27{font-size:20.5px;}
	.st28{fill:none;stroke:#000000;stroke-width:0.7474;stroke-miterlimit:10;}
	.st29{font-size:9.5px;}
	.st30{font-size:7.3164px;}
	.st31{font-size:9.4px;}
	.st32{font-size:7px;}
	
		.st33{clip-path:url(#SVGID_00000167356750224752107540000010723348893363083921_);fill:none;stroke:#000000;stroke-width:0.7474;stroke-miterlimit:10;}
	.st34{font-size:18.7484px;}
	.st35{fill:none;stroke:#000000;stroke-width:0.6835;stroke-miterlimit:10;}
	.st36{fill:#FFFFFF;stroke:#666666;stroke-width:0.5;}
	.st37{fill:#1A1A1A;}
	.st38{font-family:'BadaBoomBB';}
	.st39{font-size:5px;}
</style>
<pattern  x="-36" y="756" width="69" height="69" patternUnits="userSpaceOnUse" id="Polka_Dot_Pattern" viewBox="2.1 -70.9 69 69" style="overflow:visible;">
	<g>
		<rect x="2.1" y="-70.9" class="st0" width="69" height="69"/>
		<rect x="2.1" y="-70.9" class="st1" width="69" height="69"/>
		<g>
			<path class="st2" d="M61.8-71.7c0,0.1,0,0.1,0,0.2c-0.1,0.1-0.1,0.1-0.2,0.1c-0.1,0.1-0.1,0.3-0.1,0.4c-0.2,0.1,0,0.2,0,0.3
				c0,0,0,0.1,0,0.2c0,0.1,0,0.3,0.1,0.4c0.1,0.2,0.3,0.4,0.4,0.5c0.2,0.1,0.4,0.6,0.6,0.6c0.2,0,0.4-0.1,0.5-0.1
				c0.2,0,0.4,0,0.6-0.1c0.2-0.1,0.1-0.3,0.3-0.5c0.1-0.1,0.3,0,0.4-0.1c0.2-0.1,0.3-0.3,0.4-0.5c0-0.1,0-0.1,0-0.2
				c0-0.1,0.1-0.2,0.1-0.3c0-0.1-0.1-0.1-0.1-0.2c0-0.1,0-0.2,0-0.3c0-0.2,0-0.4-0.1-0.5c-0.4-0.7-1.2-0.9-2-0.8
				c-0.2,0-0.3,0.1-0.4,0.2c-0.2,0.1-0.1,0.2-0.3,0.2c-0.1,0-0.2,0.1-0.2,0.2C61.8-71.7,61.8-71.7,61.8-71.7
				C61.8-71.6,61.8-71.6,61.8-71.7"/>
			<path class="st2" d="M54.1-71.7c0,0.1,0,0.1,0,0.2c-0.1,0.1-0.1,0.1-0.2,0.1c-0.1,0.1-0.1,0.3-0.1,0.4c-0.2,0.1,0,0.2,0,0.3
				c0,0,0,0.1,0,0.2c0,0.1,0,0.3,0.1,0.4c0.1,0.2,0.3,0.4,0.4,0.5c0.2,0.1,0.4,0.6,0.6,0.6c0.2,0,0.4-0.1,0.5-0.1
				c0.2,0,0.4,0,0.6-0.1c0.2-0.1,0.1-0.3,0.3-0.5c0.1-0.1,0.3,0,0.4-0.1c0.2-0.1,0.3-0.3,0.4-0.5c0-0.1,0-0.1,0-0.2
				c0-0.1,0.1-0.2,0.1-0.3c0-0.1-0.1-0.1-0.1-0.2c0-0.1,0-0.2,0-0.3c0-0.2,0-0.4-0.1-0.5c-0.4-0.7-1.2-0.9-2-0.8
				c-0.2,0-0.3,0.1-0.4,0.2c-0.2,0.1-0.1,0.2-0.3,0.2c-0.1,0-0.2,0.1-0.2,0.2C54.1-71.7,54.1-71.7,54.1-71.7
				C54.1-71.6,54.1-71.6,54.1-71.7"/>
			<path class="st2" d="M46.4-71.7c0,0.1,0,0.1,0,0.2c-0.1,0.1-0.1,0.1-0.2,0.1c-0.1,0.1-0.1,0.3-0.1,0.4c-0.2,0.1,0,0.2,0,0.3
				c0,0,0,0.1,0,0.2c0,0.1,0,0.3,0.1,0.4c0.1,0.2,0.3,0.4,0.4,0.5c0.2,0.1,0.4,0.6,0.6,0.6c0.2,0,0.4-0.1,0.5-0.1
				c0.2,0,0.4,0,0.6-0.1c0.2-0.1,0.1-0.3,0.3-0.5c0.1-0.1,0.3,0,0.4-0.1c0.2-0.1,0.3-0.3,0.4-0.5c0-0.1,0-0.1,0-0.2
				c0-0.1,0.1-0.2,0.1-0.3c0-0.1-0.1-0.1-0.1-0.2c0-0.1,0-0.2,0-0.3c0-0.2,0-0.4-0.1-0.5c-0.4-0.7-1.2-0.9-2-0.8
				c-0.2,0-0.3,0.1-0.4,0.2c-0.2,0.1-0.1,0.2-0.3,0.2c-0.1,0-0.2,0.1-0.2,0.2C46.4-71.7,46.4-71.7,46.4-71.7
				C46.4-71.6,46.4-71.6,46.4-71.7"/>
			<path class="st2" d="M38.8-71.7c0,0.1,0,0.1,0,0.2c-0.1,0.1-0.1,0.1-0.2,0.1c-0.1,0.1-0.1,0.3-0.1,0.4c-0.2,0.1,0,0.2,0,0.3
				c0,0,0,0.1,0,0.2c0,0.1,0,0.3,0.1,0.4c0.1,0.2,0.3,0.4,0.4,0.5c0.2,0.1,0.4,0.6,0.6,0.6c0.2,0,0.4-0.1,0.5-0.1
				c0.2,0,0.4,0,0.6-0.1c0.2-0.1,0.1-0.3,0.3-0.5c0.1-0.1,0.3,0,0.4-0.1c0.2-0.1,0.3-0.3,0.4-0.5c0-0.1,0-0.1,0-0.2
				c0-0.1,0.1-0.2,0.1-0.3c0-0.1-0.1-0.1-0.1-0.2c0-0.1,0-0.2,0-0.3c0-0.2,0-0.4-0.1-0.5c-0.4-0.7-1.2-0.9-2-0.8
				c-0.2,0-0.3,0.1-0.4,0.2c-0.2,0.1-0.1,0.2-0.3,0.2c-0.1,0-0.2,0.1-0.2,0.2C38.8-71.7,38.8-71.7,38.8-71.7
				C38.8-71.6,38.8-71.6,38.8-71.7"/>
			<path class="st2" d="M31.1-71.7c0,0.1,0,0.1,0,0.2c-0.1,0.1-0.1,0.1-0.2,0.1c-0.1,0.1-0.1,0.3-0.1,0.4c-0.2,0.1,0,0.2,0,0.3
				c0,0,0,0.1,0,0.2c0,0.1,0,0.3,0.1,0.4c0.1,0.2,0.3,0.4,0.4,0.5c0.2,0.1,0.4,0.6,0.6,0.6c0.2,0,0.4-0.1,0.5-0.1
				c0.2,0,0.4,0,0.6-0.1c0.2-0.1,0.1-0.3,0.3-0.5c0.1-0.1,0.3,0,0.4-0.1c0.2-0.1,0.3-0.3,0.4-0.5c0-0.1,0-0.1,0-0.2
				c0-0.1,0.1-0.2,0.1-0.3c0-0.1-0.1-0.1-0.1-0.2c0-0.1,0-0.2,0-0.3c0-0.2,0-0.4-0.1-0.5c-0.4-0.7-1.2-0.9-2-0.8
				c-0.2,0-0.3,0.1-0.4,0.2c-0.2,0.1-0.1,0.2-0.3,0.2c-0.1,0-0.2,0.1-0.2,0.2C31.1-71.7,31.1-71.7,31.1-71.7
				C31.1-71.6,31.1-71.6,31.1-71.7"/>
			<path class="st2" d="M23.4-71.7c0,0.1,0,0.1,0,0.2c-0.1,0.1-0.1,0.1-0.2,0.1c-0.1,0.1-0.1,0.3-0.1,0.4c-0.2,0.1,0,0.2,0,0.3
				c0,0,0,0.1,0,0.2c0,0.1,0,0.3,0.1,0.4c0.1,0.2,0.3,0.4,0.4,0.5c0.2,0.1,0.4,0.6,0.6,0.6c0.2,0,0.4-0.1,0.5-0.1
				c0.2,0,0.4,0,0.6-0.1c0.2-0.1,0.1-0.3,0.3-0.5c0.1-0.1,0.3,0,0.4-0.1c0.2-0.1,0.3-0.3,0.4-0.5c0-0.1,0-0.1,0-0.2
				c0-0.1,0.1-0.2,0.1-0.3c0-0.1-0.1-0.1-0.1-0.2c0-0.1,0-0.2,0-0.3c0-0.2,0-0.4-0.1-0.5c-0.4-0.7-1.2-0.9-2-0.8
				c-0.2,0-0.3,0.1-0.4,0.2c-0.2,0.1-0.1,0.2-0.3,0.2c-0.1,0-0.2,0.1-0.2,0.2C23.4-71.7,23.4-71.7,23.4-71.7
				C23.4-71.6,23.4-71.6,23.4-71.7"/>
			<path class="st2" d="M15.8-71.7c0,0.1,0,0.1,0,0.2c-0.1,0.1-0.1,0.1-0.2,0.1c-0.1,0.1-0.1,0.3-0.1,0.4c-0.2,0.1,0,0.2,0,0.3
				c0,0,0,0.1,0,0.2c0,0.1,0,0.3,0.1,0.4c0.1,0.2,0.3,0.4,0.4,0.5c0.2,0.1,0.4,0.6,0.6,0.6c0.2,0,0.4-0.1,0.5-0.1
				c0.2,0,0.4,0,0.6-0.1c0.2-0.1,0.1-0.3,0.3-0.5c0.1-0.1,0.3,0,0.4-0.1c0.2-0.1,0.3-0.3,0.4-0.5c0-0.1,0-0.1,0-0.2
				c0-0.1,0.1-0.2,0.1-0.3c0-0.1-0.1-0.1-0.1-0.2c0-0.1,0-0.2,0-0.3c0-0.2,0-0.4-0.1-0.5c-0.4-0.7-1.2-0.9-2-0.8
				c-0.2,0-0.3,0.1-0.4,0.2c-0.2,0.1-0.1,0.2-0.3,0.2c-0.1,0-0.2,0.1-0.2,0.2C15.8-71.7,15.8-71.7,15.8-71.7
				C15.8-71.6,15.8-71.6,15.8-71.7"/>
			<path class="st2" d="M8.1-71.7c0,0.1,0,0.1,0,0.2C8-71.4,8-71.4,7.9-71.3c-0.1,0.1-0.1,0.3-0.1,0.4c-0.2,0.1,0,0.2,0,0.3
				c0,0,0,0.1,0,0.2c0,0.1,0,0.3,0.1,0.4c0.1,0.2,0.3,0.4,0.4,0.5c0.2,0.1,0.4,0.6,0.6,0.6c0.2,0,0.4-0.1,0.5-0.1
				c0.2,0,0.4,0,0.6-0.1c0.2-0.1,0.1-0.3,0.3-0.5c0.1-0.1,0.3,0,0.4-0.1c0.2-0.1,0.3-0.3,0.4-0.5c0-0.1,0-0.1,0-0.2
				c0-0.1,0.1-0.2,0.1-0.3c0-0.1-0.1-0.1-0.1-0.2c0-0.1,0-0.2,0-0.3c0-0.2,0-0.4-0.1-0.5c-0.4-0.7-1.2-0.9-2-0.8
				c-0.2,0-0.3,0.1-0.4,0.2c-0.2,0.1-0.1,0.2-0.3,0.2c-0.1,0-0.2,0.1-0.2,0.2C8.1-71.7,8.1-71.7,8.1-71.7
				C8.1-71.6,8.1-71.6,8.1-71.7"/>
			<path class="st2" d="M0.4-71.7c0,0.1,0,0.1,0,0.2c-0.1,0.1-0.1,0.1-0.2,0.1c-0.1,0.1-0.1,0.3-0.1,0.4c-0.2,0.1,0,0.2,0,0.3
				c0,0,0,0.1,0,0.2c0,0.1,0,0.3,0.1,0.4c0.1,0.2,0.3,0.4,0.4,0.5C0.8-69.4,1-69,1.2-68.9c0.2,0,0.4-0.1,0.5-0.1
				c0.2,0,0.4,0,0.6-0.1c0.2-0.1,0.1-0.3,0.3-0.5c0.1-0.1,0.3,0,0.4-0.1c0.2-0.1,0.3-0.3,0.4-0.5c0-0.1,0-0.1,0-0.2
				c0-0.1,0.1-0.2,0.1-0.3c0-0.1-0.1-0.1-0.1-0.2c0-0.1,0-0.2,0-0.3c0-0.2,0-0.4-0.1-0.5c-0.4-0.7-1.2-0.9-2-0.8
				c-0.2,0-0.3,0.1-0.4,0.2c-0.2,0.1-0.1,0.2-0.3,0.2c-0.1,0-0.2,0.1-0.2,0.2C0.4-71.7,0.4-71.7,0.4-71.7
				C0.4-71.6,0.4-71.6,0.4-71.7"/>
		</g>
		<g>
			<path class="st2" d="M69.4-71.7c0,0.1,0,0.1,0,0.2c-0.1,0.1-0.1,0.1-0.2,0.1c-0.1,0.1-0.1,0.3-0.1,0.4c-0.2,0.1,0,0.2,0,0.3
				c0,0,0,0.1,0,0.2c0,0.1,0,0.3,0.1,0.4c0.1,0.2,0.3,0.4,0.4,0.5c0.2,0.1,0.4,0.6,0.6,0.6c0.2,0,0.4-0.1,0.5-0.1
				c0.2,0,0.4,0,0.6-0.1c0.2-0.1,0.1-0.3,0.3-0.5c0.1-0.1,0.3,0,0.4-0.1c0.2-0.1,0.3-0.3,0.4-0.5c0-0.1,0-0.1,0-0.2
				c0-0.1,0.1-0.2,0.1-0.3c0-0.1-0.1-0.1-0.1-0.2c0-0.1,0-0.2,0-0.3c0-0.2,0-0.4-0.1-0.5c-0.4-0.7-1.2-0.9-2-0.8
				c-0.2,0-0.3,0.1-0.4,0.2c-0.2,0.1-0.1,0.2-0.3,0.2c-0.1,0-0.2,0.1-0.2,0.2C69.4-71.7,69.4-71.7,69.4-71.7
				C69.4-71.6,69.4-71.6,69.4-71.7"/>
		</g>
		<path class="st2" d="M0.5-71.7c0,0.1,0,0.1,0,0.2c-0.1,0.1-0.1,0.1-0.2,0.1c-0.1,0.1-0.1,0.3-0.1,0.4c-0.2,0.1,0,0.2,0,0.3
			c0,0,0,0.1,0,0.2c0,0.1,0,0.3,0.1,0.4c0.1,0.2,0.3,0.4,0.4,0.5C0.9-69.4,1-69,1.3-68.9c0.2,0,0.4-0.1,0.5-0.1c0.2,0,0.4,0,0.6-0.1
			c0.2-0.1,0.1-0.3,0.3-0.5c0.1-0.1,0.3,0,0.4-0.1c0.2-0.1,0.3-0.3,0.4-0.5c0-0.1,0-0.1,0-0.2c0-0.1,0.1-0.2,0.1-0.3
			c0-0.1-0.1-0.1-0.1-0.2c0-0.1,0-0.2,0-0.3c0-0.2,0-0.4-0.1-0.5c-0.4-0.7-1.2-0.9-2-0.8c-0.2,0-0.3,0.1-0.4,0.2
			c-0.2,0.1-0.1,0.2-0.3,0.2c-0.1,0-0.2,0.1-0.2,0.2C0.5-71.7,0.5-71.7,0.5-71.7C0.5-71.6,0.5-71.6,0.5-71.7"/>
		<g>
			<g>
				<path class="st2" d="M69.4-64c0,0.1,0,0.1,0,0.2c-0.1,0.1-0.1,0.1-0.2,0.1c-0.1,0.1-0.1,0.3-0.1,0.4c-0.2,0.1,0,0.2,0,0.3
					c0,0,0,0.1,0,0.2c0,0.1,0,0.3,0.1,0.4c0.1,0.2,0.3,0.4,0.4,0.5c0.2,0.1,0.4,0.6,0.6,0.6c0.2,0,0.4-0.1,0.5-0.1
					c0.2,0,0.4,0,0.6-0.1c0.2-0.1,0.1-0.3,0.3-0.5c0.1-0.1,0.3,0,0.4-0.1c0.2-0.1,0.3-0.3,0.4-0.5c0-0.1,0-0.1,0-0.2
					c0-0.1,0.1-0.2,0.1-0.3c0-0.1-0.1-0.1-0.1-0.2c0-0.1,0-0.2,0-0.3c0-0.2,0-0.4-0.1-0.5c-0.4-0.7-1.2-0.9-2-0.8
					c-0.2,0-0.3,0.1-0.4,0.2c-0.2,0.1-0.1,0.2-0.3,0.2c-0.1,0-0.2,0.1-0.2,0.2C69.4-64,69.4-64.1,69.4-64C69.4-64,69.4-64,69.4-64"
					/>
				<path class="st2" d="M61.8-64c0,0.1,0,0.1,0,0.2c-0.1,0.1-0.1,0.1-0.2,0.1c-0.1,0.1-0.1,0.3-0.1,0.4c-0.2,0.1,0,0.2,0,0.3
					c0,0,0,0.1,0,0.2c0,0.1,0,0.3,0.1,0.4c0.1,0.2,0.3,0.4,0.4,0.5c0.2,0.1,0.4,0.6,0.6,0.6c0.2,0,0.4-0.1,0.5-0.1
					c0.2,0,0.4,0,0.6-0.1c0.2-0.1,0.1-0.3,0.3-0.5c0.1-0.1,0.3,0,0.4-0.1c0.2-0.1,0.3-0.3,0.4-0.5c0-0.1,0-0.1,0-0.2
					c0-0.1,0.1-0.2,0.1-0.3c0-0.1-0.1-0.1-0.1-0.2c0-0.1,0-0.2,0-0.3c0-0.2,0-0.4-0.1-0.5c-0.4-0.7-1.2-0.9-2-0.8
					c-0.2,0-0.3,0.1-0.4,0.2c-0.2,0.1-0.1,0.2-0.3,0.2c-0.1,0-0.2,0.1-0.2,0.2C61.8-64,61.8-64.1,61.8-64C61.8-64,61.8-64,61.8-64"
					/>
				<path class="st2" d="M54.1-64c0,0.1,0,0.1,0,0.2c-0.1,0.1-0.1,0.1-0.2,0.1c-0.1,0.1-0.1,0.3-0.1,0.4c-0.2,0.1,0,0.2,0,0.3
					c0,0,0,0.1,0,0.2c0,0.1,0,0.3,0.1,0.4c0.1,0.2,0.3,0.4,0.4,0.5c0.2,0.1,0.4,0.6,0.6,0.6c0.2,0,0.4-0.1,0.5-0.1
					c0.2,0,0.4,0,0.6-0.1c0.2-0.1,0.1-0.3,0.3-0.5c0.1-0.1,0.3,0,0.4-0.1c0.2-0.1,0.3-0.3,0.4-0.5c0-0.1,0-0.1,0-0.2
					c0-0.1,0.1-0.2,0.1-0.3c0-0.1-0.1-0.1-0.1-0.2c0-0.1,0-0.2,0-0.3c0-0.2,0-0.4-0.1-0.5c-0.4-0.7-1.2-0.9-2-0.8
					c-0.2,0-0.3,0.1-0.4,0.2c-0.2,0.1-0.1,0.2-0.3,0.2c-0.1,0-0.2,0.1-0.2,0.2C54.1-64,54.1-64.1,54.1-64C54.1-64,54.1-64,54.1-64"
					/>
				<path class="st2" d="M46.5-64c0,0.1,0,0.1,0,0.2c-0.1,0.1-0.1,0.1-0.2,0.1c-0.1,0.1-0.1,0.3-0.1,0.4c-0.2,0.1,0,0.2,0,0.3
					c0,0,0,0.1,0,0.2c0,0.1,0,0.3,0.1,0.4c0.1,0.2,0.3,0.4,0.4,0.5c0.2,0.1,0.4,0.6,0.6,0.6c0.2,0,0.4-0.1,0.5-0.1
					c0.2,0,0.4,0,0.6-0.1c0.2-0.1,0.1-0.3,0.3-0.5c0.1-0.1,0.3,0,0.4-0.1c0.2-0.1,0.3-0.3,0.4-0.5c0-0.1,0-0.1,0-0.2
					c0-0.1,0.1-0.2,0.1-0.3c0-0.1-0.1-0.1-0.1-0.2c0-0.1,0-0.2,0-0.3c0-0.2,0-0.4-0.1-0.5c-0.4-0.7-1.2-0.9-2-0.8
					c-0.2,0-0.3,0.1-0.4,0.2c-0.2,0.1-0.1,0.2-0.3,0.2c-0.1,0-0.2,0.1-0.2,0.2C46.5-64,46.5-64.1,46.5-64C46.5-64,46.5-64,46.5-64"
					/>
				<path class="st2" d="M38.8-64c0,0.1,0,0.1,0,0.2c-0.1,0.1-0.1,0.1-0.2,0.1c-0.1,0.1-0.1,0.3-0.1,0.4c-0.2,0.1,0,0.2,0,0.3
					c0,0,0,0.1,0,0.2c0,0.1,0,0.3,0.1,0.4c0.1,0.2,0.3,0.4,0.4,0.5c0.2,0.1,0.4,0.6,0.6,0.6c0.2,0,0.4-0.1,0.5-0.1
					c0.2,0,0.4,0,0.6-0.1c0.2-0.1,0.1-0.3,0.3-0.5c0.1-0.1,0.3,0,0.4-0.1c0.2-0.1,0.3-0.3,0.4-0.5c0-0.1,0-0.1,0-0.2
					c0-0.1,0.1-0.2,0.1-0.3c0-0.1-0.1-0.1-0.1-0.2c0-0.1,0-0.2,0-0.3c0-0.2,0-0.4-0.1-0.5c-0.4-0.7-1.2-0.9-2-0.8
					c-0.2,0-0.3,0.1-0.4,0.2c-0.2,0.1-0.1,0.2-0.3,0.2c-0.1,0-0.2,0.1-0.2,0.2C38.8-64,38.8-64.1,38.8-64C38.8-64,38.8-64,38.8-64"
					/>
				<path class="st2" d="M31.1-64c0,0.1,0,0.1,0,0.2c-0.1,0.1-0.1,0.1-0.2,0.1c-0.1,0.1-0.1,0.3-0.1,0.4c-0.2,0.1,0,0.2,0,0.3
					c0,0,0,0.1,0,0.2c0,0.1,0,0.3,0.1,0.4c0.1,0.2,0.3,0.4,0.4,0.5c0.2,0.1,0.4,0.6,0.6,0.6c0.2,0,0.4-0.1,0.5-0.1
					c0.2,0,0.4,0,0.6-0.1c0.2-0.1,0.1-0.3,0.3-0.5c0.1-0.1,0.3,0,0.4-0.1c0.2-0.1,0.3-0.3,0.4-0.5c0-0.1,0-0.1,0-0.2
					c0-0.1,0.1-0.2,0.1-0.3c0-0.1-0.1-0.1-0.1-0.2c0-0.1,0-0.2,0-0.3c0-0.2,0-0.4-0.1-0.5c-0.4-0.7-1.2-0.9-2-0.8
					c-0.2,0-0.3,0.1-0.4,0.2c-0.2,0.1-0.1,0.2-0.3,0.2c-0.1,0-0.2,0.1-0.2,0.2C31.1-64,31.1-64.1,31.1-64C31.1-64,31.1-64,31.1-64"
					/>
				<path class="st2" d="M23.5-64c0,0.1,0,0.1,0,0.2c-0.1,0.1-0.1,0.1-0.2,0.1c-0.1,0.1-0.1,0.3-0.1,0.4c-0.2,0.1,0,0.2,0,0.3
					c0,0,0,0.1,0,0.2c0,0.1,0,0.3,0.1,0.4c0.1,0.2,0.3,0.4,0.4,0.5c0.2,0.1,0.4,0.6,0.6,0.6c0.2,0,0.4-0.1,0.5-0.1
					c0.2,0,0.4,0,0.6-0.1c0.2-0.1,0.1-0.3,0.3-0.5c0.1-0.1,0.3,0,0.4-0.1c0.2-0.1,0.3-0.3,0.4-0.5c0-0.1,0-0.1,0-0.2
					c0-0.1,0.1-0.2,0.1-0.3c0-0.1-0.1-0.1-0.1-0.2c0-0.1,0-0.2,0-0.3c0-0.2,0-0.4-0.1-0.5c-0.4-0.7-1.2-0.9-2-0.8
					c-0.2,0-0.3,0.1-0.4,0.2c-0.2,0.1-0.1,0.2-0.3,0.2c-0.1,0-0.2,0.1-0.2,0.2C23.5-64,23.5-64.1,23.5-64C23.5-64,23.5-64,23.5-64"
					/>
				<path class="st2" d="M15.8-64c0,0.1,0,0.1,0,0.2c-0.1,0.1-0.1,0.1-0.2,0.1c-0.1,0.1-0.1,0.3-0.1,0.4c-0.2,0.1,0,0.2,0,0.3
					c0,0,0,0.1,0,0.2c0,0.1,0,0.3,0.1,0.4c0.1,0.2,0.3,0.4,0.4,0.5c0.2,0.1,0.4,0.6,0.6,0.6c0.2,0,0.4-0.1,0.5-0.1
					c0.2,0,0.4,0,0.6-0.1c0.2-0.1,0.1-0.3,0.3-0.5c0.1-0.1,0.3,0,0.4-0.1c0.2-0.1,0.3-0.3,0.4-0.5c0-0.1,0-0.1,0-0.2
					c0-0.1,0.1-0.2,0.1-0.3c0-0.1-0.1-0.1-0.1-0.2c0-0.1,0-0.2,0-0.3c0-0.2,0-0.4-0.1-0.5c-0.4-0.7-1.2-0.9-2-0.8
					c-0.2,0-0.3,0.1-0.4,0.2c-0.2,0.1-0.1,0.2-0.3,0.2c-0.1,0-0.2,0.1-0.2,0.2C15.8-64,15.8-64.1,15.8-64C15.8-64,15.8-64,15.8-64"
					/>
				<path class="st2" d="M8.2-64c0,0.1,0,0.1,0,0.2C8.1-63.7,8-63.7,8-63.7c-0.1,0.1-0.1,0.3-0.1,0.4c-0.2,0.1,0,0.2,0,0.3
					c0,0,0,0.1,0,0.2c0,0.1,0,0.3,0.1,0.4C8-62.2,8.2-62,8.3-61.9c0.2,0.1,0.4,0.6,0.6,0.6c0.2,0,0.4-0.1,0.5-0.1
					c0.2,0,0.4,0,0.6-0.1c0.2-0.1,0.1-0.3,0.3-0.5c0.1-0.1,0.3,0,0.4-0.1c0.2-0.1,0.3-0.3,0.4-0.5c0-0.1,0-0.1,0-0.2
					c0-0.1,0.1-0.2,0.1-0.3c0-0.1-0.1-0.1-0.1-0.2c0-0.1,0-0.2,0-0.3c0-0.2,0-0.4-0.1-0.5c-0.4-0.7-1.2-0.9-2-0.8
					c-0.2,0-0.3,0.1-0.4,0.2c-0.2,0.1-0.1,0.2-0.3,0.2c-0.1,0-0.2,0.1-0.2,0.2C8.2-64,8.2-64.1,8.2-64C8.1-64,8.1-64,8.2-64"/>
				<path class="st2" d="M0.5-64c0,0.1,0,0.1,0,0.2c-0.1,0.1-0.1,0.1-0.2,0.1c-0.1,0.1-0.1,0.3-0.1,0.4c-0.2,0.1,0,0.2,0,0.3
					c0,0,0,0.1,0,0.2c0,0.1,0,0.3,0.1,0.4c0.1,0.2,0.3,0.4,0.4,0.5c0.2,0.1,0.4,0.6,0.6,0.6c0.2,0,0.4-0.1,0.5-0.1
					c0.2,0,0.4,0,0.6-0.1c0.2-0.1,0.1-0.3,0.3-0.5C2.8-62,3-61.9,3.1-62c0.2-0.1,0.3-0.3,0.4-0.5c0-0.1,0-0.1,0-0.2
					c0-0.1,0.1-0.2,0.1-0.3c0-0.1-0.1-0.1-0.1-0.2c0-0.1,0-0.2,0-0.3c0-0.2,0-0.4-0.1-0.5c-0.4-0.7-1.2-0.9-2-0.8
					c-0.2,0-0.3,0.1-0.4,0.2c-0.2,0.1-0.1,0.2-0.3,0.2c-0.1,0-0.2,0.1-0.2,0.2C0.5-64,0.5-64.1,0.5-64C0.5-64,0.5-64,0.5-64"/>
			</g>
			<g>
				<path class="st2" d="M69.4-56.3c0,0.1,0,0.1,0,0.2c-0.1,0.1-0.1,0.1-0.2,0.1c-0.1,0.1-0.1,0.3-0.1,0.4c-0.2,0.1,0,0.2,0,0.3
					c0,0,0,0.1,0,0.2c0,0.1,0,0.3,0.1,0.4c0.1,0.2,0.3,0.4,0.4,0.5c0.2,0.1,0.4,0.6,0.6,0.6c0.2,0,0.4-0.1,0.5-0.1
					c0.2,0,0.4,0,0.6-0.1c0.2-0.1,0.1-0.3,0.3-0.5c0.1-0.1,0.3,0,0.4-0.1c0.2-0.1,0.3-0.3,0.4-0.5c0-0.1,0-0.1,0-0.2
					c0-0.1,0.1-0.2,0.1-0.3c0-0.1-0.1-0.1-0.1-0.2c0-0.1,0-0.2,0-0.3c0-0.2,0-0.4-0.1-0.5c-0.4-0.7-1.2-0.9-2-0.8
					c-0.2,0-0.3,0.1-0.4,0.2c-0.2,0.1-0.1,0.2-0.3,0.2c-0.1,0-0.2,0.1-0.2,0.2C69.4-56.4,69.4-56.4,69.4-56.3
					C69.4-56.3,69.4-56.3,69.4-56.3"/>
				<path class="st2" d="M61.8-56.3c0,0.1,0,0.1,0,0.2c-0.1,0.1-0.1,0.1-0.2,0.1c-0.1,0.1-0.1,0.3-0.1,0.4c-0.2,0.1,0,0.2,0,0.3
					c0,0,0,0.1,0,0.2c0,0.1,0,0.3,0.1,0.4c0.1,0.2,0.3,0.4,0.4,0.5c0.2,0.1,0.4,0.6,0.6,0.6c0.2,0,0.4-0.1,0.5-0.1
					c0.2,0,0.4,0,0.6-0.1c0.2-0.1,0.1-0.3,0.3-0.5c0.1-0.1,0.3,0,0.4-0.1c0.2-0.1,0.3-0.3,0.4-0.5c0-0.1,0-0.1,0-0.2
					c0-0.1,0.1-0.2,0.1-0.3c0-0.1-0.1-0.1-0.1-0.2c0-0.1,0-0.2,0-0.3c0-0.2,0-0.4-0.1-0.5c-0.4-0.7-1.2-0.9-2-0.8
					c-0.2,0-0.3,0.1-0.4,0.2c-0.2,0.1-0.1,0.2-0.3,0.2c-0.1,0-0.2,0.1-0.2,0.2C61.8-56.4,61.8-56.4,61.8-56.3
					C61.8-56.3,61.8-56.3,61.8-56.3"/>
				<path class="st2" d="M54.1-56.3c0,0.1,0,0.1,0,0.2C54-56.1,54-56.1,53.9-56c-0.1,0.1-0.1,0.3-0.1,0.4c-0.2,0.1,0,0.2,0,0.3
					c0,0,0,0.1,0,0.2c0,0.1,0,0.3,0.1,0.4c0.1,0.2,0.3,0.4,0.4,0.5c0.2,0.1,0.4,0.6,0.6,0.6c0.2,0,0.4-0.1,0.5-0.1
					c0.2,0,0.4,0,0.6-0.1c0.2-0.1,0.1-0.3,0.3-0.5c0.1-0.1,0.3,0,0.4-0.1c0.2-0.1,0.3-0.3,0.4-0.5c0-0.1,0-0.1,0-0.2
					c0-0.1,0.1-0.2,0.1-0.3c0-0.1-0.1-0.1-0.1-0.2c0-0.1,0-0.2,0-0.3c0-0.2,0-0.4-0.1-0.5c-0.4-0.7-1.2-0.9-2-0.8
					c-0.2,0-0.3,0.1-0.4,0.2c-0.2,0.1-0.1,0.2-0.3,0.2c-0.1,0-0.2,0.1-0.2,0.2C54.1-56.4,54.1-56.4,54.1-56.3
					C54.1-56.3,54.1-56.3,54.1-56.3"/>
				<path class="st2" d="M46.5-56.3c0,0.1,0,0.1,0,0.2c-0.1,0.1-0.1,0.1-0.2,0.1c-0.1,0.1-0.1,0.3-0.1,0.4c-0.2,0.1,0,0.2,0,0.3
					c0,0,0,0.1,0,0.2c0,0.1,0,0.3,0.1,0.4c0.1,0.2,0.3,0.4,0.4,0.5c0.2,0.1,0.4,0.6,0.6,0.6c0.2,0,0.4-0.1,0.5-0.1
					c0.2,0,0.4,0,0.6-0.1c0.2-0.1,0.1-0.3,0.3-0.5c0.1-0.1,0.3,0,0.4-0.1c0.2-0.1,0.3-0.3,0.4-0.5c0-0.1,0-0.1,0-0.2
					c0-0.1,0.1-0.2,0.1-0.3c0-0.1-0.1-0.1-0.1-0.2c0-0.1,0-0.2,0-0.3c0-0.2,0-0.4-0.1-0.5c-0.4-0.7-1.2-0.9-2-0.8
					c-0.2,0-0.3,0.1-0.4,0.2c-0.2,0.1-0.1,0.2-0.3,0.2c-0.1,0-0.2,0.1-0.2,0.2C46.5-56.4,46.5-56.4,46.5-56.3
					C46.5-56.3,46.5-56.3,46.5-56.3"/>
				<path class="st2" d="M38.8-56.3c0,0.1,0,0.1,0,0.2c-0.1,0.1-0.1,0.1-0.2,0.1c-0.1,0.1-0.1,0.3-0.1,0.4c-0.2,0.1,0,0.2,0,0.3
					c0,0,0,0.1,0,0.2c0,0.1,0,0.3,0.1,0.4c0.1,0.2,0.3,0.4,0.4,0.5c0.2,0.1,0.4,0.6,0.6,0.6c0.2,0,0.4-0.1,0.5-0.1
					c0.2,0,0.4,0,0.6-0.1c0.2-0.1,0.1-0.3,0.3-0.5c0.1-0.1,0.3,0,0.4-0.1c0.2-0.1,0.3-0.3,0.4-0.5c0-0.1,0-0.1,0-0.2
					c0-0.1,0.1-0.2,0.1-0.3c0-0.1-0.1-0.1-0.1-0.2c0-0.1,0-0.2,0-0.3c0-0.2,0-0.4-0.1-0.5c-0.4-0.7-1.2-0.9-2-0.8
					c-0.2,0-0.3,0.1-0.4,0.2c-0.2,0.1-0.1,0.2-0.3,0.2c-0.1,0-0.2,0.1-0.2,0.2C38.8-56.4,38.8-56.4,38.8-56.3
					C38.8-56.3,38.8-56.3,38.8-56.3"/>
				<path class="st2" d="M31.1-56.3c0,0.1,0,0.1,0,0.2c-0.1,0.1-0.1,0.1-0.2,0.1c-0.1,0.1-0.1,0.3-0.1,0.4c-0.2,0.1,0,0.2,0,0.3
					c0,0,0,0.1,0,0.2c0,0.1,0,0.3,0.1,0.4c0.1,0.2,0.3,0.4,0.4,0.5c0.2,0.1,0.4,0.6,0.6,0.6c0.2,0,0.4-0.1,0.5-0.1
					c0.2,0,0.4,0,0.6-0.1c0.2-0.1,0.1-0.3,0.3-0.5c0.1-0.1,0.3,0,0.4-0.1c0.2-0.1,0.3-0.3,0.4-0.5c0-0.1,0-0.1,0-0.2
					c0-0.1,0.1-0.2,0.1-0.3c0-0.1-0.1-0.1-0.1-0.2c0-0.1,0-0.2,0-0.3c0-0.2,0-0.4-0.1-0.5c-0.4-0.7-1.2-0.9-2-0.8
					c-0.2,0-0.3,0.1-0.4,0.2c-0.2,0.1-0.1,0.2-0.3,0.2c-0.1,0-0.2,0.1-0.2,0.2C31.1-56.4,31.1-56.4,31.1-56.3
					C31.1-56.3,31.1-56.3,31.1-56.3"/>
				<path class="st2" d="M23.5-56.3c0,0.1,0,0.1,0,0.2c-0.1,0.1-0.1,0.1-0.2,0.1c-0.1,0.1-0.1,0.3-0.1,0.4c-0.2,0.1,0,0.2,0,0.3
					c0,0,0,0.1,0,0.2c0,0.1,0,0.3,0.1,0.4c0.1,0.2,0.3,0.4,0.4,0.5c0.2,0.1,0.4,0.6,0.6,0.6c0.2,0,0.4-0.1,0.5-0.1
					c0.2,0,0.4,0,0.6-0.1c0.2-0.1,0.1-0.3,0.3-0.5c0.1-0.1,0.3,0,0.4-0.1c0.2-0.1,0.3-0.3,0.4-0.5c0-0.1,0-0.1,0-0.2
					c0-0.1,0.1-0.2,0.1-0.3c0-0.1-0.1-0.1-0.1-0.2c0-0.1,0-0.2,0-0.3c0-0.2,0-0.4-0.1-0.5c-0.4-0.7-1.2-0.9-2-0.8
					c-0.2,0-0.3,0.1-0.4,0.2c-0.2,0.1-0.1,0.2-0.3,0.2c-0.1,0-0.2,0.1-0.2,0.2C23.5-56.4,23.5-56.4,23.5-56.3
					C23.5-56.3,23.5-56.3,23.5-56.3"/>
				<path class="st2" d="M15.8-56.3c0,0.1,0,0.1,0,0.2c-0.1,0.1-0.1,0.1-0.2,0.1c-0.1,0.1-0.1,0.3-0.1,0.4c-0.2,0.1,0,0.2,0,0.3
					c0,0,0,0.1,0,0.2c0,0.1,0,0.3,0.1,0.4c0.1,0.2,0.3,0.4,0.4,0.5c0.2,0.1,0.4,0.6,0.6,0.6c0.2,0,0.4-0.1,0.5-0.1
					c0.2,0,0.4,0,0.6-0.1c0.2-0.1,0.1-0.3,0.3-0.5c0.1-0.1,0.3,0,0.4-0.1c0.2-0.1,0.3-0.3,0.4-0.5c0-0.1,0-0.1,0-0.2
					c0-0.1,0.1-0.2,0.1-0.3c0-0.1-0.1-0.1-0.1-0.2c0-0.1,0-0.2,0-0.3c0-0.2,0-0.4-0.1-0.5c-0.4-0.7-1.2-0.9-2-0.8
					c-0.2,0-0.3,0.1-0.4,0.2c-0.2,0.1-0.1,0.2-0.3,0.2c-0.1,0-0.2,0.1-0.2,0.2C15.8-56.4,15.8-56.4,15.8-56.3
					C15.8-56.3,15.8-56.3,15.8-56.3"/>
				<path class="st2" d="M8.2-56.3c0,0.1,0,0.1,0,0.2C8.1-56.1,8-56.1,8-56c-0.1,0.1-0.1,0.3-0.1,0.4c-0.2,0.1,0,0.2,0,0.3
					c0,0,0,0.1,0,0.2c0,0.1,0,0.3,0.1,0.4c0.1,0.2,0.3,0.4,0.4,0.5c0.2,0.1,0.4,0.6,0.6,0.6c0.2,0,0.4-0.1,0.5-0.1
					c0.2,0,0.4,0,0.6-0.1c0.2-0.1,0.1-0.3,0.3-0.5c0.1-0.1,0.3,0,0.4-0.1c0.2-0.1,0.3-0.3,0.4-0.5c0-0.1,0-0.1,0-0.2
					c0-0.1,0.1-0.2,0.1-0.3c0-0.1-0.1-0.1-0.1-0.2c0-0.1,0-0.2,0-0.3c0-0.2,0-0.4-0.1-0.5c-0.4-0.7-1.2-0.9-2-0.8
					c-0.2,0-0.3,0.1-0.4,0.2c-0.2,0.1-0.1,0.2-0.3,0.2c-0.1,0-0.2,0.1-0.2,0.2C8.2-56.4,8.2-56.4,8.2-56.3
					C8.1-56.3,8.1-56.3,8.2-56.3"/>
				<path class="st2" d="M0.5-56.3c0,0.1,0,0.1,0,0.2c-0.1,0.1-0.1,0.1-0.2,0.1c-0.1,0.1-0.1,0.3-0.1,0.4c-0.2,0.1,0,0.2,0,0.3
					c0,0,0,0.1,0,0.2c0,0.1,0,0.3,0.1,0.4c0.1,0.2,0.3,0.4,0.4,0.5c0.2,0.1,0.4,0.6,0.6,0.6c0.2,0,0.4-0.1,0.5-0.1
					c0.2,0,0.4,0,0.6-0.1c0.2-0.1,0.1-0.3,0.3-0.5c0.1-0.1,0.3,0,0.4-0.1c0.2-0.1,0.3-0.3,0.4-0.5c0-0.1,0-0.1,0-0.2
					c0-0.1,0.1-0.2,0.1-0.3c0-0.1-0.1-0.1-0.1-0.2c0-0.1,0-0.2,0-0.3c0-0.2,0-0.4-0.1-0.5c-0.4-0.7-1.2-0.9-2-0.8
					c-0.2,0-0.3,0.1-0.4,0.2c-0.2,0.1-0.1,0.2-0.3,0.2c-0.1,0-0.2,0.1-0.2,0.2C0.5-56.4,0.5-56.4,0.5-56.3
					C0.5-56.3,0.5-56.3,0.5-56.3"/>
			</g>
			<g>
				<path class="st2" d="M69.4-48.7c0,0.1,0,0.1,0,0.2c-0.1,0.1-0.1,0.1-0.2,0.1c-0.1,0.1-0.1,0.3-0.1,0.4c-0.2,0.1,0,0.2,0,0.3
					c0,0,0,0.1,0,0.2c0,0.1,0,0.3,0.1,0.4c0.1,0.2,0.3,0.4,0.4,0.5c0.2,0.1,0.4,0.6,0.6,0.6c0.2,0,0.4-0.1,0.5-0.1
					c0.2,0,0.4,0,0.6-0.1c0.2-0.1,0.1-0.3,0.3-0.5c0.1-0.1,0.3,0,0.4-0.1c0.2-0.1,0.3-0.3,0.4-0.5c0-0.1,0-0.1,0-0.2
					c0-0.1,0.1-0.2,0.1-0.3c0-0.1-0.1-0.1-0.1-0.2c0-0.1,0-0.2,0-0.3c0-0.2,0-0.4-0.1-0.5c-0.4-0.7-1.2-0.9-2-0.8
					c-0.2,0-0.3,0.1-0.4,0.2c-0.2,0.1-0.1,0.2-0.3,0.2c-0.1,0-0.2,0.1-0.2,0.2C69.4-48.7,69.4-48.8,69.4-48.7
					C69.4-48.7,69.4-48.7,69.4-48.7"/>
				<path class="st2" d="M61.8-48.7c0,0.1,0,0.1,0,0.2c-0.1,0.1-0.1,0.1-0.2,0.1c-0.1,0.1-0.1,0.3-0.1,0.4c-0.2,0.1,0,0.2,0,0.3
					c0,0,0,0.1,0,0.2c0,0.1,0,0.3,0.1,0.4c0.1,0.2,0.3,0.4,0.4,0.5c0.2,0.1,0.4,0.6,0.6,0.6c0.2,0,0.4-0.1,0.5-0.1
					c0.2,0,0.4,0,0.6-0.1c0.2-0.1,0.1-0.3,0.3-0.5c0.1-0.1,0.3,0,0.4-0.1c0.2-0.1,0.3-0.3,0.4-0.5c0-0.1,0-0.1,0-0.2
					c0-0.1,0.1-0.2,0.1-0.3c0-0.1-0.1-0.1-0.1-0.2c0-0.1,0-0.2,0-0.3c0-0.2,0-0.4-0.1-0.5c-0.4-0.7-1.2-0.9-2-0.8
					c-0.2,0-0.3,0.1-0.4,0.2c-0.2,0.1-0.1,0.2-0.3,0.2c-0.1,0-0.2,0.1-0.2,0.2C61.8-48.7,61.8-48.8,61.8-48.7
					C61.8-48.7,61.8-48.7,61.8-48.7"/>
				<path class="st2" d="M54.1-48.7c0,0.1,0,0.1,0,0.2c-0.1,0.1-0.1,0.1-0.2,0.1c-0.1,0.1-0.1,0.3-0.1,0.4c-0.2,0.1,0,0.2,0,0.3
					c0,0,0,0.1,0,0.2c0,0.1,0,0.3,0.1,0.4c0.1,0.2,0.3,0.4,0.4,0.5c0.2,0.1,0.4,0.6,0.6,0.6c0.2,0,0.4-0.1,0.5-0.1
					c0.2,0,0.4,0,0.6-0.1c0.2-0.1,0.1-0.3,0.3-0.5c0.1-0.1,0.3,0,0.4-0.1c0.2-0.1,0.3-0.3,0.4-0.5c0-0.1,0-0.1,0-0.2
					c0-0.1,0.1-0.2,0.1-0.3c0-0.1-0.1-0.1-0.1-0.2c0-0.1,0-0.2,0-0.3c0-0.2,0-0.4-0.1-0.5c-0.4-0.7-1.2-0.9-2-0.8
					c-0.2,0-0.3,0.1-0.4,0.2c-0.2,0.1-0.1,0.2-0.3,0.2c-0.1,0-0.2,0.1-0.2,0.2C54.1-48.7,54.1-48.8,54.1-48.7
					C54.1-48.7,54.1-48.7,54.1-48.7"/>
				<path class="st2" d="M46.5-48.7c0,0.1,0,0.1,0,0.2c-0.1,0.1-0.1,0.1-0.2,0.1c-0.1,0.1-0.1,0.3-0.1,0.4c-0.2,0.1,0,0.2,0,0.3
					c0,0,0,0.1,0,0.2c0,0.1,0,0.3,0.1,0.4c0.1,0.2,0.3,0.4,0.4,0.5c0.2,0.1,0.4,0.6,0.6,0.6c0.2,0,0.4-0.1,0.5-0.1
					c0.2,0,0.4,0,0.6-0.1c0.2-0.1,0.1-0.3,0.3-0.5c0.1-0.1,0.3,0,0.4-0.1c0.2-0.1,0.3-0.3,0.4-0.5c0-0.1,0-0.1,0-0.2
					c0-0.1,0.1-0.2,0.1-0.3c0-0.1-0.1-0.1-0.1-0.2c0-0.1,0-0.2,0-0.3c0-0.2,0-0.4-0.1-0.5c-0.4-0.7-1.2-0.9-2-0.8
					c-0.2,0-0.3,0.1-0.4,0.2c-0.2,0.1-0.1,0.2-0.3,0.2c-0.1,0-0.2,0.1-0.2,0.2C46.5-48.7,46.5-48.8,46.5-48.7
					C46.5-48.7,46.5-48.7,46.5-48.7"/>
				<path class="st2" d="M38.8-48.7c0,0.1,0,0.1,0,0.2c-0.1,0.1-0.1,0.1-0.2,0.1c-0.1,0.1-0.1,0.3-0.1,0.4c-0.2,0.1,0,0.2,0,0.3
					c0,0,0,0.1,0,0.2c0,0.1,0,0.3,0.1,0.4c0.1,0.2,0.3,0.4,0.4,0.5c0.2,0.1,0.4,0.6,0.6,0.6c0.2,0,0.4-0.1,0.5-0.1
					c0.2,0,0.4,0,0.6-0.1c0.2-0.1,0.1-0.3,0.3-0.5c0.1-0.1,0.3,0,0.4-0.1c0.2-0.1,0.3-0.3,0.4-0.5c0-0.1,0-0.1,0-0.2
					c0-0.1,0.1-0.2,0.1-0.3c0-0.1-0.1-0.1-0.1-0.2c0-0.1,0-0.2,0-0.3c0-0.2,0-0.4-0.1-0.5c-0.4-0.7-1.2-0.9-2-0.8
					c-0.2,0-0.3,0.1-0.4,0.2c-0.2,0.1-0.1,0.2-0.3,0.2c-0.1,0-0.2,0.1-0.2,0.2C38.8-48.7,38.8-48.8,38.8-48.7
					C38.8-48.7,38.8-48.7,38.8-48.7"/>
				<path class="st2" d="M31.1-48.7c0,0.1,0,0.1,0,0.2c-0.1,0.1-0.1,0.1-0.2,0.1c-0.1,0.1-0.1,0.3-0.1,0.4c-0.2,0.1,0,0.2,0,0.3
					c0,0,0,0.1,0,0.2c0,0.1,0,0.3,0.1,0.4c0.1,0.2,0.3,0.4,0.4,0.5c0.2,0.1,0.4,0.6,0.6,0.6c0.2,0,0.4-0.1,0.5-0.1
					c0.2,0,0.4,0,0.6-0.1c0.2-0.1,0.1-0.3,0.3-0.5c0.1-0.1,0.3,0,0.4-0.1c0.2-0.1,0.3-0.3,0.4-0.5c0-0.1,0-0.1,0-0.2
					c0-0.1,0.1-0.2,0.1-0.3c0-0.1-0.1-0.1-0.1-0.2c0-0.1,0-0.2,0-0.3c0-0.2,0-0.4-0.1-0.5c-0.4-0.7-1.2-0.9-2-0.8
					c-0.2,0-0.3,0.1-0.4,0.2c-0.2,0.1-0.1,0.2-0.3,0.2c-0.1,0-0.2,0.1-0.2,0.2C31.1-48.7,31.1-48.8,31.1-48.7
					C31.1-48.7,31.1-48.7,31.1-48.7"/>
				<path class="st2" d="M23.5-48.7c0,0.1,0,0.1,0,0.2c-0.1,0.1-0.1,0.1-0.2,0.1c-0.1,0.1-0.1,0.3-0.1,0.4c-0.2,0.1,0,0.2,0,0.3
					c0,0,0,0.1,0,0.2c0,0.1,0,0.3,0.1,0.4c0.1,0.2,0.3,0.4,0.4,0.5c0.2,0.1,0.4,0.6,0.6,0.6c0.2,0,0.4-0.1,0.5-0.1
					c0.2,0,0.4,0,0.6-0.1c0.2-0.1,0.1-0.3,0.3-0.5c0.1-0.1,0.3,0,0.4-0.1c0.2-0.1,0.3-0.3,0.4-0.5c0-0.1,0-0.1,0-0.2
					c0-0.1,0.1-0.2,0.1-0.3c0-0.1-0.1-0.1-0.1-0.2c0-0.1,0-0.2,0-0.3c0-0.2,0-0.4-0.1-0.5c-0.4-0.7-1.2-0.9-2-0.8
					c-0.2,0-0.3,0.1-0.4,0.2c-0.2,0.1-0.1,0.2-0.3,0.2c-0.1,0-0.2,0.1-0.2,0.2C23.5-48.7,23.5-48.8,23.5-48.7
					C23.5-48.7,23.5-48.7,23.5-48.7"/>
				<path class="st2" d="M15.8-48.7c0,0.1,0,0.1,0,0.2c-0.1,0.1-0.1,0.1-0.2,0.1c-0.1,0.1-0.1,0.3-0.1,0.4c-0.2,0.1,0,0.2,0,0.3
					c0,0,0,0.1,0,0.2c0,0.1,0,0.3,0.1,0.4c0.1,0.2,0.3,0.4,0.4,0.5c0.2,0.1,0.4,0.6,0.6,0.6c0.2,0,0.4-0.1,0.5-0.1
					c0.2,0,0.4,0,0.6-0.1c0.2-0.1,0.1-0.3,0.3-0.5c0.1-0.1,0.3,0,0.4-0.1c0.2-0.1,0.3-0.3,0.4-0.5c0-0.1,0-0.1,0-0.2
					c0-0.1,0.1-0.2,0.1-0.3c0-0.1-0.1-0.1-0.1-0.2c0-0.1,0-0.2,0-0.3c0-0.2,0-0.4-0.1-0.5c-0.4-0.7-1.2-0.9-2-0.8
					c-0.2,0-0.3,0.1-0.4,0.2c-0.2,0.1-0.1,0.2-0.3,0.2c-0.1,0-0.2,0.1-0.2,0.2C15.8-48.7,15.8-48.8,15.8-48.7
					C15.8-48.7,15.8-48.7,15.8-48.7"/>
				<path class="st2" d="M8.2-48.7c0,0.1,0,0.1,0,0.2C8.1-48.4,8-48.4,8-48.4c-0.1,0.1-0.1,0.3-0.1,0.4c-0.2,0.1,0,0.2,0,0.3
					c0,0,0,0.1,0,0.2c0,0.1,0,0.3,0.1,0.4c0.1,0.2,0.3,0.4,0.4,0.5C8.5-46.4,8.7-46,8.9-46c0.2,0,0.4-0.1,0.5-0.1
					c0.2,0,0.4,0,0.6-0.1c0.2-0.1,0.1-0.3,0.3-0.5c0.1-0.1,0.3,0,0.4-0.1c0.2-0.1,0.3-0.3,0.4-0.5c0-0.1,0-0.1,0-0.2
					c0-0.1,0.1-0.2,0.1-0.3c0-0.1-0.1-0.1-0.1-0.2c0-0.1,0-0.2,0-0.3c0-0.2,0-0.4-0.1-0.5c-0.4-0.7-1.2-0.9-2-0.8
					c-0.2,0-0.3,0.1-0.4,0.2c-0.2,0.1-0.1,0.2-0.3,0.2c-0.1,0-0.2,0.1-0.2,0.2C8.2-48.7,8.2-48.8,8.2-48.7
					C8.1-48.7,8.1-48.7,8.2-48.7"/>
				<path class="st2" d="M0.5-48.7c0,0.1,0,0.1,0,0.2c-0.1,0.1-0.1,0.1-0.2,0.1c-0.1,0.1-0.1,0.3-0.1,0.4c-0.2,0.1,0,0.2,0,0.3
					c0,0,0,0.1,0,0.2c0,0.1,0,0.3,0.1,0.4c0.1,0.2,0.3,0.4,0.4,0.5C0.9-46.4,1-46,1.3-46c0.2,0,0.4-0.1,0.5-0.1c0.2,0,0.4,0,0.6-0.1
					c0.2-0.1,0.1-0.3,0.3-0.5c0.1-0.1,0.3,0,0.4-0.1c0.2-0.1,0.3-0.3,0.4-0.5c0-0.1,0-0.1,0-0.2c0-0.1,0.1-0.2,0.1-0.3
					c0-0.1-0.1-0.1-0.1-0.2c0-0.1,0-0.2,0-0.3c0-0.2,0-0.4-0.1-0.5c-0.4-0.7-1.2-0.9-2-0.8c-0.2,0-0.3,0.1-0.4,0.2
					c-0.2,0.1-0.1,0.2-0.3,0.2c-0.1,0-0.2,0.1-0.2,0.2C0.5-48.7,0.5-48.8,0.5-48.7C0.5-48.7,0.5-48.7,0.5-48.7"/>
			</g>
			<g>
				<path class="st2" d="M69.4-41c0,0.1,0,0.1,0,0.2c-0.1,0.1-0.1,0.1-0.2,0.1c-0.1,0.1-0.1,0.3-0.1,0.4c-0.2,0.1,0,0.2,0,0.3
					c0,0,0,0.1,0,0.2c0,0.1,0,0.3,0.1,0.4c0.1,0.2,0.3,0.4,0.4,0.5c0.2,0.1,0.4,0.6,0.6,0.6c0.2,0,0.4-0.1,0.5-0.1
					c0.2,0,0.4,0,0.6-0.1c0.2-0.1,0.1-0.3,0.3-0.5c0.1-0.1,0.3,0,0.4-0.1c0.2-0.1,0.3-0.3,0.4-0.5c0-0.1,0-0.1,0-0.2
					c0-0.1,0.1-0.2,0.1-0.3c0-0.1-0.1-0.1-0.1-0.2c0-0.1,0-0.2,0-0.3c0-0.2,0-0.4-0.1-0.5c-0.4-0.7-1.2-0.9-2-0.8
					c-0.2,0-0.3,0.1-0.4,0.2c-0.2,0.1-0.1,0.2-0.3,0.2c-0.1,0-0.2,0.1-0.2,0.2C69.4-41.1,69.4-41.1,69.4-41C69.4-41,69.4-41,69.4-41
					"/>
				<path class="st2" d="M61.8-41c0,0.1,0,0.1,0,0.2c-0.1,0.1-0.1,0.1-0.2,0.1c-0.1,0.1-0.1,0.3-0.1,0.4c-0.2,0.1,0,0.2,0,0.3
					c0,0,0,0.1,0,0.2c0,0.1,0,0.3,0.1,0.4c0.1,0.2,0.3,0.4,0.4,0.5c0.2,0.1,0.4,0.6,0.6,0.6c0.2,0,0.4-0.1,0.5-0.1
					c0.2,0,0.4,0,0.6-0.1c0.2-0.1,0.1-0.3,0.3-0.5c0.1-0.1,0.3,0,0.4-0.1c0.2-0.1,0.3-0.3,0.4-0.5c0-0.1,0-0.1,0-0.2
					c0-0.1,0.1-0.2,0.1-0.3c0-0.1-0.1-0.1-0.1-0.2c0-0.1,0-0.2,0-0.3c0-0.2,0-0.4-0.1-0.5c-0.4-0.7-1.2-0.9-2-0.8
					c-0.2,0-0.3,0.1-0.4,0.2c-0.2,0.1-0.1,0.2-0.3,0.2c-0.1,0-0.2,0.1-0.2,0.2C61.8-41.1,61.8-41.1,61.8-41C61.8-41,61.8-41,61.8-41
					"/>
				<path class="st2" d="M54.1-41c0,0.1,0,0.1,0,0.2c-0.1,0.1-0.1,0.1-0.2,0.1c-0.1,0.1-0.1,0.3-0.1,0.4c-0.2,0.1,0,0.2,0,0.3
					c0,0,0,0.1,0,0.2c0,0.1,0,0.3,0.1,0.4c0.1,0.2,0.3,0.4,0.4,0.5c0.2,0.1,0.4,0.6,0.6,0.6c0.2,0,0.4-0.1,0.5-0.1
					c0.2,0,0.4,0,0.6-0.1c0.2-0.1,0.1-0.3,0.3-0.5c0.1-0.1,0.3,0,0.4-0.1c0.2-0.1,0.3-0.3,0.4-0.5c0-0.1,0-0.1,0-0.2
					c0-0.1,0.1-0.2,0.1-0.3c0-0.1-0.1-0.1-0.1-0.2c0-0.1,0-0.2,0-0.3c0-0.2,0-0.4-0.1-0.5c-0.4-0.7-1.2-0.9-2-0.8
					c-0.2,0-0.3,0.1-0.4,0.2c-0.2,0.1-0.1,0.2-0.3,0.2c-0.1,0-0.2,0.1-0.2,0.2C54.1-41.1,54.1-41.1,54.1-41C54.1-41,54.1-41,54.1-41
					"/>
				<path class="st2" d="M46.5-41c0,0.1,0,0.1,0,0.2c-0.1,0.1-0.1,0.1-0.2,0.1c-0.1,0.1-0.1,0.3-0.1,0.4c-0.2,0.1,0,0.2,0,0.3
					c0,0,0,0.1,0,0.2c0,0.1,0,0.3,0.1,0.4c0.1,0.2,0.3,0.4,0.4,0.5c0.2,0.1,0.4,0.6,0.6,0.6c0.2,0,0.4-0.1,0.5-0.1
					c0.2,0,0.4,0,0.6-0.1c0.2-0.1,0.1-0.3,0.3-0.5c0.1-0.1,0.3,0,0.4-0.1c0.2-0.1,0.3-0.3,0.4-0.5c0-0.1,0-0.1,0-0.2
					c0-0.1,0.1-0.2,0.1-0.3c0-0.1-0.1-0.1-0.1-0.2c0-0.1,0-0.2,0-0.3c0-0.2,0-0.4-0.1-0.5c-0.4-0.7-1.2-0.9-2-0.8
					c-0.2,0-0.3,0.1-0.4,0.2c-0.2,0.1-0.1,0.2-0.3,0.2c-0.1,0-0.2,0.1-0.2,0.2C46.5-41.1,46.5-41.1,46.5-41C46.5-41,46.5-41,46.5-41
					"/>
				<path class="st2" d="M38.8-41c0,0.1,0,0.1,0,0.2c-0.1,0.1-0.1,0.1-0.2,0.1c-0.1,0.1-0.1,0.3-0.1,0.4c-0.2,0.1,0,0.2,0,0.3
					c0,0,0,0.1,0,0.2c0,0.1,0,0.3,0.1,0.4c0.1,0.2,0.3,0.4,0.4,0.5c0.2,0.1,0.4,0.6,0.6,0.6c0.2,0,0.4-0.1,0.5-0.1
					c0.2,0,0.4,0,0.6-0.1c0.2-0.1,0.1-0.3,0.3-0.5c0.1-0.1,0.3,0,0.4-0.1c0.2-0.1,0.3-0.3,0.4-0.5c0-0.1,0-0.1,0-0.2
					c0-0.1,0.1-0.2,0.1-0.3c0-0.1-0.1-0.1-0.1-0.2c0-0.1,0-0.2,0-0.3c0-0.2,0-0.4-0.1-0.5c-0.4-0.7-1.2-0.9-2-0.8
					c-0.2,0-0.3,0.1-0.4,0.2c-0.2,0.1-0.1,0.2-0.3,0.2c-0.1,0-0.2,0.1-0.2,0.2C38.8-41.1,38.8-41.1,38.8-41C38.8-41,38.8-41,38.8-41
					"/>
				<path class="st2" d="M31.1-41c0,0.1,0,0.1,0,0.2c-0.1,0.1-0.1,0.1-0.2,0.1c-0.1,0.1-0.1,0.3-0.1,0.4c-0.2,0.1,0,0.2,0,0.3
					c0,0,0,0.1,0,0.2c0,0.1,0,0.3,0.1,0.4c0.1,0.2,0.3,0.4,0.4,0.5c0.2,0.1,0.4,0.6,0.6,0.6c0.2,0,0.4-0.1,0.5-0.1
					c0.2,0,0.4,0,0.6-0.1c0.2-0.1,0.1-0.3,0.3-0.5c0.1-0.1,0.3,0,0.4-0.1c0.2-0.1,0.3-0.3,0.4-0.5c0-0.1,0-0.1,0-0.2
					c0-0.1,0.1-0.2,0.1-0.3c0-0.1-0.1-0.1-0.1-0.2c0-0.1,0-0.2,0-0.3c0-0.2,0-0.4-0.1-0.5c-0.4-0.7-1.2-0.9-2-0.8
					c-0.2,0-0.3,0.1-0.4,0.2c-0.2,0.1-0.1,0.2-0.3,0.2c-0.1,0-0.2,0.1-0.2,0.2C31.1-41.1,31.1-41.1,31.1-41C31.1-41,31.1-41,31.1-41
					"/>
				<path class="st2" d="M23.5-41c0,0.1,0,0.1,0,0.2c-0.1,0.1-0.1,0.1-0.2,0.1c-0.1,0.1-0.1,0.3-0.1,0.4c-0.2,0.1,0,0.2,0,0.3
					c0,0,0,0.1,0,0.2c0,0.1,0,0.3,0.1,0.4c0.1,0.2,0.3,0.4,0.4,0.5c0.2,0.1,0.4,0.6,0.6,0.6c0.2,0,0.4-0.1,0.5-0.1
					c0.2,0,0.4,0,0.6-0.1c0.2-0.1,0.1-0.3,0.3-0.5c0.1-0.1,0.3,0,0.4-0.1c0.2-0.1,0.3-0.3,0.4-0.5c0-0.1,0-0.1,0-0.2
					c0-0.1,0.1-0.2,0.1-0.3c0-0.1-0.1-0.1-0.1-0.2c0-0.1,0-0.2,0-0.3c0-0.2,0-0.4-0.1-0.5c-0.4-0.7-1.2-0.9-2-0.8
					c-0.2,0-0.3,0.1-0.4,0.2c-0.2,0.1-0.1,0.2-0.3,0.2c-0.1,0-0.2,0.1-0.2,0.2C23.5-41.1,23.5-41.1,23.5-41C23.5-41,23.5-41,23.5-41
					"/>
				<path class="st2" d="M15.8-41c0,0.1,0,0.1,0,0.2c-0.1,0.1-0.1,0.1-0.2,0.1c-0.1,0.1-0.1,0.3-0.1,0.4c-0.2,0.1,0,0.2,0,0.3
					c0,0,0,0.1,0,0.2c0,0.1,0,0.3,0.1,0.4c0.1,0.2,0.3,0.4,0.4,0.5c0.2,0.1,0.4,0.6,0.6,0.6c0.2,0,0.4-0.1,0.5-0.1
					c0.2,0,0.4,0,0.6-0.1c0.2-0.1,0.1-0.3,0.3-0.5c0.1-0.1,0.3,0,0.4-0.1c0.2-0.1,0.3-0.3,0.4-0.5c0-0.1,0-0.1,0-0.2
					c0-0.1,0.1-0.2,0.1-0.3c0-0.1-0.1-0.1-0.1-0.2c0-0.1,0-0.2,0-0.3c0-0.2,0-0.4-0.1-0.5c-0.4-0.7-1.2-0.9-2-0.8
					c-0.2,0-0.3,0.1-0.4,0.2c-0.2,0.1-0.1,0.2-0.3,0.2c-0.1,0-0.2,0.1-0.2,0.2C15.8-41.1,15.8-41.1,15.8-41C15.8-41,15.8-41,15.8-41
					"/>
				<path class="st2" d="M8.2-41c0,0.1,0,0.1,0,0.2C8.1-40.8,8-40.8,8-40.7c-0.1,0.1-0.1,0.3-0.1,0.4c-0.2,0.1,0,0.2,0,0.3
					c0,0,0,0.1,0,0.2c0,0.1,0,0.3,0.1,0.4c0.1,0.2,0.3,0.4,0.4,0.5c0.2,0.1,0.4,0.6,0.6,0.6c0.2,0,0.4-0.1,0.5-0.1
					c0.2,0,0.4,0,0.6-0.1c0.2-0.1,0.1-0.3,0.3-0.5c0.1-0.1,0.3,0,0.4-0.1c0.2-0.1,0.3-0.3,0.4-0.5c0-0.1,0-0.1,0-0.2
					c0-0.1,0.1-0.2,0.1-0.3c0-0.1-0.1-0.1-0.1-0.2c0-0.1,0-0.2,0-0.3c0-0.2,0-0.4-0.1-0.5c-0.4-0.7-1.2-0.9-2-0.8
					c-0.2,0-0.3,0.1-0.4,0.2c-0.2,0.1-0.1,0.2-0.3,0.2c-0.1,0-0.2,0.1-0.2,0.2C8.2-41.1,8.2-41.1,8.2-41C8.1-41,8.1-41,8.2-41"/>
				<path class="st2" d="M0.5-41c0,0.1,0,0.1,0,0.2c-0.1,0.1-0.1,0.1-0.2,0.1c-0.1,0.1-0.1,0.3-0.1,0.4c-0.2,0.1,0,0.2,0,0.3
					c0,0,0,0.1,0,0.2c0,0.1,0,0.3,0.1,0.4c0.1,0.2,0.3,0.4,0.4,0.5c0.2,0.1,0.4,0.6,0.6,0.6c0.2,0,0.4-0.1,0.5-0.1
					c0.2,0,0.4,0,0.6-0.1c0.2-0.1,0.1-0.3,0.3-0.5C2.8-39,3-39,3.1-39c0.2-0.1,0.3-0.3,0.4-0.5c0-0.1,0-0.1,0-0.2
					c0-0.1,0.1-0.2,0.1-0.3c0-0.1-0.1-0.1-0.1-0.2c0-0.1,0-0.2,0-0.3c0-0.2,0-0.4-0.1-0.5c-0.4-0.7-1.2-0.9-2-0.8
					c-0.2,0-0.3,0.1-0.4,0.2c-0.2,0.1-0.1,0.2-0.3,0.2c-0.1,0-0.2,0.1-0.2,0.2C0.5-41.1,0.5-41.1,0.5-41C0.5-41,0.5-41,0.5-41"/>
			</g>
			<g>
				<path class="st2" d="M69.4-33.4c0,0.1,0,0.1,0,0.2c-0.1,0.1-0.1,0.1-0.2,0.1c-0.1,0.1-0.1,0.3-0.1,0.4c-0.2,0.1,0,0.2,0,0.3
					c0,0,0,0.1,0,0.2c0,0.1,0,0.3,0.1,0.4c0.1,0.2,0.3,0.4,0.4,0.5c0.2,0.1,0.4,0.6,0.6,0.6c0.2,0,0.4-0.1,0.5-0.1
					c0.2,0,0.4,0,0.6-0.1c0.2-0.1,0.1-0.3,0.3-0.5c0.1-0.1,0.3,0,0.4-0.1c0.2-0.1,0.3-0.3,0.4-0.5c0-0.1,0-0.1,0-0.2
					c0-0.1,0.1-0.2,0.1-0.3c0-0.1-0.1-0.1-0.1-0.2c0-0.1,0-0.2,0-0.3c0-0.2,0-0.4-0.1-0.5c-0.4-0.7-1.2-0.9-2-0.8
					c-0.2,0-0.3,0.1-0.4,0.2c-0.2,0.1-0.1,0.2-0.3,0.2c-0.1,0-0.2,0.1-0.2,0.2C69.4-33.4,69.4-33.5,69.4-33.4
					C69.4-33.4,69.4-33.4,69.4-33.4"/>
				<path class="st2" d="M61.8-33.4c0,0.1,0,0.1,0,0.2c-0.1,0.1-0.1,0.1-0.2,0.1c-0.1,0.1-0.1,0.3-0.1,0.4c-0.2,0.1,0,0.2,0,0.3
					c0,0,0,0.1,0,0.2c0,0.1,0,0.3,0.1,0.4c0.1,0.2,0.3,0.4,0.4,0.5c0.2,0.1,0.4,0.6,0.6,0.6c0.2,0,0.4-0.1,0.5-0.1
					c0.2,0,0.4,0,0.6-0.1c0.2-0.1,0.1-0.3,0.3-0.5c0.1-0.1,0.3,0,0.4-0.1c0.2-0.1,0.3-0.3,0.4-0.5c0-0.1,0-0.1,0-0.2
					c0-0.1,0.1-0.2,0.1-0.3c0-0.1-0.1-0.1-0.1-0.2c0-0.1,0-0.2,0-0.3c0-0.2,0-0.4-0.1-0.5c-0.4-0.7-1.2-0.9-2-0.8
					c-0.2,0-0.3,0.1-0.4,0.2c-0.2,0.1-0.1,0.2-0.3,0.2c-0.1,0-0.2,0.1-0.2,0.2C61.8-33.4,61.8-33.5,61.8-33.4
					C61.8-33.4,61.8-33.4,61.8-33.4"/>
				<path class="st2" d="M54.1-33.4c0,0.1,0,0.1,0,0.2c-0.1,0.1-0.1,0.1-0.2,0.1c-0.1,0.1-0.1,0.3-0.1,0.4c-0.2,0.1,0,0.2,0,0.3
					c0,0,0,0.1,0,0.2c0,0.1,0,0.3,0.1,0.4c0.1,0.2,0.3,0.4,0.4,0.5c0.2,0.1,0.4,0.6,0.6,0.6c0.2,0,0.4-0.1,0.5-0.1
					c0.2,0,0.4,0,0.6-0.1c0.2-0.1,0.1-0.3,0.3-0.5c0.1-0.1,0.3,0,0.4-0.1c0.2-0.1,0.3-0.3,0.4-0.5c0-0.1,0-0.1,0-0.2
					c0-0.1,0.1-0.2,0.1-0.3c0-0.1-0.1-0.1-0.1-0.2c0-0.1,0-0.2,0-0.3c0-0.2,0-0.4-0.1-0.5c-0.4-0.7-1.2-0.9-2-0.8
					c-0.2,0-0.3,0.1-0.4,0.2c-0.2,0.1-0.1,0.2-0.3,0.2c-0.1,0-0.2,0.1-0.2,0.2C54.1-33.4,54.1-33.5,54.1-33.4
					C54.1-33.4,54.1-33.4,54.1-33.4"/>
				<path class="st2" d="M46.5-33.4c0,0.1,0,0.1,0,0.2c-0.1,0.1-0.1,0.1-0.2,0.1c-0.1,0.1-0.1,0.3-0.1,0.4c-0.2,0.1,0,0.2,0,0.3
					c0,0,0,0.1,0,0.2c0,0.1,0,0.3,0.1,0.4c0.1,0.2,0.3,0.4,0.4,0.5c0.2,0.1,0.4,0.6,0.6,0.6c0.2,0,0.4-0.1,0.5-0.1
					c0.2,0,0.4,0,0.6-0.1c0.2-0.1,0.1-0.3,0.3-0.5c0.1-0.1,0.3,0,0.4-0.1c0.2-0.1,0.3-0.3,0.4-0.5c0-0.1,0-0.1,0-0.2
					c0-0.1,0.1-0.2,0.1-0.3c0-0.1-0.1-0.1-0.1-0.2c0-0.1,0-0.2,0-0.3c0-0.2,0-0.4-0.1-0.5c-0.4-0.7-1.2-0.9-2-0.8
					c-0.2,0-0.3,0.1-0.4,0.2c-0.2,0.1-0.1,0.2-0.3,0.2c-0.1,0-0.2,0.1-0.2,0.2C46.5-33.4,46.5-33.5,46.5-33.4
					C46.5-33.4,46.5-33.4,46.5-33.4"/>
				<path class="st2" d="M38.8-33.4c0,0.1,0,0.1,0,0.2c-0.1,0.1-0.1,0.1-0.2,0.1c-0.1,0.1-0.1,0.3-0.1,0.4c-0.2,0.1,0,0.2,0,0.3
					c0,0,0,0.1,0,0.2c0,0.1,0,0.3,0.1,0.4c0.1,0.2,0.3,0.4,0.4,0.5c0.2,0.1,0.4,0.6,0.6,0.6c0.2,0,0.4-0.1,0.5-0.1
					c0.2,0,0.4,0,0.6-0.1c0.2-0.1,0.1-0.3,0.3-0.5c0.1-0.1,0.3,0,0.4-0.1c0.2-0.1,0.3-0.3,0.4-0.5c0-0.1,0-0.1,0-0.2
					c0-0.1,0.1-0.2,0.1-0.3c0-0.1-0.1-0.1-0.1-0.2c0-0.1,0-0.2,0-0.3c0-0.2,0-0.4-0.1-0.5c-0.4-0.7-1.2-0.9-2-0.8
					c-0.2,0-0.3,0.1-0.4,0.2c-0.2,0.1-0.1,0.2-0.3,0.2c-0.1,0-0.2,0.1-0.2,0.2C38.8-33.4,38.8-33.5,38.8-33.4
					C38.8-33.4,38.8-33.4,38.8-33.4"/>
				<path class="st2" d="M31.1-33.4c0,0.1,0,0.1,0,0.2c-0.1,0.1-0.1,0.1-0.2,0.1c-0.1,0.1-0.1,0.3-0.1,0.4c-0.2,0.1,0,0.2,0,0.3
					c0,0,0,0.1,0,0.2c0,0.1,0,0.3,0.1,0.4c0.1,0.2,0.3,0.4,0.4,0.5c0.2,0.1,0.4,0.6,0.6,0.6c0.2,0,0.4-0.1,0.5-0.1
					c0.2,0,0.4,0,0.6-0.1c0.2-0.1,0.1-0.3,0.3-0.5c0.1-0.1,0.3,0,0.4-0.1c0.2-0.1,0.3-0.3,0.4-0.5c0-0.1,0-0.1,0-0.2
					c0-0.1,0.1-0.2,0.1-0.3c0-0.1-0.1-0.1-0.1-0.2c0-0.1,0-0.2,0-0.3c0-0.2,0-0.4-0.1-0.5c-0.4-0.7-1.2-0.9-2-0.8
					c-0.2,0-0.3,0.1-0.4,0.2c-0.2,0.1-0.1,0.2-0.3,0.2c-0.1,0-0.2,0.1-0.2,0.2C31.1-33.4,31.1-33.5,31.1-33.4
					C31.1-33.4,31.1-33.4,31.1-33.4"/>
				<path class="st2" d="M23.5-33.4c0,0.1,0,0.1,0,0.2c-0.1,0.1-0.1,0.1-0.2,0.1c-0.1,0.1-0.1,0.3-0.1,0.4c-0.2,0.1,0,0.2,0,0.3
					c0,0,0,0.1,0,0.2c0,0.1,0,0.3,0.1,0.4c0.1,0.2,0.3,0.4,0.4,0.5c0.2,0.1,0.4,0.6,0.6,0.6c0.2,0,0.4-0.1,0.5-0.1
					c0.2,0,0.4,0,0.6-0.1c0.2-0.1,0.1-0.3,0.3-0.5c0.1-0.1,0.3,0,0.4-0.1c0.2-0.1,0.3-0.3,0.4-0.5c0-0.1,0-0.1,0-0.2
					c0-0.1,0.1-0.2,0.1-0.3c0-0.1-0.1-0.1-0.1-0.2c0-0.1,0-0.2,0-0.3c0-0.2,0-0.4-0.1-0.5c-0.4-0.7-1.2-0.9-2-0.8
					c-0.2,0-0.3,0.1-0.4,0.2c-0.2,0.1-0.1,0.2-0.3,0.2c-0.1,0-0.2,0.1-0.2,0.2C23.5-33.4,23.5-33.5,23.5-33.4
					C23.5-33.4,23.5-33.4,23.5-33.4"/>
				<path class="st2" d="M15.8-33.4c0,0.1,0,0.1,0,0.2c-0.1,0.1-0.1,0.1-0.2,0.1c-0.1,0.1-0.1,0.3-0.1,0.4c-0.2,0.1,0,0.2,0,0.3
					c0,0,0,0.1,0,0.2c0,0.1,0,0.3,0.1,0.4c0.1,0.2,0.3,0.4,0.4,0.5c0.2,0.1,0.4,0.6,0.6,0.6c0.2,0,0.4-0.1,0.5-0.1
					c0.2,0,0.4,0,0.6-0.1c0.2-0.1,0.1-0.3,0.3-0.5c0.1-0.1,0.3,0,0.4-0.1c0.2-0.1,0.3-0.3,0.4-0.5c0-0.1,0-0.1,0-0.2
					c0-0.1,0.1-0.2,0.1-0.3c0-0.1-0.1-0.1-0.1-0.2c0-0.1,0-0.2,0-0.3c0-0.2,0-0.4-0.1-0.5c-0.4-0.7-1.2-0.9-2-0.8
					c-0.2,0-0.3,0.1-0.4,0.2c-0.2,0.1-0.1,0.2-0.3,0.2c-0.1,0-0.2,0.1-0.2,0.2C15.8-33.4,15.8-33.5,15.8-33.4
					C15.8-33.4,15.8-33.4,15.8-33.4"/>
				<path class="st2" d="M8.2-33.4c0,0.1,0,0.1,0,0.2C8.1-33.1,8-33.1,8-33.1c-0.1,0.1-0.1,0.3-0.1,0.4c-0.2,0.1,0,0.2,0,0.3
					c0,0,0,0.1,0,0.2c0,0.1,0,0.3,0.1,0.4c0.1,0.2,0.3,0.4,0.4,0.5c0.2,0.1,0.4,0.6,0.6,0.6c0.2,0,0.4-0.1,0.5-0.1
					c0.2,0,0.4,0,0.6-0.1c0.2-0.1,0.1-0.3,0.3-0.5c0.1-0.1,0.3,0,0.4-0.1c0.2-0.1,0.3-0.3,0.4-0.5c0-0.1,0-0.1,0-0.2
					c0-0.1,0.1-0.2,0.1-0.3c0-0.1-0.1-0.1-0.1-0.2c0-0.1,0-0.2,0-0.3c0-0.2,0-0.4-0.1-0.5c-0.4-0.7-1.2-0.9-2-0.8
					c-0.2,0-0.3,0.1-0.4,0.2c-0.2,0.1-0.1,0.2-0.3,0.2c-0.1,0-0.2,0.1-0.2,0.2C8.2-33.4,8.2-33.5,8.2-33.4
					C8.1-33.4,8.1-33.4,8.2-33.4"/>
				<path class="st2" d="M0.5-33.4c0,0.1,0,0.1,0,0.2c-0.1,0.1-0.1,0.1-0.2,0.1c-0.1,0.1-0.1,0.3-0.1,0.4c-0.2,0.1,0,0.2,0,0.3
					c0,0,0,0.1,0,0.2c0,0.1,0,0.3,0.1,0.4c0.1,0.2,0.3,0.4,0.4,0.5c0.2,0.1,0.4,0.6,0.6,0.6c0.2,0,0.4-0.1,0.5-0.1
					c0.2,0,0.4,0,0.6-0.1c0.2-0.1,0.1-0.3,0.3-0.5c0.1-0.1,0.3,0,0.4-0.1c0.2-0.1,0.3-0.3,0.4-0.5c0-0.1,0-0.1,0-0.2
					c0-0.1,0.1-0.2,0.1-0.3c0-0.1-0.1-0.1-0.1-0.2c0-0.1,0-0.2,0-0.3c0-0.2,0-0.4-0.1-0.5c-0.4-0.7-1.2-0.9-2-0.8
					c-0.2,0-0.3,0.1-0.4,0.2c-0.2,0.1-0.1,0.2-0.3,0.2c-0.1,0-0.2,0.1-0.2,0.2C0.5-33.4,0.5-33.5,0.5-33.4
					C0.5-33.4,0.5-33.4,0.5-33.4"/>
			</g>
			<g>
				<path class="st2" d="M69.4-25.7c0,0.1,0,0.1,0,0.2c-0.1,0.1-0.1,0.1-0.2,0.1c-0.1,0.1-0.1,0.3-0.1,0.4c-0.2,0.1,0,0.2,0,0.3
					c0,0,0,0.1,0,0.2c0,0.1,0,0.3,0.1,0.4c0.1,0.2,0.3,0.4,0.4,0.5c0.2,0.1,0.4,0.6,0.6,0.6c0.2,0,0.4-0.1,0.5-0.1
					c0.2,0,0.4,0,0.6-0.1c0.2-0.1,0.1-0.3,0.3-0.5c0.1-0.1,0.3,0,0.4-0.1c0.2-0.1,0.3-0.3,0.4-0.5c0-0.1,0-0.1,0-0.2
					c0-0.1,0.1-0.2,0.1-0.3c0-0.1-0.1-0.1-0.1-0.2c0-0.1,0-0.2,0-0.3c0-0.2,0-0.4-0.1-0.5c-0.4-0.7-1.2-0.9-2-0.8
					c-0.2,0-0.3,0.1-0.4,0.2c-0.2,0.1-0.1,0.2-0.3,0.2c-0.1,0-0.2,0.1-0.2,0.2C69.4-25.8,69.4-25.8,69.4-25.7
					C69.4-25.7,69.4-25.7,69.4-25.7"/>
				<path class="st2" d="M61.8-25.7c0,0.1,0,0.1,0,0.2c-0.1,0.1-0.1,0.1-0.2,0.1c-0.1,0.1-0.1,0.3-0.1,0.4c-0.2,0.1,0,0.2,0,0.3
					c0,0,0,0.1,0,0.2c0,0.1,0,0.3,0.1,0.4c0.1,0.2,0.3,0.4,0.4,0.5c0.2,0.1,0.4,0.6,0.6,0.6c0.2,0,0.4-0.1,0.5-0.1
					c0.2,0,0.4,0,0.6-0.1c0.2-0.1,0.1-0.3,0.3-0.5c0.1-0.1,0.3,0,0.4-0.1c0.2-0.1,0.3-0.3,0.4-0.5c0-0.1,0-0.1,0-0.2
					c0-0.1,0.1-0.2,0.1-0.3c0-0.1-0.1-0.1-0.1-0.2c0-0.1,0-0.2,0-0.3c0-0.2,0-0.4-0.1-0.5c-0.4-0.7-1.2-0.9-2-0.8
					c-0.2,0-0.3,0.1-0.4,0.2c-0.2,0.1-0.1,0.2-0.3,0.2c-0.1,0-0.2,0.1-0.2,0.2C61.8-25.8,61.8-25.8,61.8-25.7
					C61.8-25.7,61.8-25.7,61.8-25.7"/>
				<path class="st2" d="M54.1-25.7c0,0.1,0,0.1,0,0.2c-0.1,0.1-0.1,0.1-0.2,0.1c-0.1,0.1-0.1,0.3-0.1,0.4c-0.2,0.1,0,0.2,0,0.3
					c0,0,0,0.1,0,0.2c0,0.1,0,0.3,0.1,0.4c0.1,0.2,0.3,0.4,0.4,0.5c0.2,0.1,0.4,0.6,0.6,0.6c0.2,0,0.4-0.1,0.5-0.1
					c0.2,0,0.4,0,0.6-0.1c0.2-0.1,0.1-0.3,0.3-0.5c0.1-0.1,0.3,0,0.4-0.1c0.2-0.1,0.3-0.3,0.4-0.5c0-0.1,0-0.1,0-0.2
					c0-0.1,0.1-0.2,0.1-0.3c0-0.1-0.1-0.1-0.1-0.2c0-0.1,0-0.2,0-0.3c0-0.2,0-0.4-0.1-0.5c-0.4-0.7-1.2-0.9-2-0.8
					c-0.2,0-0.3,0.1-0.4,0.2c-0.2,0.1-0.1,0.2-0.3,0.2c-0.1,0-0.2,0.1-0.2,0.2C54.1-25.8,54.1-25.8,54.1-25.7
					C54.1-25.7,54.1-25.7,54.1-25.7"/>
				<path class="st2" d="M46.5-25.7c0,0.1,0,0.1,0,0.2c-0.1,0.1-0.1,0.1-0.2,0.1c-0.1,0.1-0.1,0.3-0.1,0.4c-0.2,0.1,0,0.2,0,0.3
					c0,0,0,0.1,0,0.2c0,0.1,0,0.3,0.1,0.4c0.1,0.2,0.3,0.4,0.4,0.5c0.2,0.1,0.4,0.6,0.6,0.6c0.2,0,0.4-0.1,0.5-0.1
					c0.2,0,0.4,0,0.6-0.1c0.2-0.1,0.1-0.3,0.3-0.5c0.1-0.1,0.3,0,0.4-0.1c0.2-0.1,0.3-0.3,0.4-0.5c0-0.1,0-0.1,0-0.2
					c0-0.1,0.1-0.2,0.1-0.3c0-0.1-0.1-0.1-0.1-0.2c0-0.1,0-0.2,0-0.3c0-0.2,0-0.4-0.1-0.5c-0.4-0.7-1.2-0.9-2-0.8
					c-0.2,0-0.3,0.1-0.4,0.2c-0.2,0.1-0.1,0.2-0.3,0.2c-0.1,0-0.2,0.1-0.2,0.2C46.5-25.8,46.5-25.8,46.5-25.7
					C46.5-25.7,46.5-25.7,46.5-25.7"/>
				<path class="st2" d="M38.8-25.7c0,0.1,0,0.1,0,0.2c-0.1,0.1-0.1,0.1-0.2,0.1c-0.1,0.1-0.1,0.3-0.1,0.4c-0.2,0.1,0,0.2,0,0.3
					c0,0,0,0.1,0,0.2c0,0.1,0,0.3,0.1,0.4c0.1,0.2,0.3,0.4,0.4,0.5c0.2,0.1,0.4,0.6,0.6,0.6c0.2,0,0.4-0.1,0.5-0.1
					c0.2,0,0.4,0,0.6-0.1c0.2-0.1,0.1-0.3,0.3-0.5c0.1-0.1,0.3,0,0.4-0.1c0.2-0.1,0.3-0.3,0.4-0.5c0-0.1,0-0.1,0-0.2
					c0-0.1,0.1-0.2,0.1-0.3c0-0.1-0.1-0.1-0.1-0.2c0-0.1,0-0.2,0-0.3c0-0.2,0-0.4-0.1-0.5c-0.4-0.7-1.2-0.9-2-0.8
					c-0.2,0-0.3,0.1-0.4,0.2c-0.2,0.1-0.1,0.2-0.3,0.2c-0.1,0-0.2,0.1-0.2,0.2C38.8-25.8,38.8-25.8,38.8-25.7
					C38.8-25.7,38.8-25.7,38.8-25.7"/>
				<path class="st2" d="M31.1-25.7c0,0.1,0,0.1,0,0.2c-0.1,0.1-0.1,0.1-0.2,0.1c-0.1,0.1-0.1,0.3-0.1,0.4c-0.2,0.1,0,0.2,0,0.3
					c0,0,0,0.1,0,0.2c0,0.1,0,0.3,0.1,0.4c0.1,0.2,0.3,0.4,0.4,0.5c0.2,0.1,0.4,0.6,0.6,0.6c0.2,0,0.4-0.1,0.5-0.1
					c0.2,0,0.4,0,0.6-0.1c0.2-0.1,0.1-0.3,0.3-0.5c0.1-0.1,0.3,0,0.4-0.1c0.2-0.1,0.3-0.3,0.4-0.5c0-0.1,0-0.1,0-0.2
					c0-0.1,0.1-0.2,0.1-0.3c0-0.1-0.1-0.1-0.1-0.2c0-0.1,0-0.2,0-0.3c0-0.2,0-0.4-0.1-0.5c-0.4-0.7-1.2-0.9-2-0.8
					c-0.2,0-0.3,0.1-0.4,0.2c-0.2,0.1-0.1,0.2-0.3,0.2c-0.1,0-0.2,0.1-0.2,0.2C31.1-25.8,31.1-25.8,31.1-25.7
					C31.1-25.7,31.1-25.7,31.1-25.7"/>
				<path class="st2" d="M23.5-25.7c0,0.1,0,0.1,0,0.2c-0.1,0.1-0.1,0.1-0.2,0.1c-0.1,0.1-0.1,0.3-0.1,0.4c-0.2,0.1,0,0.2,0,0.3
					c0,0,0,0.1,0,0.2c0,0.1,0,0.3,0.1,0.4c0.1,0.2,0.3,0.4,0.4,0.5c0.2,0.1,0.4,0.6,0.6,0.6c0.2,0,0.4-0.1,0.5-0.1
					c0.2,0,0.4,0,0.6-0.1c0.2-0.1,0.1-0.3,0.3-0.5c0.1-0.1,0.3,0,0.4-0.1c0.2-0.1,0.3-0.3,0.4-0.5c0-0.1,0-0.1,0-0.2
					c0-0.1,0.1-0.2,0.1-0.3c0-0.1-0.1-0.1-0.1-0.2c0-0.1,0-0.2,0-0.3c0-0.2,0-0.4-0.1-0.5c-0.4-0.7-1.2-0.9-2-0.8
					c-0.2,0-0.3,0.1-0.4,0.2c-0.2,0.1-0.1,0.2-0.3,0.2c-0.1,0-0.2,0.1-0.2,0.2C23.5-25.8,23.5-25.8,23.5-25.7
					C23.5-25.7,23.5-25.7,23.5-25.7"/>
				<path class="st2" d="M15.8-25.7c0,0.1,0,0.1,0,0.2c-0.1,0.1-0.1,0.1-0.2,0.1c-0.1,0.1-0.1,0.3-0.1,0.4c-0.2,0.1,0,0.2,0,0.3
					c0,0,0,0.1,0,0.2c0,0.1,0,0.3,0.1,0.4c0.1,0.2,0.3,0.4,0.4,0.5c0.2,0.1,0.4,0.6,0.6,0.6c0.2,0,0.4-0.1,0.5-0.1
					c0.2,0,0.4,0,0.6-0.1c0.2-0.1,0.1-0.3,0.3-0.5c0.1-0.1,0.3,0,0.4-0.1c0.2-0.1,0.3-0.3,0.4-0.5c0-0.1,0-0.1,0-0.2
					c0-0.1,0.1-0.2,0.1-0.3c0-0.1-0.1-0.1-0.1-0.2c0-0.1,0-0.2,0-0.3c0-0.2,0-0.4-0.1-0.5c-0.4-0.7-1.2-0.9-2-0.8
					c-0.2,0-0.3,0.1-0.4,0.2c-0.2,0.1-0.1,0.2-0.3,0.2c-0.1,0-0.2,0.1-0.2,0.2C15.8-25.8,15.8-25.8,15.8-25.7
					C15.8-25.7,15.8-25.7,15.8-25.7"/>
				<path class="st2" d="M8.2-25.7c0,0.1,0,0.1,0,0.2C8.1-25.4,8-25.5,8-25.4c-0.1,0.1-0.1,0.3-0.1,0.4c-0.2,0.1,0,0.2,0,0.3
					c0,0,0,0.1,0,0.2c0,0.1,0,0.3,0.1,0.4C8-24,8.2-23.8,8.3-23.6c0.2,0.1,0.4,0.6,0.6,0.6c0.2,0,0.4-0.1,0.5-0.1
					c0.2,0,0.4,0,0.6-0.1c0.2-0.1,0.1-0.3,0.3-0.5c0.1-0.1,0.3,0,0.4-0.1c0.2-0.1,0.3-0.3,0.4-0.5c0-0.1,0-0.1,0-0.2
					c0-0.1,0.1-0.2,0.1-0.3c0-0.1-0.1-0.1-0.1-0.2c0-0.1,0-0.2,0-0.3c0-0.2,0-0.4-0.1-0.5c-0.4-0.7-1.2-0.9-2-0.8
					c-0.2,0-0.3,0.1-0.4,0.2c-0.2,0.1-0.1,0.2-0.3,0.2c-0.1,0-0.2,0.1-0.2,0.2C8.2-25.8,8.2-25.8,8.2-25.7
					C8.1-25.7,8.1-25.7,8.2-25.7"/>
				<path class="st2" d="M0.5-25.7c0,0.1,0,0.1,0,0.2c-0.1,0.1-0.1,0.1-0.2,0.1c-0.1,0.1-0.1,0.3-0.1,0.4c-0.2,0.1,0,0.2,0,0.3
					c0,0,0,0.1,0,0.2c0,0.1,0,0.3,0.1,0.4c0.1,0.2,0.3,0.4,0.4,0.5C0.9-23.5,1-23.1,1.3-23c0.2,0,0.4-0.1,0.5-0.1
					c0.2,0,0.4,0,0.6-0.1c0.2-0.1,0.1-0.3,0.3-0.5c0.1-0.1,0.3,0,0.4-0.1c0.2-0.1,0.3-0.3,0.4-0.5c0-0.1,0-0.1,0-0.2
					c0-0.1,0.1-0.2,0.1-0.3c0-0.1-0.1-0.1-0.1-0.2c0-0.1,0-0.2,0-0.3c0-0.2,0-0.4-0.1-0.5c-0.4-0.7-1.2-0.9-2-0.8
					c-0.2,0-0.3,0.1-0.4,0.2c-0.2,0.1-0.1,0.2-0.3,0.2c-0.1,0-0.2,0.1-0.2,0.2C0.5-25.8,0.5-25.8,0.5-25.7
					C0.5-25.7,0.5-25.7,0.5-25.7"/>
			</g>
			<g>
				<path class="st2" d="M69.4-18.1c0,0.1,0,0.1,0,0.2c-0.1,0.1-0.1,0.1-0.2,0.1c-0.1,0.1-0.1,0.3-0.1,0.4c-0.2,0.1,0,0.2,0,0.3
					c0,0,0,0.1,0,0.2c0,0.1,0,0.3,0.1,0.4c0.1,0.2,0.3,0.4,0.4,0.5c0.2,0.1,0.4,0.6,0.6,0.6c0.2,0,0.4-0.1,0.5-0.1
					c0.2,0,0.4,0,0.6-0.1c0.2-0.1,0.1-0.3,0.3-0.5c0.1-0.1,0.3,0,0.4-0.1c0.2-0.1,0.3-0.3,0.4-0.5c0-0.1,0-0.1,0-0.2
					c0-0.1,0.1-0.2,0.1-0.3c0-0.1-0.1-0.1-0.1-0.2c0-0.1,0-0.2,0-0.3c0-0.2,0-0.4-0.1-0.5c-0.4-0.7-1.2-0.9-2-0.8
					c-0.2,0-0.3,0.1-0.4,0.2c-0.2,0.1-0.1,0.2-0.3,0.2c-0.1,0-0.2,0.1-0.2,0.2C69.4-18.1,69.4-18.2,69.4-18.1
					C69.4-18,69.4-18.1,69.4-18.1"/>
				<path class="st2" d="M61.8-18.1c0,0.1,0,0.1,0,0.2c-0.1,0.1-0.1,0.1-0.2,0.1c-0.1,0.1-0.1,0.3-0.1,0.4c-0.2,0.1,0,0.2,0,0.3
					c0,0,0,0.1,0,0.2c0,0.1,0,0.3,0.1,0.4c0.1,0.2,0.3,0.4,0.4,0.5c0.2,0.1,0.4,0.6,0.6,0.6c0.2,0,0.4-0.1,0.5-0.1
					c0.2,0,0.4,0,0.6-0.1c0.2-0.1,0.1-0.3,0.3-0.5c0.1-0.1,0.3,0,0.4-0.1c0.2-0.1,0.3-0.3,0.4-0.5c0-0.1,0-0.1,0-0.2
					c0-0.1,0.1-0.2,0.1-0.3c0-0.1-0.1-0.1-0.1-0.2c0-0.1,0-0.2,0-0.3c0-0.2,0-0.4-0.1-0.5c-0.4-0.7-1.2-0.9-2-0.8
					c-0.2,0-0.3,0.1-0.4,0.2c-0.2,0.1-0.1,0.2-0.3,0.2c-0.1,0-0.2,0.1-0.2,0.2C61.8-18.1,61.8-18.2,61.8-18.1
					C61.8-18,61.8-18.1,61.8-18.1"/>
				<path class="st2" d="M54.1-18.1c0,0.1,0,0.1,0,0.2c-0.1,0.1-0.1,0.1-0.2,0.1c-0.1,0.1-0.1,0.3-0.1,0.4c-0.2,0.1,0,0.2,0,0.3
					c0,0,0,0.1,0,0.2c0,0.1,0,0.3,0.1,0.4c0.1,0.2,0.3,0.4,0.4,0.5c0.2,0.1,0.4,0.6,0.6,0.6c0.2,0,0.4-0.1,0.5-0.1
					c0.2,0,0.4,0,0.6-0.1c0.2-0.1,0.1-0.3,0.3-0.5c0.1-0.1,0.3,0,0.4-0.1c0.2-0.1,0.3-0.3,0.4-0.5c0-0.1,0-0.1,0-0.2
					c0-0.1,0.1-0.2,0.1-0.3c0-0.1-0.1-0.1-0.1-0.2c0-0.1,0-0.2,0-0.3c0-0.2,0-0.4-0.1-0.5c-0.4-0.7-1.2-0.9-2-0.8
					c-0.2,0-0.3,0.1-0.4,0.2c-0.2,0.1-0.1,0.2-0.3,0.2c-0.1,0-0.2,0.1-0.2,0.2C54.1-18.1,54.1-18.2,54.1-18.1
					C54.1-18,54.1-18.1,54.1-18.1"/>
				<path class="st2" d="M46.5-18.1c0,0.1,0,0.1,0,0.2c-0.1,0.1-0.1,0.1-0.2,0.1c-0.1,0.1-0.1,0.3-0.1,0.4c-0.2,0.1,0,0.2,0,0.3
					c0,0,0,0.1,0,0.2c0,0.1,0,0.3,0.1,0.4c0.1,0.2,0.3,0.4,0.4,0.5c0.2,0.1,0.4,0.6,0.6,0.6c0.2,0,0.4-0.1,0.5-0.1
					c0.2,0,0.4,0,0.6-0.1c0.2-0.1,0.1-0.3,0.3-0.5c0.1-0.1,0.3,0,0.4-0.1c0.2-0.1,0.3-0.3,0.4-0.5c0-0.1,0-0.1,0-0.2
					c0-0.1,0.1-0.2,0.1-0.3c0-0.1-0.1-0.1-0.1-0.2c0-0.1,0-0.2,0-0.3c0-0.2,0-0.4-0.1-0.5c-0.4-0.7-1.2-0.9-2-0.8
					c-0.2,0-0.3,0.1-0.4,0.2c-0.2,0.1-0.1,0.2-0.3,0.2c-0.1,0-0.2,0.1-0.2,0.2C46.5-18.1,46.5-18.2,46.5-18.1
					C46.5-18,46.5-18.1,46.5-18.1"/>
				<path class="st2" d="M38.8-18.1c0,0.1,0,0.1,0,0.2c-0.1,0.1-0.1,0.1-0.2,0.1c-0.1,0.1-0.1,0.3-0.1,0.4c-0.2,0.1,0,0.2,0,0.3
					c0,0,0,0.1,0,0.2c0,0.1,0,0.3,0.1,0.4c0.1,0.2,0.3,0.4,0.4,0.5c0.2,0.1,0.4,0.6,0.6,0.6c0.2,0,0.4-0.1,0.5-0.1
					c0.2,0,0.4,0,0.6-0.1c0.2-0.1,0.1-0.3,0.3-0.5c0.1-0.1,0.3,0,0.4-0.1c0.2-0.1,0.3-0.3,0.4-0.5c0-0.1,0-0.1,0-0.2
					c0-0.1,0.1-0.2,0.1-0.3c0-0.1-0.1-0.1-0.1-0.2c0-0.1,0-0.2,0-0.3c0-0.2,0-0.4-0.1-0.5c-0.4-0.7-1.2-0.9-2-0.8
					c-0.2,0-0.3,0.1-0.4,0.2c-0.2,0.1-0.1,0.2-0.3,0.2c-0.1,0-0.2,0.1-0.2,0.2C38.8-18.1,38.8-18.2,38.8-18.1
					C38.8-18,38.8-18.1,38.8-18.1"/>
				<path class="st2" d="M31.1-18.1c0,0.1,0,0.1,0,0.2c-0.1,0.1-0.1,0.1-0.2,0.1c-0.1,0.1-0.1,0.3-0.1,0.4c-0.2,0.1,0,0.2,0,0.3
					c0,0,0,0.1,0,0.2c0,0.1,0,0.3,0.1,0.4c0.1,0.2,0.3,0.4,0.4,0.5c0.2,0.1,0.4,0.6,0.6,0.6c0.2,0,0.4-0.1,0.5-0.1
					c0.2,0,0.4,0,0.6-0.1c0.2-0.1,0.1-0.3,0.3-0.5c0.1-0.1,0.3,0,0.4-0.1c0.2-0.1,0.3-0.3,0.4-0.5c0-0.1,0-0.1,0-0.2
					c0-0.1,0.1-0.2,0.1-0.3c0-0.1-0.1-0.1-0.1-0.2c0-0.1,0-0.2,0-0.3c0-0.2,0-0.4-0.1-0.5c-0.4-0.7-1.2-0.9-2-0.8
					c-0.2,0-0.3,0.1-0.4,0.2c-0.2,0.1-0.1,0.2-0.3,0.2c-0.1,0-0.2,0.1-0.2,0.2C31.1-18.1,31.1-18.2,31.1-18.1
					C31.1-18,31.1-18.1,31.1-18.1"/>
				<path class="st2" d="M23.5-18.1c0,0.1,0,0.1,0,0.2c-0.1,0.1-0.1,0.1-0.2,0.1c-0.1,0.1-0.1,0.3-0.1,0.4c-0.2,0.1,0,0.2,0,0.3
					c0,0,0,0.1,0,0.2c0,0.1,0,0.3,0.1,0.4c0.1,0.2,0.3,0.4,0.4,0.5c0.2,0.1,0.4,0.6,0.6,0.6c0.2,0,0.4-0.1,0.5-0.1
					c0.2,0,0.4,0,0.6-0.1c0.2-0.1,0.1-0.3,0.3-0.5c0.1-0.1,0.3,0,0.4-0.1c0.2-0.1,0.3-0.3,0.4-0.5c0-0.1,0-0.1,0-0.2
					c0-0.1,0.1-0.2,0.1-0.3c0-0.1-0.1-0.1-0.1-0.2c0-0.1,0-0.2,0-0.3c0-0.2,0-0.4-0.1-0.5c-0.4-0.7-1.2-0.9-2-0.8
					c-0.2,0-0.3,0.1-0.4,0.2c-0.2,0.1-0.1,0.2-0.3,0.2c-0.1,0-0.2,0.1-0.2,0.2C23.5-18.1,23.5-18.2,23.5-18.1
					C23.5-18,23.5-18.1,23.5-18.1"/>
				<path class="st2" d="M15.8-18.1c0,0.1,0,0.1,0,0.2c-0.1,0.1-0.1,0.1-0.2,0.1c-0.1,0.1-0.1,0.3-0.1,0.4c-0.2,0.1,0,0.2,0,0.3
					c0,0,0,0.1,0,0.2c0,0.1,0,0.3,0.1,0.4c0.1,0.2,0.3,0.4,0.4,0.5c0.2,0.1,0.4,0.6,0.6,0.6c0.2,0,0.4-0.1,0.5-0.1
					c0.2,0,0.4,0,0.6-0.1c0.2-0.1,0.1-0.3,0.3-0.5c0.1-0.1,0.3,0,0.4-0.1c0.2-0.1,0.3-0.3,0.4-0.5c0-0.1,0-0.1,0-0.2
					c0-0.1,0.1-0.2,0.1-0.3c0-0.1-0.1-0.1-0.1-0.2c0-0.1,0-0.2,0-0.3c0-0.2,0-0.4-0.1-0.5c-0.4-0.7-1.2-0.9-2-0.8
					c-0.2,0-0.3,0.1-0.4,0.2c-0.2,0.1-0.1,0.2-0.3,0.2c-0.1,0-0.2,0.1-0.2,0.2C15.8-18.1,15.8-18.2,15.8-18.1
					C15.8-18,15.8-18.1,15.8-18.1"/>
				<path class="st2" d="M8.2-18.1c0,0.1,0,0.1,0,0.2C8.1-17.8,8-17.8,8-17.8c-0.1,0.1-0.1,0.3-0.1,0.4c-0.2,0.1,0,0.2,0,0.3
					c0,0,0,0.1,0,0.2c0,0.1,0,0.3,0.1,0.4C8-16.3,8.2-16.1,8.3-16c0.2,0.1,0.4,0.6,0.6,0.6c0.2,0,0.4-0.1,0.5-0.1
					c0.2,0,0.4,0,0.6-0.1c0.2-0.1,0.1-0.3,0.3-0.5c0.1-0.1,0.3,0,0.4-0.1c0.2-0.1,0.3-0.3,0.4-0.5c0-0.1,0-0.1,0-0.2
					c0-0.1,0.1-0.2,0.1-0.3c0-0.1-0.1-0.1-0.1-0.2c0-0.1,0-0.2,0-0.3c0-0.2,0-0.4-0.1-0.5c-0.4-0.7-1.2-0.9-2-0.8
					c-0.2,0-0.3,0.1-0.4,0.2c-0.2,0.1-0.1,0.2-0.3,0.2c-0.1,0-0.2,0.1-0.2,0.2C8.2-18.1,8.2-18.2,8.2-18.1C8.1-18,8.1-18.1,8.2-18.1
					"/>
				<path class="st2" d="M0.5-18.1c0,0.1,0,0.1,0,0.2c-0.1,0.1-0.1,0.1-0.2,0.1c-0.1,0.1-0.1,0.3-0.1,0.4c-0.2,0.1,0,0.2,0,0.3
					c0,0,0,0.1,0,0.2c0,0.1,0,0.3,0.1,0.4c0.1,0.2,0.3,0.4,0.4,0.5c0.2,0.1,0.4,0.6,0.6,0.6c0.2,0,0.4-0.1,0.5-0.1
					c0.2,0,0.4,0,0.6-0.1c0.2-0.1,0.1-0.3,0.3-0.5C2.8-16.1,3-16,3.1-16c0.2-0.1,0.3-0.3,0.4-0.5c0-0.1,0-0.1,0-0.2
					c0-0.1,0.1-0.2,0.1-0.3c0-0.1-0.1-0.1-0.1-0.2c0-0.1,0-0.2,0-0.3c0-0.2,0-0.4-0.1-0.5c-0.4-0.7-1.2-0.9-2-0.8
					c-0.2,0-0.3,0.1-0.4,0.2c-0.2,0.1-0.1,0.2-0.3,0.2c-0.1,0-0.2,0.1-0.2,0.2C0.5-18.1,0.5-18.2,0.5-18.1C0.5-18,0.5-18.1,0.5-18.1
					"/>
			</g>
			<g>
				<path class="st2" d="M69.4-10.4c0,0.1,0,0.1,0,0.2c-0.1,0.1-0.1,0.1-0.2,0.1c-0.1,0.1-0.1,0.3-0.1,0.4c-0.2,0.1,0,0.2,0,0.3
					c0,0,0,0.1,0,0.2c0,0.1,0,0.3,0.1,0.4c0.1,0.2,0.3,0.4,0.4,0.5c0.2,0.1,0.4,0.6,0.6,0.6c0.2,0,0.4-0.1,0.5-0.1
					c0.2,0,0.4,0,0.6-0.1c0.2-0.1,0.1-0.3,0.3-0.5c0.1-0.1,0.3,0,0.4-0.1c0.2-0.1,0.3-0.3,0.4-0.5c0-0.1,0-0.1,0-0.2
					c0-0.1,0.1-0.2,0.1-0.3c0-0.1-0.1-0.1-0.1-0.2c0-0.1,0-0.2,0-0.3c0-0.2,0-0.4-0.1-0.5c-0.4-0.7-1.2-0.9-2-0.8
					c-0.2,0-0.3,0.1-0.4,0.2c-0.2,0.1-0.1,0.2-0.3,0.2c-0.1,0-0.2,0.1-0.2,0.2C69.4-10.5,69.4-10.5,69.4-10.4
					C69.4-10.4,69.4-10.4,69.4-10.4"/>
				<path class="st2" d="M61.8-10.4c0,0.1,0,0.1,0,0.2c-0.1,0.1-0.1,0.1-0.2,0.1c-0.1,0.1-0.1,0.3-0.1,0.4c-0.2,0.1,0,0.2,0,0.3
					c0,0,0,0.1,0,0.2c0,0.1,0,0.3,0.1,0.4c0.1,0.2,0.3,0.4,0.4,0.5c0.2,0.1,0.4,0.6,0.6,0.6c0.2,0,0.4-0.1,0.5-0.1
					c0.2,0,0.4,0,0.6-0.1C63.9-8,63.8-8.2,64-8.3c0.1-0.1,0.3,0,0.4-0.1c0.2-0.1,0.3-0.3,0.4-0.5c0-0.1,0-0.1,0-0.2
					c0-0.1,0.1-0.2,0.1-0.3c0-0.1-0.1-0.1-0.1-0.2c0-0.1,0-0.2,0-0.3c0-0.2,0-0.4-0.1-0.5c-0.4-0.7-1.2-0.9-2-0.8
					c-0.2,0-0.3,0.1-0.4,0.2c-0.2,0.1-0.1,0.2-0.3,0.2c-0.1,0-0.2,0.1-0.2,0.2C61.8-10.5,61.8-10.5,61.8-10.4
					C61.8-10.4,61.8-10.4,61.8-10.4"/>
				<path class="st2" d="M54.1-10.4c0,0.1,0,0.1,0,0.2c-0.1,0.1-0.1,0.1-0.2,0.1c-0.1,0.1-0.1,0.3-0.1,0.4c-0.2,0.1,0,0.2,0,0.3
					c0,0,0,0.1,0,0.2c0,0.1,0,0.3,0.1,0.4c0.1,0.2,0.3,0.4,0.4,0.5c0.2,0.1,0.4,0.6,0.6,0.6c0.2,0,0.4-0.1,0.5-0.1
					c0.2,0,0.4,0,0.6-0.1c0.2-0.1,0.1-0.3,0.3-0.5c0.1-0.1,0.3,0,0.4-0.1c0.2-0.1,0.3-0.3,0.4-0.5c0-0.1,0-0.1,0-0.2
					c0-0.1,0.1-0.2,0.1-0.3c0-0.1-0.1-0.1-0.1-0.2c0-0.1,0-0.2,0-0.3c0-0.2,0-0.4-0.1-0.5c-0.4-0.7-1.2-0.9-2-0.8
					c-0.2,0-0.3,0.1-0.4,0.2c-0.2,0.1-0.1,0.2-0.3,0.2c-0.1,0-0.2,0.1-0.2,0.2C54.1-10.5,54.1-10.5,54.1-10.4
					C54.1-10.4,54.1-10.4,54.1-10.4"/>
				<path class="st2" d="M46.5-10.4c0,0.1,0,0.1,0,0.2c-0.1,0.1-0.1,0.1-0.2,0.1c-0.1,0.1-0.1,0.3-0.1,0.4c-0.2,0.1,0,0.2,0,0.3
					c0,0,0,0.1,0,0.2c0,0.1,0,0.3,0.1,0.4c0.1,0.2,0.3,0.4,0.4,0.5c0.2,0.1,0.4,0.6,0.6,0.6c0.2,0,0.4-0.1,0.5-0.1
					c0.2,0,0.4,0,0.6-0.1c0.2-0.1,0.1-0.3,0.3-0.5c0.1-0.1,0.3,0,0.4-0.1c0.2-0.1,0.3-0.3,0.4-0.5c0-0.1,0-0.1,0-0.2
					c0-0.1,0.1-0.2,0.1-0.3c0-0.1-0.1-0.1-0.1-0.2c0-0.1,0-0.2,0-0.3c0-0.2,0-0.4-0.1-0.5c-0.4-0.7-1.2-0.9-2-0.8
					c-0.2,0-0.3,0.1-0.4,0.2c-0.2,0.1-0.1,0.2-0.3,0.2c-0.1,0-0.2,0.1-0.2,0.2C46.5-10.5,46.5-10.5,46.5-10.4
					C46.5-10.4,46.5-10.4,46.5-10.4"/>
				<path class="st2" d="M38.8-10.4c0,0.1,0,0.1,0,0.2c-0.1,0.1-0.1,0.1-0.2,0.1c-0.1,0.1-0.1,0.3-0.1,0.4c-0.2,0.1,0,0.2,0,0.3
					c0,0,0,0.1,0,0.2c0,0.1,0,0.3,0.1,0.4c0.1,0.2,0.3,0.4,0.4,0.5c0.2,0.1,0.4,0.6,0.6,0.6c0.2,0,0.4-0.1,0.5-0.1
					c0.2,0,0.4,0,0.6-0.1C40.9-8,40.8-8.2,41-8.3c0.1-0.1,0.3,0,0.4-0.1c0.2-0.1,0.3-0.3,0.4-0.5c0-0.1,0-0.1,0-0.2
					c0-0.1,0.1-0.2,0.1-0.3c0-0.1-0.1-0.1-0.1-0.2c0-0.1,0-0.2,0-0.3c0-0.2,0-0.4-0.1-0.5c-0.4-0.7-1.2-0.9-2-0.8
					c-0.2,0-0.3,0.1-0.4,0.2c-0.2,0.1-0.1,0.2-0.3,0.2c-0.1,0-0.2,0.1-0.2,0.2C38.8-10.5,38.8-10.5,38.8-10.4
					C38.8-10.4,38.8-10.4,38.8-10.4"/>
				<path class="st2" d="M31.1-10.4c0,0.1,0,0.1,0,0.2c-0.1,0.1-0.1,0.1-0.2,0.1c-0.1,0.1-0.1,0.3-0.1,0.4c-0.2,0.1,0,0.2,0,0.3
					c0,0,0,0.1,0,0.2c0,0.1,0,0.3,0.1,0.4c0.1,0.2,0.3,0.4,0.4,0.5c0.2,0.1,0.4,0.6,0.6,0.6c0.2,0,0.4-0.1,0.5-0.1
					c0.2,0,0.4,0,0.6-0.1c0.2-0.1,0.1-0.3,0.3-0.5c0.1-0.1,0.3,0,0.4-0.1c0.2-0.1,0.3-0.3,0.4-0.5c0-0.1,0-0.1,0-0.2
					c0-0.1,0.1-0.2,0.1-0.3c0-0.1-0.1-0.1-0.1-0.2c0-0.1,0-0.2,0-0.3c0-0.2,0-0.4-0.1-0.5c-0.4-0.7-1.2-0.9-2-0.8
					c-0.2,0-0.3,0.1-0.4,0.2c-0.2,0.1-0.1,0.2-0.3,0.2c-0.1,0-0.2,0.1-0.2,0.2C31.1-10.5,31.1-10.5,31.1-10.4
					C31.1-10.4,31.1-10.4,31.1-10.4"/>
				<path class="st2" d="M23.5-10.4c0,0.1,0,0.1,0,0.2c-0.1,0.1-0.1,0.1-0.2,0.1c-0.1,0.1-0.1,0.3-0.1,0.4c-0.2,0.1,0,0.2,0,0.3
					c0,0,0,0.1,0,0.2c0,0.1,0,0.3,0.1,0.4c0.1,0.2,0.3,0.4,0.4,0.5c0.2,0.1,0.4,0.6,0.6,0.6c0.2,0,0.4-0.1,0.5-0.1
					c0.2,0,0.4,0,0.6-0.1c0.2-0.1,0.1-0.3,0.3-0.5c0.1-0.1,0.3,0,0.4-0.1c0.2-0.1,0.3-0.3,0.4-0.5c0-0.1,0-0.1,0-0.2
					c0-0.1,0.1-0.2,0.1-0.3c0-0.1-0.1-0.1-0.1-0.2c0-0.1,0-0.2,0-0.3c0-0.2,0-0.4-0.1-0.5c-0.4-0.7-1.2-0.9-2-0.8
					c-0.2,0-0.3,0.1-0.4,0.2c-0.2,0.1-0.1,0.2-0.3,0.2c-0.1,0-0.2,0.1-0.2,0.2C23.5-10.5,23.5-10.5,23.5-10.4
					C23.5-10.4,23.5-10.4,23.5-10.4"/>
				<path class="st2" d="M15.8-10.4c0,0.1,0,0.1,0,0.2c-0.1,0.1-0.1,0.1-0.2,0.1c-0.1,0.1-0.1,0.3-0.1,0.4c-0.2,0.1,0,0.2,0,0.3
					c0,0,0,0.1,0,0.2c0,0.1,0,0.3,0.1,0.4c0.1,0.2,0.3,0.4,0.4,0.5c0.2,0.1,0.4,0.6,0.6,0.6c0.2,0,0.4-0.1,0.5-0.1
					c0.2,0,0.4,0,0.6-0.1C17.9-8,17.8-8.2,18-8.3c0.1-0.1,0.3,0,0.4-0.1c0.2-0.1,0.3-0.3,0.4-0.5c0-0.1,0-0.1,0-0.2
					c0-0.1,0.1-0.2,0.1-0.3c0-0.1-0.1-0.1-0.1-0.2c0-0.1,0-0.2,0-0.3c0-0.2,0-0.4-0.1-0.5c-0.4-0.7-1.2-0.9-2-0.8
					c-0.2,0-0.3,0.1-0.4,0.2c-0.2,0.1-0.1,0.2-0.3,0.2c-0.1,0-0.2,0.1-0.2,0.2C15.8-10.5,15.8-10.5,15.8-10.4
					C15.8-10.4,15.8-10.4,15.8-10.4"/>
				<path class="st2" d="M8.2-10.4c0,0.1,0,0.1,0,0.2C8.1-10.1,8-10.2,8-10.1C7.9-10,7.9-9.8,7.9-9.8c-0.2,0.1,0,0.2,0,0.3
					c0,0,0,0.1,0,0.2c0,0.1,0,0.3,0.1,0.4C8-8.7,8.2-8.5,8.3-8.3c0.2,0.1,0.4,0.6,0.6,0.6c0.2,0,0.4-0.1,0.5-0.1
					c0.2,0,0.4,0,0.6-0.1c0.2-0.1,0.1-0.3,0.3-0.5c0.1-0.1,0.3,0,0.4-0.1c0.2-0.1,0.3-0.3,0.4-0.5c0-0.1,0-0.1,0-0.2
					c0-0.1,0.1-0.2,0.1-0.3c0-0.1-0.1-0.1-0.1-0.2c0-0.1,0-0.2,0-0.3c0-0.2,0-0.4-0.1-0.5c-0.4-0.7-1.2-0.9-2-0.8
					c-0.2,0-0.3,0.1-0.4,0.2c-0.2,0.1-0.1,0.2-0.3,0.2c-0.1,0-0.2,0.1-0.2,0.2C8.2-10.5,8.2-10.5,8.2-10.4
					C8.1-10.4,8.1-10.4,8.2-10.4"/>
				<path class="st2" d="M0.5-10.4c0,0.1,0,0.1,0,0.2c-0.1,0.1-0.1,0.1-0.2,0.1C0.3-10,0.2-9.8,0.2-9.8c-0.2,0.1,0,0.2,0,0.3
					c0,0,0,0.1,0,0.2c0,0.1,0,0.3,0.1,0.4c0.1,0.2,0.3,0.4,0.4,0.5C0.9-8.2,1-7.8,1.3-7.7c0.2,0,0.4-0.1,0.5-0.1
					c0.2,0,0.4,0,0.6-0.1C2.6-8,2.5-8.2,2.7-8.3c0.1-0.1,0.3,0,0.4-0.1c0.2-0.1,0.3-0.3,0.4-0.5c0-0.1,0-0.1,0-0.2
					c0-0.1,0.1-0.2,0.1-0.3c0-0.1-0.1-0.1-0.1-0.2c0-0.1,0-0.2,0-0.3c0-0.2,0-0.4-0.1-0.5c-0.4-0.7-1.2-0.9-2-0.8
					c-0.2,0-0.3,0.1-0.4,0.2c-0.2,0.1-0.1,0.2-0.3,0.2c-0.1,0-0.2,0.1-0.2,0.2C0.5-10.5,0.5-10.5,0.5-10.4
					C0.5-10.4,0.5-10.4,0.5-10.4"/>
			</g>
		</g>
		<g>
			<path class="st2" d="M69.4-2.8c0,0.1,0,0.1,0,0.2c-0.1,0.1-0.1,0.1-0.2,0.1c-0.1,0.1-0.1,0.3-0.1,0.4c-0.2,0.1,0,0.2,0,0.3
				c0,0,0,0.1,0,0.2c0,0.1,0,0.3,0.1,0.4c0.1,0.2,0.3,0.4,0.4,0.5C69.8-0.5,70-0.1,70.2,0c0.2,0,0.4-0.1,0.5-0.1
				c0.2,0,0.4,0,0.6-0.1c0.2-0.1,0.1-0.3,0.3-0.5c0.1-0.1,0.3,0,0.4-0.1c0.2-0.1,0.3-0.3,0.4-0.5c0-0.1,0-0.1,0-0.2
				c0-0.1,0.1-0.2,0.1-0.3c0-0.1-0.1-0.1-0.1-0.2c0-0.1,0-0.2,0-0.3c0-0.2,0-0.4-0.1-0.5c-0.4-0.7-1.2-0.9-2-0.8
				c-0.2,0-0.3,0.1-0.4,0.2c-0.2,0.1-0.1,0.2-0.3,0.2c-0.1,0-0.2,0.1-0.2,0.2C69.4-2.8,69.4-2.9,69.4-2.8
				C69.4-2.7,69.4-2.8,69.4-2.8"/>
			<path class="st2" d="M61.8-2.8c0,0.1,0,0.1,0,0.2c-0.1,0.1-0.1,0.1-0.2,0.1c-0.1,0.1-0.1,0.3-0.1,0.4c-0.2,0.1,0,0.2,0,0.3
				c0,0,0,0.1,0,0.2c0,0.1,0,0.3,0.1,0.4C61.6-1,61.8-0.8,62-0.7c0.2,0.1,0.4,0.6,0.6,0.6c0.2,0,0.4-0.1,0.5-0.1
				c0.2,0,0.4,0,0.6-0.1c0.2-0.1,0.1-0.3,0.3-0.5c0.1-0.1,0.3,0,0.4-0.1c0.2-0.1,0.3-0.3,0.4-0.5c0-0.1,0-0.1,0-0.2
				c0-0.1,0.1-0.2,0.1-0.3c0-0.1-0.1-0.1-0.1-0.2c0-0.1,0-0.2,0-0.3c0-0.2,0-0.4-0.1-0.5c-0.4-0.7-1.2-0.9-2-0.8
				c-0.2,0-0.3,0.1-0.4,0.2c-0.2,0.1-0.1,0.2-0.3,0.2c-0.1,0-0.2,0.1-0.2,0.2C61.8-2.8,61.8-2.9,61.8-2.8
				C61.8-2.7,61.8-2.8,61.8-2.8"/>
			<path class="st2" d="M54.1-2.8c0,0.1,0,0.1,0,0.2C54-2.5,54-2.5,53.9-2.5c-0.1,0.1-0.1,0.3-0.1,0.4c-0.2,0.1,0,0.2,0,0.3
				c0,0,0,0.1,0,0.2c0,0.1,0,0.3,0.1,0.4C54-1,54.1-0.8,54.3-0.7c0.2,0.1,0.4,0.6,0.6,0.6c0.2,0,0.4-0.1,0.5-0.1
				c0.2,0,0.4,0,0.6-0.1c0.2-0.1,0.1-0.3,0.3-0.5c0.1-0.1,0.3,0,0.4-0.1C56.9-0.8,57-1,57.1-1.2c0-0.1,0-0.1,0-0.2
				c0-0.1,0.1-0.2,0.1-0.3c0-0.1-0.1-0.1-0.1-0.2c0-0.1,0-0.2,0-0.3c0-0.2,0-0.4-0.1-0.5c-0.4-0.7-1.2-0.9-2-0.8
				c-0.2,0-0.3,0.1-0.4,0.2c-0.2,0.1-0.1,0.2-0.3,0.2c-0.1,0-0.2,0.1-0.2,0.2C54.1-2.8,54.1-2.9,54.1-2.8
				C54.1-2.7,54.1-2.8,54.1-2.8"/>
			<path class="st2" d="M46.5-2.8c0,0.1,0,0.1,0,0.2c-0.1,0.1-0.1,0.1-0.2,0.1c-0.1,0.1-0.1,0.3-0.1,0.4c-0.2,0.1,0,0.2,0,0.3
				c0,0,0,0.1,0,0.2c0,0.1,0,0.3,0.1,0.4c0.1,0.2,0.3,0.4,0.4,0.5C46.8-0.5,47-0.1,47.2,0c0.2,0,0.4-0.1,0.5-0.1
				c0.2,0,0.4,0,0.6-0.1c0.2-0.1,0.1-0.3,0.3-0.5c0.1-0.1,0.3,0,0.4-0.1c0.2-0.1,0.3-0.3,0.4-0.5c0-0.1,0-0.1,0-0.2
				c0-0.1,0.1-0.2,0.1-0.3c0-0.1-0.1-0.1-0.1-0.2c0-0.1,0-0.2,0-0.3c0-0.2,0-0.4-0.1-0.5c-0.4-0.7-1.2-0.9-2-0.8
				c-0.2,0-0.3,0.1-0.4,0.2c-0.2,0.1-0.1,0.2-0.3,0.2c-0.1,0-0.2,0.1-0.2,0.2C46.5-2.8,46.5-2.9,46.5-2.8
				C46.5-2.7,46.5-2.8,46.5-2.8"/>
			<path class="st2" d="M38.8-2.8c0,0.1,0,0.1,0,0.2c-0.1,0.1-0.1,0.1-0.2,0.1c-0.1,0.1-0.1,0.3-0.1,0.4c-0.2,0.1,0,0.2,0,0.3
				c0,0,0,0.1,0,0.2c0,0.1,0,0.3,0.1,0.4C38.6-1,38.8-0.8,39-0.7c0.2,0.1,0.4,0.6,0.6,0.6c0.2,0,0.4-0.1,0.5-0.1
				c0.2,0,0.4,0,0.6-0.1c0.2-0.1,0.1-0.3,0.3-0.5c0.1-0.1,0.3,0,0.4-0.1c0.2-0.1,0.3-0.3,0.4-0.5c0-0.1,0-0.1,0-0.2
				c0-0.1,0.1-0.2,0.1-0.3c0-0.1-0.1-0.1-0.1-0.2c0-0.1,0-0.2,0-0.3c0-0.2,0-0.4-0.1-0.5c-0.4-0.7-1.2-0.9-2-0.8
				c-0.2,0-0.3,0.1-0.4,0.2c-0.2,0.1-0.1,0.2-0.3,0.2c-0.1,0-0.2,0.1-0.2,0.2C38.8-2.8,38.8-2.9,38.8-2.8
				C38.8-2.7,38.8-2.8,38.8-2.8"/>
			<path class="st2" d="M31.1-2.8c0,0.1,0,0.1,0,0.2c-0.1,0.1-0.1,0.1-0.2,0.1c-0.1,0.1-0.1,0.3-0.1,0.4c-0.2,0.1,0,0.2,0,0.3
				c0,0,0,0.1,0,0.2c0,0.1,0,0.3,0.1,0.4C31-1,31.1-0.8,31.3-0.7c0.2,0.1,0.4,0.6,0.6,0.6c0.2,0,0.4-0.1,0.5-0.1
				c0.2,0,0.4,0,0.6-0.1c0.2-0.1,0.1-0.3,0.3-0.5c0.1-0.1,0.3,0,0.4-0.1c0.2-0.1,0.3-0.3,0.4-0.5c0-0.1,0-0.1,0-0.2
				c0-0.1,0.1-0.2,0.1-0.3c0-0.1-0.1-0.1-0.1-0.2c0-0.1,0-0.2,0-0.3c0-0.2,0-0.4-0.1-0.5c-0.4-0.7-1.2-0.9-2-0.8
				c-0.2,0-0.3,0.1-0.4,0.2c-0.2,0.1-0.1,0.2-0.3,0.2c-0.1,0-0.2,0.1-0.2,0.2C31.1-2.8,31.1-2.9,31.1-2.8
				C31.1-2.7,31.1-2.8,31.1-2.8"/>
			<path class="st2" d="M23.5-2.8c0,0.1,0,0.1,0,0.2c-0.1,0.1-0.1,0.1-0.2,0.1c-0.1,0.1-0.1,0.3-0.1,0.4c-0.2,0.1,0,0.2,0,0.3
				c0,0,0,0.1,0,0.2c0,0.1,0,0.3,0.1,0.4c0.1,0.2,0.3,0.4,0.4,0.5C23.8-0.5,24-0.1,24.3,0c0.2,0,0.4-0.1,0.5-0.1
				c0.2,0,0.4,0,0.6-0.1c0.2-0.1,0.1-0.3,0.3-0.5c0.1-0.1,0.3,0,0.4-0.1c0.2-0.1,0.3-0.3,0.4-0.5c0-0.1,0-0.1,0-0.2
				c0-0.1,0.1-0.2,0.1-0.3c0-0.1-0.1-0.1-0.1-0.2c0-0.1,0-0.2,0-0.3c0-0.2,0-0.4-0.1-0.5c-0.4-0.7-1.2-0.9-2-0.8
				c-0.2,0-0.3,0.1-0.4,0.2c-0.2,0.1-0.1,0.2-0.3,0.2c-0.1,0-0.2,0.1-0.2,0.2C23.5-2.8,23.5-2.9,23.5-2.8
				C23.5-2.7,23.5-2.8,23.5-2.8"/>
			<path class="st2" d="M15.8-2.8c0,0.1,0,0.1,0,0.2c-0.1,0.1-0.1,0.1-0.2,0.1c-0.1,0.1-0.1,0.3-0.1,0.4c-0.2,0.1,0,0.2,0,0.3
				c0,0,0,0.1,0,0.2c0,0.1,0,0.3,0.1,0.4C15.7-1,15.8-0.8,16-0.7c0.2,0.1,0.4,0.6,0.6,0.6c0.2,0,0.4-0.1,0.5-0.1
				c0.2,0,0.4,0,0.6-0.1c0.2-0.1,0.1-0.3,0.3-0.5c0.1-0.1,0.3,0,0.4-0.1c0.2-0.1,0.3-0.3,0.4-0.5c0-0.1,0-0.1,0-0.2
				c0-0.1,0.1-0.2,0.1-0.3c0-0.1-0.1-0.1-0.1-0.2c0-0.1,0-0.2,0-0.3c0-0.2,0-0.4-0.1-0.5c-0.4-0.7-1.2-0.9-2-0.8
				c-0.2,0-0.3,0.1-0.4,0.2c-0.2,0.1-0.1,0.2-0.3,0.2c-0.1,0-0.2,0.1-0.2,0.2C15.8-2.8,15.8-2.9,15.8-2.8
				C15.8-2.7,15.8-2.8,15.8-2.8"/>
			<path class="st2" d="M8.2-2.8c0,0.1,0,0.1,0,0.2C8.1-2.5,8-2.5,8-2.5C7.9-2.4,7.9-2.2,7.9-2.1c-0.2,0.1,0,0.2,0,0.3
				c0,0,0,0.1,0,0.2c0,0.1,0,0.3,0.1,0.4C8-1,8.2-0.8,8.3-0.7C8.5-0.5,8.7-0.1,8.9,0c0.2,0,0.4-0.1,0.5-0.1c0.2,0,0.4,0,0.6-0.1
				c0.2-0.1,0.1-0.3,0.3-0.5c0.1-0.1,0.3,0,0.4-0.1c0.2-0.1,0.3-0.3,0.4-0.5c0-0.1,0-0.1,0-0.2c0-0.1,0.1-0.2,0.1-0.3
				c0-0.1-0.1-0.1-0.1-0.2c0-0.1,0-0.2,0-0.3c0-0.2,0-0.4-0.1-0.5c-0.4-0.7-1.2-0.9-2-0.8C9-3.5,8.8-3.4,8.7-3.4
				C8.5-3.3,8.6-3.2,8.4-3.1C8.3-3.1,8.2-3,8.2-2.9C8.2-2.8,8.2-2.9,8.2-2.8C8.1-2.7,8.1-2.8,8.2-2.8"/>
			<path class="st2" d="M0.5-2.8c0,0.1,0,0.1,0,0.2C0.4-2.5,0.4-2.5,0.3-2.5C0.3-2.4,0.2-2.2,0.2-2.1c-0.2,0.1,0,0.2,0,0.3
				c0,0,0,0.1,0,0.2c0,0.1,0,0.3,0.1,0.4C0.3-1,0.5-0.8,0.7-0.7C0.9-0.5,1-0.1,1.3,0c0.2,0,0.4-0.1,0.5-0.1c0.2,0,0.4,0,0.6-0.1
				c0.2-0.1,0.1-0.3,0.3-0.5c0.1-0.1,0.3,0,0.4-0.1C3.3-0.8,3.4-1,3.5-1.2c0-0.1,0-0.1,0-0.2c0-0.1,0.1-0.2,0.1-0.3
				c0-0.1-0.1-0.1-0.1-0.2c0-0.1,0-0.2,0-0.3c0-0.2,0-0.4-0.1-0.5c-0.4-0.7-1.2-0.9-2-0.8C1.3-3.5,1.2-3.4,1-3.4
				C0.9-3.3,0.9-3.2,0.7-3.1C0.6-3.1,0.5-3,0.5-2.9C0.5-2.8,0.5-2.9,0.5-2.8C0.5-2.7,0.5-2.8,0.5-2.8"/>
		</g>
	</g>
</pattern>
<polygon class="st3" points="433.3,694.4 436.7,688.9 436.6,695.3 442.4,692.5 438.8,697.9 445.2,698.7 439.2,701.2 444.2,705.3 
	437.8,704.3 439.8,710.4 435,706.1 433.3,712.3 431.6,706.1 426.9,710.4 428.8,704.3 422.5,705.3 427.4,701.2 421.5,698.7 
	427.9,697.9 424.3,692.5 430.1,695.3 430,688.9 "/>
<polygon class="st3" points="300.6,663 301.7,660.6 301.7,663.4 303.7,662.2 302.5,664.5 304.7,664.9 302.6,666 304.3,667.8 
	302.1,667.3 302.8,670 301.2,668.1 300.6,670.8 300,668.1 298.4,670 299,667.3 296.8,667.8 298.5,666 296.5,664.9 298.7,664.5 
	297.5,662.2 299.5,663.4 299.4,660.6 "/>
<polygon class="st3" points="421.8,675.3 423,672.9 422.9,675.7 424.9,674.5 423.7,676.8 425.9,677.1 423.9,678.2 425.6,680 
	423.4,679.6 424.1,682.2 422.4,680.4 421.8,683.1 421.3,680.4 419.6,682.2 420.3,679.6 418.1,680 419.8,678.2 417.8,677.1 
	420,676.8 418.7,674.5 420.7,675.7 420.7,672.9 "/>
<path class="st4" d="M528,631c0,6.6-5.4,12-12,12H54c-6.6,0-12-5.4-12-12v-27c0-6.6,5.4-12,12-12h462c6.6,0,12,5.4,12,12V631z"/>
<rect x="-18.5" y="495" class="st3" width="293.5" height="58"/>
<rect x="281.5" y="495" class="st3" width="293.5" height="58"/>
<polygon class="st3" points="164.5,215.6 121.1,192.6 164.5,169.7 "/>
<polygon class="st3" points="122,688.8 93.1,673.5 122,658.2 "/>
<polygon class="st3" points="250.5,688.8 221.6,673.5 250.5,658.2 "/>
<polygon class="st3" points="367.5,688.8 338.6,673.5 367.5,658.2 "/>
<polygon class="st3" points="489,688.8 460.1,673.5 489,658.2 "/>
<rect x="-7.5" y="131.5" class="st3" width="555.5" height="27.5"/>
<path class="st3" d="M147.3,116.8c0,6.6-5.4,12-12,12h-6.7c-6.6,0-12-5.4-12-12v-54c0-6.6,5.4-12,12-12h6.7c6.6,0,12,5.4,12,12
	V116.8z"/>
<path class="st3" d="M203.2,116.8c0,6.6-5.4,12-12,12h-6.7c-6.6,0-12-5.4-12-12v-54c0-6.6,5.4-12,12-12h6.7c6.6,0,12,5.4,12,12
	V116.8z"/>
<path class="st3" d="M382.8,116.8c0,6.6-5.4,12-12,12h-6.7c-6.6,0-12-5.4-12-12v-54c0-6.6,5.4-12,12-12h6.7c6.6,0,12,5.4,12,12
	V116.8z"/>
<path class="st3" d="M442.5,116.8c0,6.6-5.4,12-12,12h-6.7c-6.6,0-12-5.4-12-12v-54c0-6.6,5.4-12,12-12h6.7c6.6,0,12,5.4,12,12
	V116.8z"/>
<text transform="matrix(1 0 0 1 428.2051 702.5254)" class="st5 st6">d6</text>
<text transform="matrix(1 0 0 1 300.9551 702.5254)" class="st5 st6">m6</text>
<text transform="matrix(1 0 0 1 180.2051 702.5254)" class="st5 st6">M6</text>
<g>
	<g>
		<g>
			<path d="M31.2,626.7c-0.1-0.8-0.2-1.5-0.3-2.3c-0.1-0.4-0.1-0.8-0.3-1.4c-0.1-0.6-0.3-1.2-0.5-1.8c-0.2-0.6-0.5-1.3-0.7-1.9
				c-0.3-0.6-0.6-1.2-0.9-1.7c-0.7-1.2-1.4-2.3-2.2-3.3c-0.7-1-1.4-1.9-2-2.8c-0.5-0.8-1-1.7-1.5-2.6c-0.4-1-0.7-2-0.7-2.9h0v0h-1.6
				v31.2c-0.4-0.3-0.9-0.6-1.4-0.9c-0.9-0.4-1.9-0.6-3-0.6c-1.1,0-2.3,0.2-3.4,0.5c-1.1,0.3-2.1,0.8-3.1,1.4c-1,0.6-1.8,1.3-2.5,2.2
				c-0.7,0.8-1.3,1.7-1.6,2.7c-0.4,1-0.5,1.9-0.4,2.7c0.1,0.8,0.4,1.6,0.9,2.2c0.5,0.6,1.2,1.2,2,1.5c0.8,0.4,1.8,0.6,3,0.6
				c1.1,0,2.2-0.2,3.3-0.5c1.1-0.3,2.2-0.8,3.1-1.4c1-0.6,1.8-1.4,2.6-2.2c0.8-0.8,1.3-1.7,1.7-2.7c0.3-0.9,0.5-1.8,0.4-2.6v-24.3h0
				c0.3,0,0.7,0.1,1.1,0.2c0.3,0.1,0.7,0.2,1.1,0.4c0.4,0.2,0.8,0.4,1.2,0.7c0.6,0.4,1.3,1,2.1,2c0.8,1,1.5,2.3,2,4
				c0.3,0.9,0.6,1.9,0.7,3c0.1,1.1,0.2,2.1,0.2,2.9c0,1-0.1,2.1-0.2,3.3c-0.2,1.2-0.4,2.2-0.8,3.1l0.4,0.1c0.7-1.9,1.1-4.1,1.2-6.3
				C31.3,628.1,31.3,627.4,31.2,626.7z"/>
		</g>
	</g>
	<path class="st7" d="M11,636.3c0,1.2-1,2.2-2.2,2.2c-1.2,0-2.2-1-2.2-2.2c0-1.2,1-2.2,2.2-2.2C10,634.1,11,635.1,11,636.3z"/>
	<path class="st7" d="M15.2,635.9c0,1.2-1,2.2-2.2,2.2c-1.2,0-2.2-1-2.2-2.2c0-1.2,1-2.2,2.2-2.2C14.2,633.7,15.2,634.7,15.2,635.9z
		"/>
	<path d="M9.4,636.3c0,0.4-0.3,0.7-0.7,0.7c-0.4,0-0.7-0.3-0.7-0.7s0.3-0.7,0.7-0.7C9,635.6,9.4,635.9,9.4,636.3z"/>
	<path d="M13.7,636.1c0,0.4-0.3,0.7-0.7,0.7c-0.4,0-0.7-0.3-0.7-0.7c0-0.4,0.3-0.7,0.7-0.7C13.4,635.4,13.7,635.7,13.7,636.1z"/>
	<path class="st8" d="M7.2,643.8c2,0,14-2,11.4,0.4c-2.6,2.4-4.6,2.8-5.4,1.7"/>
</g>
<text transform="matrix(1 0 0 1 304.063 21.2256)"><tspan x="0" y="0" class="st9 st10">Ns falamos sobre </tspan><tspan x="83.9" y="0" class="st11 st10">unssonos, quartas, quintas</tspan><tspan x="0" y="10.2" class="st9 st10">e </tspan><tspan x="7.3" y="10.2" class="st11 st10">oitavas,</tspan><tspan x="50.2" y="10.2" class="st9 st10"> mas e os outros? Esses outros</tspan><tspan x="0" y="20.4" class="st9 st10">intervalos so de alguma maneira </tspan><tspan x="145.4" y="20.4" class="st11 st10">injustas?</tspan></text>
<text transform="matrix(1 0 0 1 28.147 142.2256)"><tspan x="0" y="0" class="st9 st12">Bem, sim, mas no porque eles so, de alguma maneira, </tspan><tspan x="269.7" y="0" class="st11 st12">inferiores</tspan><tspan x="335.4" y="0" class="st9 st12"> do que intervalos justos...</tspan><tspan x="-7.6" y="12" class="st11 st12">Segundas, teras, sextas</tspan><tspan x="160.2" y="12" class="st9 st12"> e </tspan><tspan x="171.4" y="12" class="st11 st12">stimas</tspan><tspan x="221.7" y="12" class="st9 st12"> apenas funcionam de maneira um pouco </tspan><tspan x="415.3" y="12" class="st11 st12">diferente!</tspan></text>
<text transform="matrix(1 0 0 1 117.7031 176.2256)"><tspan x="0" y="0" class="st9 st13">Por um motivo, a </tspan><tspan x="72.1" y="0" class="st11 st13">inflexo</tspan><tspan x="121" y="0" class="st9 st13"> para esses intervalos nunca  </tspan><tspan x="262.4" y="0" class="st11 st13">justa;</tspan><tspan x="297.6" y="0" class="st9 st13"> Ser sempre </tspan><tspan x="358.6" y="0" class="st11 st13">maior</tspan><tspan x="389.7" y="0" class="st9 st13"> ou</tspan><tspan x="0" y="10.8" class="st11 st13">menor.</tspan><tspan x="38.3" y="10.8" class="st9 st13"> Intervalos menores tem sempre um semitom a menos do que um intervalo maior.</tspan><tspan x="0" y="21.6" class="st9 st13">Como intervalos justos que podem ser </tspan><tspan x="177.6" y="21.6" class="st11 st13">aumentados</tspan><tspan x="246.9" y="21.6" class="st9 st13"> ou </tspan><tspan x="262" y="21.6" class="st11 st13">diminutos;</tspan><tspan x="318.4" y="21.6" class="st9 st13"> Intervalos</tspan><tspan x="0" y="32.4" class="st9 st13">aumentados tem um semitom a mais do que um maior, e intervalos diminutos tem um semitom</tspan><tspan x="0" y="43.2" class="st9 st13">a menos do que o menor.</tspan></text>
<text transform="matrix(1 0 0 1 5.2725 40.1572)" class="st14 st15">Intervalos Imperfeitos</text>
<g>
	<text transform="matrix(1 0 0 1 19.9766 83.0317)" class="st16 st17">&amp;</text>
	<path class="st18" d="M12.6,61h517.6 M12.6,68.3h517.6 M12.6,75.7h517.6 M12.6,83h517.6 M12.6,90.4h517.6 M71.7,96.5V72 M61,97.7
		h13.2"/>
	<text transform="matrix(1 0 0 1 62.8545 97.7544)" class="st16 st17"></text>
	<line class="st18" x1="131.7" y1="92.8" x2="131.7" y2="68.3"/>
	<text transform="matrix(1 0 0 1 122.874 94.0679)" class="st16 st17"></text>
	<line class="st18" x1="191.7" y1="89.2" x2="191.7" y2="64.7"/>
	<text transform="matrix(1 0 0 1 182.9053 90.3931)" class="st16 st17"></text>
	<line class="st18" x1="251.5" y1="85.5" x2="251.5" y2="61"/>
	<text transform="matrix(1 0 0 1 242.623 86.7183)" class="st16 st17"></text>
	<line class="st18" x1="311.5" y1="81.8" x2="311.5" y2="57.3"/>
	<text transform="matrix(1 0 0 1 302.6436 83.0317)" class="st16 st17"></text>
	<line class="st18" x1="371.5" y1="78.1" x2="371.5" y2="53.6"/>
	<text transform="matrix(1 0 0 1 362.6523 79.3794)" class="st16 st17"></text>
	<line class="st18" x1="431.5" y1="74.5" x2="431.5" y2="50"/>
	<text transform="matrix(1 0 0 1 422.6943 75.6929)" class="st16 st17"></text>
	<line class="st18" x1="491.3" y1="70.8" x2="491.3" y2="53.6"/>
	<text transform="matrix(1 0 0 1 482.4121 72.0181)" class="st16 st17"></text>
	<path class="st18" d="M63.4,99v17.2 M61,97.7h13.2"/>
	<text transform="matrix(1 0 0 1 62.8545 97.7544)" class="st16 st17"></text>
	<path class="st18" d="M131.7,99v17.2 M129.3,97.7h13.2"/>
	<text transform="matrix(1 0 0 1 131.1426 97.7544)" class="st16 st17"></text>
	<path class="st18" d="M183.4,99v17.2 M181.1,97.7h13.2"/>
	<text transform="matrix(1 0 0 1 182.9053 97.7544)" class="st16 st17"></text>
	<path class="st18" d="M243.2,99v17.2 M240.8,97.7H254"/>
	<text transform="matrix(1 0 0 1 242.623 97.7544)" class="st16 st17"></text>
	<path class="st18" d="M303.2,99v17.2 M300.8,97.7H314"/>
	<text transform="matrix(1 0 0 1 302.6436 97.7544)" class="st16 st17"></text>
	<path class="st18" d="M363.2,99v17.2 M360.8,97.7H374"/>
	<text transform="matrix(1 0 0 1 362.6523 97.7544)" class="st16 st17"></text>
	<path class="st18" d="M423.2,99v17.2 M420.9,97.7H434"/>
	<text transform="matrix(1 0 0 1 422.6943 97.7544)" class="st16 st17"></text>
	<path class="st18" d="M482.9,99v17.2 M480.6,97.7h13.2"/>
	<text transform="matrix(1 0 0 1 482.4121 97.7544)" class="st16 st17"></text>
</g>
<text transform="matrix(1 0 0 1 24.5566 292.002)" class="st19 st20">M</text>
<text transform="matrix(1 0 0 1 21.4961 359.3359)" class="st19 st20">m</text>
<text transform="matrix(1 0 0 1 26.7163 216.168)" class="st19 st20">A</text>
<polygon class="st3" points="31.8,234.3 54.8,218 77.8,234.3 "/>
<polygon class="st3" points="31.8,299.5 54.8,315.8 77.8,299.5 "/>
<rect x="28.7" y="261.3" class="st21" width="58.2" height="11"/>
<text transform="matrix(1 0 0 1 34.4526 269.334)" class="st22 st23 st24">maior</text>
<rect x="9.7" y="189.7" class="st25" width="96.3" height="11"/>
<text transform="matrix(1 0 0 1 11.665 197.667)" class="st22 st23 st24">aumentado</text>
<rect x="29.7" y="335.3" class="st26" width="56.3" height="11"/>
<text transform="matrix(1 0 0 1 32.1548 343.334)" class="st22 st23 st24">menor</text>
<text transform="matrix(1 0 0 1 33.4121 439.3359)" class="st19 st20">d</text>
<polygon class="st3" points="31.8,370.5 54.8,386.8 77.8,370.5 "/>
<rect x="9.7" y="409.8" class="st25" width="96.3" height="11"/>
<text transform="matrix(1 0 0 1 20.7729 417.834)" class="st22 st23 st24">diminuto</text>
<path class="st3" d="M530.5,443.5c0,6.6-5.4,12-12,12h-390c-6.6,0-12-5.4-12-12V244c0-6.6,5.4-12,12-12h390c6.6,0,12,5.4,12,12
	V443.5z"/>
<g>
	<text transform="matrix(1 0 0 1 151.6226 301.6045)" class="st16 st27">&amp;</text>
	<path class="st28" d="M146.5,286.2h359.8 M146.5,291.4h359.8 M146.5,296.5h359.8 M146.5,301.6h359.8 M146.5,306.7h359.8 M179.1,311
		v-17.1 M171.7,311.9h9.2"/>
	<text transform="matrix(1 0 0 1 172.9741 311.8701)" class="st16 st27"></text>
	<line class="st28" x1="220.8" y1="308.4" x2="220.8" y2="291.4"/>
	<text transform="matrix(1 0 0 1 214.6147 309.2998)" class="st16 st27"></text>
	<line class="st28" x1="262.4" y1="305.9" x2="262.4" y2="288.8"/>
	<text transform="matrix(1 0 0 1 256.2554 306.7373)" class="st16 st27"></text>
	<line class="st28" x1="304.1" y1="303.3" x2="304.1" y2="286.2"/>
	<text transform="matrix(1 0 0 1 297.896 304.1748)" class="st16 st27"></text>
	<line class="st28" x1="345.9" y1="300.8" x2="345.9" y2="283.7"/>
	<text transform="matrix(1 0 0 1 339.7554 301.6045)" class="st16 st27"></text>
	<line class="st28" x1="387.6" y1="298.2" x2="387.6" y2="281.1"/>
	<text transform="matrix(1 0 0 1 381.396 299.0576)" class="st16 st27"></text>
	<line class="st28" x1="429.2" y1="295.6" x2="429.2" y2="278.6"/>
	<text transform="matrix(1 0 0 1 423.0366 296.4873)" class="st16 st27"></text>
	<line class="st28" x1="470.8" y1="293.1" x2="470.8" y2="281.1"/>
	<text transform="matrix(1 0 0 1 464.6772 293.9248)" class="st16 st27"></text>
	<path class="st28" d="M173.4,312.7v12 M171.7,311.9h9.2"/>
	<text transform="matrix(1 0 0 1 172.9741 311.8701)" class="st16 st27"></text>
	<path class="st28" d="M220.8,312.7v12 M219.1,311.9h9.2"/>
	<text transform="matrix(1 0 0 1 220.3804 311.8701)" class="st16 st27"></text>
	<path class="st28" d="M256.6,312.7v12 M255,311.9h9.2"/>
	<text transform="matrix(1 0 0 1 256.2554 311.8701)" class="st16 st27"></text>
	<path class="st28" d="M298.3,312.7v12 M296.6,311.9h9.2"/>
	<text transform="matrix(1 0 0 1 297.896 311.8701)" class="st16 st27"></text>
	<path class="st28" d="M340.1,312.7v12 M338.5,311.9h9.2"/>
	<text transform="matrix(1 0 0 1 339.7554 311.8701)" class="st16 st27"></text>
	<path class="st28" d="M381.8,312.7v12 M380.1,311.9h9.2"/>
	<text transform="matrix(1 0 0 1 381.396 311.8701)" class="st16 st27"></text>
	<path class="st28" d="M423.4,312.7v12 M421.8,311.9h9.2"/>
	<text transform="matrix(1 0 0 1 423.0366 311.8701)" class="st16 st27"></text>
	<path class="st28" d="M465.1,312.7v12 M463.4,311.9h9.2"/>
	<text transform="matrix(1 0 0 1 464.6772 311.8701)" class="st16 st27"></text>
</g>
<g>
	<text transform="matrix(1 0 0 1 151.6226 402.0732)" class="st16 st27">&amp;</text>
	<path class="st28" d="M146.5,386.7h359.8 M146.5,391.8h359.8 M146.5,397h359.8 M146.5,402.1h359.8 M146.5,407.2h359.8 M177.9,393.5
		v-12"/>
	<text transform="matrix(1 0 0 1 171.6929 394.3936)" class="st16 st27"></text>
	<line class="st28" x1="219.7" y1="393.5" x2="219.7" y2="381.6"/>
	<text transform="matrix(1 0 0 1 213.5444 394.3936)" class="st16 st27"></text>
	<line class="st28" x1="261.6" y1="393.5" x2="261.6" y2="381.6"/>
	<text transform="matrix(1 0 0 1 255.4038 394.3936)" class="st16 st27"></text>
	<line class="st28" x1="303.4" y1="393.5" x2="303.4" y2="381.6"/>
	<text transform="matrix(1 0 0 1 297.2554 394.3936)" class="st16 st27"></text>
	<line class="st28" x1="345.3" y1="393.5" x2="345.3" y2="381.6"/>
	<text transform="matrix(1 0 0 1 339.1069 394.3936)" class="st16 st27"></text>
	<line class="st28" x1="386.9" y1="393.5" x2="386.9" y2="381.6"/>
	<text transform="matrix(1 0 0 1 380.7476 394.3936)" class="st16 st27"></text>
	<line class="st28" x1="428.8" y1="393.5" x2="428.8" y2="381.6"/>
	<text transform="matrix(1 0 0 1 422.6069 394.3936)" class="st16 st27"></text>
	<line class="st28" x1="470.6" y1="393.5" x2="470.6" y2="381.6"/>
	<text transform="matrix(1 0 0 1 464.4663 394.3936)" class="st16 st27"></text>
	<line class="st28" x1="172.1" y1="395.2" x2="172.1" y2="412.3"/>
	<text transform="matrix(1 0 0 1 171.6929 394.3936)" class="st16 st27"></text>
	<line class="st28" x1="219.7" y1="397.8" x2="219.7" y2="414.9"/>
	<text transform="matrix(1 0 0 1 219.3179 396.9561)" class="st16 st27"></text>
	<line class="st28" x1="255.8" y1="400.4" x2="255.8" y2="412.3"/>
	<text transform="matrix(1 0 0 1 255.4038 399.5264)" class="st16 st27"></text>
	<line class="st28" x1="297.6" y1="402.9" x2="297.6" y2="414.9"/>
	<text transform="matrix(1 0 0 1 297.2554 402.0732)" class="st16 st27"></text>
	<line class="st28" x1="339.5" y1="405.5" x2="339.5" y2="417.5"/>
	<text transform="matrix(1 0 0 1 339.1069 404.6436)" class="st16 st27"></text>
	<line class="st28" x1="381.1" y1="408.1" x2="381.1" y2="420"/>
	<text transform="matrix(1 0 0 1 380.7476 407.2061)" class="st16 st27"></text>
	<line class="st28" x1="423" y1="410.6" x2="423" y2="422.6"/>
	<text transform="matrix(1 0 0 1 422.6069 409.7686)" class="st16 st27"></text>
	<path class="st28" d="M464.8,413.2v12 M463.2,412.3h9.2"/>
	<text transform="matrix(1 0 0 1 464.4663 412.3389)" class="st16 st27"></text>
</g>
<text transform="matrix(1 0 0 1 136.2031 248.2256)"><tspan x="0" y="0" class="st9 st13">Como sabemos se um intervalo  </tspan><tspan x="147" y="0" class="st11 st13">maior</tspan><tspan x="178.1" y="0" class="st9 st13"> ou </tspan><tspan x="193.3" y="0" class="st11 st13">menor?</tspan><tspan x="236.3" y="0" class="st9 st13"> Ns podemos usar a </tspan><tspan x="330.1" y="0" class="st11 st13">escala</tspan><tspan x="0" y="10.8" class="st11 st13">maior</tspan><tspan x="31.1" y="10.8" class="st9 st13"> para localiz-lo. Observe que, na escala maior, os intervalos a partir da</tspan><tspan x="0" y="21.6" class="st11 st13">tnica</tspan><tspan x="36.8" y="21.6" class="st9 st13"> para os outros graus da escala so </tspan><tspan x="206.3" y="21.6" class="st11 st13">maiores.</tspan></text>
<text transform="matrix(1 0 0 1 136.2031 359.7256)"><tspan x="0" y="0" class="st9 st13">Assim como, os intervalos da tnica </tspan><tspan x="164.4" y="0" class="st11 st13">para baixo</tspan><tspan x="223.6" y="0" class="st9 st13"> nos</tspan><tspan x="0" y="10.8" class="st9 st13">outros graus da escala so </tspan><tspan x="130.7" y="10.8" class="st11 st13">menores.</tspan></text>
<text transform="matrix(1 0 0 1 47.4561 474.2256)"><tspan x="0" y="0" class="st9 st12">Sabendo disso, quando se deparar com uma </tspan><tspan x="216.7" y="0" class="st11 st12">segunda, tera, sexta</tspan><tspan x="359.5" y="0" class="st9 st12"> ou </tspan><tspan x="376.4" y="0" class="st11 st12">stima,</tspan><tspan x="421.2" y="0" class="st9 st12"> voc</tspan><tspan x="-2.3" y="12" class="st9 st12">pode encontrar sua inflexo pensando na armadura de clave da nota de cima e/ou de baixo.</tspan></text>
<text transform="matrix(1 0 0 1 118.415 603.7256)"><tspan x="0" y="0" class="st9 st29">Quando as notas do intervalo tiverem </tspan><tspan x="180.3" y="0" class="st11 st29">acidentes,</tspan><tspan x="244.1" y="0" class="st9 st29"> a associao com</tspan><tspan x="-38.5" y="11.4" class="st9 st29">as armaduras de clave podem ser mais </tspan><tspan x="145.8" y="11.4" class="st11 st29">complicadas...</tspan><tspan x="232.6" y="11.4" class="st9 st29"> ento  mais fcil </tspan><tspan x="321.9" y="11.4" class="st11 st29">ignorar</tspan><tspan x="-34.4" y="22.8" class="st11 st29">temporariamente</tspan><tspan x="69.1" y="22.8" class="st9 st29"> os acidentes, determinar o intervalo, e ento </tspan><tspan x="289.5" y="22.8" class="st11 st29">adicionar os</tspan><tspan x="-3.8" y="34.2" class="st11 st29">acidentes um de cada vez</tspan><tspan x="149.5" y="34.2" class="st9 st29"> e observar como os intervalos mudam!</tspan></text>
<text transform="matrix(1 0 0 1 87.8232 658.7168)"><tspan x="0" y="0" class="st11 st30">Blah!</tspan><tspan x="24.1" y="0" class="st9 st30"> O que</tspan><tspan x="-0.9" y="8.8" class="st9 st30">que  </tspan><tspan x="20.2" y="8.8" class="st11 st30">isso?</tspan><tspan x="-3.9" y="17.6" class="st9 st30">Primeiro vamos</tspan><tspan x="-0.8" y="26.3" class="st9 st30">esconder os</tspan><tspan x="1.6" y="35.1" class="st9 st30">acidentes...</tspan></text>
<text transform="matrix(1 0 0 1 68.2573 570.5615)"><tspan x="0" y="0" class="st9 st31">Se a </tspan><tspan x="21.9" y="0" class="st11 st31">nota de cima</tspan><tspan x="96.9" y="0" class="st9 st31"> est na escala maior da </tspan><tspan x="214.1" y="0" class="st11 st31">nota de baixo,</tspan><tspan x="297.6" y="0" class="st9 st31"> o intervalo  </tspan><tspan x="363.3" y="0" class="st11 st31">maior.</tspan><tspan x="-2.2" y="11.3" class="st9 st31">Se a </tspan><tspan x="19.7" y="11.3" class="st11 st31">nota de baixo</tspan><tspan x="100.5" y="11.3" class="st9 st31"> est na escala maior da </tspan><tspan x="217.7" y="11.3" class="st11 st31">nota de cima,</tspan><tspan x="295.4" y="11.3" class="st9 st31"> o intervalo  </tspan><tspan x="361.1" y="11.3" class="st11 st31">menor.</tspan></text>
<g>
	<path class="st3" d="M513.6,577.1c0,0.3-0.3,0.7-0.9,1.3c-0.6,0.5-1.1,0.8-1.4,0.8c-0.1,0-0.8-0.4-1.9-1.2c-1.1-0.8-1.8-1.2-2-1.2
		v0.2c0,0.3,0.1,0.8,0.4,1.6c-0.3,2.3-0.8,3.4-1.5,3.4c-0.2,0-0.7-0.1-1.3-0.3c-0.9-0.3-1.4-0.8-1.4-1.5c0-0.2,0-0.4,0.1-0.8
		c0-0.4,0.1-0.7,0.1-0.9c0-0.2,0-0.4,0-0.4c0-0.1,0-0.1,0,0c0,0-0.5,0.3-1.5,0.8c-1,0.6-1.8,0.8-2.4,0.8c-0.5,0-1-0.4-1.3-1.1
		c-0.3-0.6-0.4-1.2-0.4-1.7c0-0.2,0.6-0.7,1.8-1.5c1.2-0.7,1.8-1.2,1.8-1.4c0-0.2-0.5-0.5-1.5-1c-1.1-0.6-1.8-1.1-2.1-1.5
		c-0.3-0.4-0.4-1.2-0.4-2.4c0-0.6,0.5-0.9,1.5-0.9c0.9,0,1.6,0.2,2,0.6c0.5,0.4,1,0.8,1.5,1.3l0.2,0.1c0-0.1-0.1-0.5-0.2-1.1
		c-0.1-0.5-0.1-0.9-0.1-1.2c0-1.2,0.1-1.9,0.2-2.2c0.1-0.2,0.7-0.7,1.8-1.4c0.1,0,0.2,0,0.3,0c0.4,0,0.8,0.3,1.3,1
		c0.5,0.6,0.7,1.1,0.7,1.5c0,0.4-0.1,0.9-0.3,1.6c-0.2,0.7-0.3,1.2-0.3,1.6c0,0.1,0,0.1,0,0.1c0.2-0.1,0.8-0.5,1.7-1.2
		c1.1-0.9,2-1.4,2.6-1.4c0.1,0,0.7,0.2,1.9,0.7c0.3,0.2,0.4,0.5,0.4,0.9c0,0.7-0.3,1.4-0.9,2.1c-0.2,0.2-0.8,0.5-1.9,0.9
		c-1,0.4-1.6,0.7-1.6,0.9c0,0.2,0.9,0.6,2.7,1.1C512.9,575.6,513.6,576.5,513.6,577.1z"/>
</g>
<g>
	<path class="st3" d="M531.6,577.1c0,0.3-0.3,0.7-0.9,1.3c-0.6,0.5-1.1,0.8-1.4,0.8c-0.1,0-0.8-0.4-1.9-1.2c-1.1-0.8-1.8-1.2-2-1.2
		v0.2c0,0.3,0.1,0.8,0.4,1.6c-0.3,2.3-0.8,3.4-1.5,3.4c-0.2,0-0.7-0.1-1.3-0.3c-0.9-0.3-1.4-0.8-1.4-1.5c0-0.2,0-0.4,0.1-0.8
		c0-0.4,0.1-0.7,0.1-0.9c0-0.2,0-0.4,0-0.4c0-0.1,0-0.1,0,0c0,0-0.5,0.3-1.5,0.8c-1,0.6-1.8,0.8-2.4,0.8c-0.5,0-1-0.4-1.3-1.1
		c-0.3-0.6-0.4-1.2-0.4-1.7c0-0.2,0.6-0.7,1.8-1.5c1.2-0.7,1.8-1.2,1.8-1.4c0-0.2-0.5-0.5-1.5-1c-1.1-0.6-1.8-1.1-2.1-1.5
		c-0.3-0.4-0.4-1.2-0.4-2.4c0-0.6,0.5-0.9,1.5-0.9c0.9,0,1.6,0.2,2,0.6c0.5,0.4,1,0.8,1.5,1.3l0.2,0.1c0-0.1-0.1-0.5-0.2-1.1
		c-0.1-0.5-0.1-0.9-0.1-1.2c0-1.2,0.1-1.9,0.2-2.2c0.1-0.2,0.7-0.7,1.8-1.4c0.1,0,0.2,0,0.3,0c0.4,0,0.8,0.3,1.3,1
		c0.5,0.6,0.7,1.1,0.7,1.5c0,0.4-0.1,0.9-0.3,1.6c-0.2,0.7-0.3,1.2-0.3,1.6c0,0.1,0,0.1,0,0.1c0.2-0.1,0.8-0.5,1.7-1.2
		c1.1-0.9,2-1.4,2.6-1.4c0.1,0,0.7,0.2,1.9,0.7c0.3,0.2,0.4,0.5,0.4,0.9c0,0.7-0.3,1.4-0.9,2.1c-0.2,0.2-0.8,0.5-1.9,0.9
		c-1,0.4-1.6,0.7-1.6,0.9c0,0.2,0.9,0.6,2.7,1.1C530.9,575.6,531.6,576.5,531.6,577.1z"/>
</g>
<g>
	<path class="st3" d="M21.1,577.1c0,0.3-0.3,0.7-0.9,1.3c-0.6,0.5-1.1,0.8-1.4,0.8c-0.1,0-0.8-0.4-1.9-1.2c-1.1-0.8-1.8-1.2-2-1.2
		v0.2c0,0.3,0.1,0.8,0.4,1.6c-0.3,2.3-0.8,3.4-1.5,3.4c-0.2,0-0.7-0.1-1.3-0.3c-0.9-0.3-1.4-0.8-1.4-1.5c0-0.2,0-0.4,0.1-0.8
		c0-0.4,0.1-0.7,0.1-0.9c0-0.2,0-0.4,0-0.4c0-0.1,0-0.1,0,0c0,0-0.5,0.3-1.5,0.8c-1,0.6-1.8,0.8-2.4,0.8c-0.5,0-1-0.4-1.3-1.1
		c-0.3-0.6-0.4-1.2-0.4-1.7c0-0.2,0.6-0.7,1.8-1.5c1.2-0.7,1.8-1.2,1.8-1.4c0-0.2-0.5-0.5-1.5-1c-1.1-0.6-1.8-1.1-2.1-1.5
		c-0.3-0.4-0.4-1.2-0.4-2.4c0-0.6,0.5-0.9,1.5-0.9c0.9,0,1.6,0.2,2,0.6c0.5,0.4,1,0.8,1.5,1.3l0.2,0.1c0-0.1-0.1-0.5-0.2-1.1
		c-0.1-0.5-0.1-0.9-0.1-1.2c0-1.2,0.1-1.9,0.2-2.2c0.1-0.2,0.7-0.7,1.8-1.4c0.1,0,0.2,0,0.3,0c0.4,0,0.8,0.3,1.3,1
		c0.5,0.6,0.7,1.1,0.7,1.5c0,0.4-0.1,0.9-0.3,1.6c-0.2,0.7-0.3,1.2-0.3,1.6c0,0.1,0,0.1,0,0.1c0.2-0.1,0.8-0.5,1.7-1.2
		c1.1-0.9,2-1.4,2.6-1.4c0.1,0,0.7,0.2,1.9,0.7c0.3,0.2,0.4,0.5,0.4,0.9c0,0.7-0.3,1.4-0.9,2.1c-0.2,0.2-0.8,0.5-1.9,0.9
		c-1,0.4-1.6,0.7-1.6,0.9c0,0.2,0.9,0.6,2.7,1.1C20.4,575.6,21.1,576.5,21.1,577.1z"/>
</g>
<g>
	<path class="st3" d="M39.1,577.1c0,0.3-0.3,0.7-0.9,1.3c-0.6,0.5-1.1,0.8-1.4,0.8c-0.1,0-0.8-0.4-1.9-1.2c-1.1-0.8-1.8-1.2-2-1.2
		v0.2c0,0.3,0.1,0.8,0.4,1.6c-0.3,2.3-0.8,3.4-1.5,3.4c-0.2,0-0.7-0.1-1.3-0.3c-0.9-0.3-1.4-0.8-1.4-1.5c0-0.2,0-0.4,0.1-0.8
		c0-0.4,0.1-0.7,0.1-0.9c0-0.2,0-0.4,0-0.4c0-0.1,0-0.1,0,0c0,0-0.5,0.3-1.5,0.8c-1,0.6-1.8,0.8-2.4,0.8c-0.5,0-1-0.4-1.3-1.1
		c-0.3-0.6-0.4-1.2-0.4-1.7c0-0.2,0.6-0.7,1.8-1.5c1.2-0.7,1.8-1.2,1.8-1.4c0-0.2-0.5-0.5-1.5-1c-1.1-0.6-1.8-1.1-2.1-1.5
		c-0.3-0.4-0.4-1.2-0.4-2.4c0-0.6,0.5-0.9,1.5-0.9c0.9,0,1.6,0.2,2,0.6c0.5,0.4,1,0.8,1.5,1.3l0.2,0.1c0-0.1-0.1-0.5-0.2-1.1
		c-0.1-0.5-0.1-0.9-0.1-1.2c0-1.2,0.1-1.9,0.2-2.2c0.1-0.2,0.7-0.7,1.8-1.4c0.1,0,0.2,0,0.3,0c0.4,0,0.8,0.3,1.3,1
		c0.5,0.6,0.7,1.1,0.7,1.5c0,0.4-0.1,0.9-0.3,1.6c-0.2,0.7-0.3,1.2-0.3,1.6c0,0.1,0,0.1,0,0.1c0.2-0.1,0.8-0.5,1.7-1.2
		c1.1-0.9,2-1.4,2.6-1.4c0.1,0,0.7,0.2,1.9,0.7c0.3,0.2,0.4,0.5,0.4,0.9c0,0.7-0.3,1.4-0.9,2.1c-0.2,0.2-0.8,0.5-1.9,0.9
		c-1,0.4-1.6,0.7-1.6,0.9c0,0.2,0.9,0.6,2.7,1.1C38.4,575.6,39.1,576.5,39.1,577.1z"/>
</g>
<text transform="matrix(1 0 0 1 82.6753 509.2256)"><tspan x="0" y="0" class="st9 st12">Sabemos que isso  uma</tspan><tspan x="-26.2" y="12" class="st11 st12">sexta maior</tspan><tspan x="49.6" y="12" class="st9 st12"> porque o </tspan><tspan x="99" y="12" class="st11 st12">R,</tspan><tspan x="-19" y="24" class="st9 st12">em cima, est na tonalidade</tspan><tspan x="-28.6" y="36" class="st9 st12">de </tspan><tspan x="-13.7" y="36" class="st11 st12">F maior</tspan><tspan x="38.3" y="36" class="st9 st12"> (nota de baixo).</tspan></text>
<text transform="matrix(1 0 0 1 353.7031 510.2256)"><tspan x="0" y="0" class="st9 st12">E isso  uma </tspan><tspan x="61.4" y="0" class="st11 st12">stima menor</tspan><tspan x="0" y="12" class="st9 st12">porque o </tspan><tspan x="46.8" y="12" class="st11 st12">Si,</tspan><tspan x="60.4" y="12" class="st9 st12"> a nota abaixo,</tspan><tspan x="0" y="24" class="st9 st12">est na escala de</tspan><tspan x="0" y="36" class="st11 st12">L maior</tspan><tspan x="52.2" y="36" class="st9 st12"> (nota acima).</tspan></text>
<polygon class="st2" points="212.3,337.5 220.7,328.5 229,337.5 "/>
<polygon class="st2" points="251.3,337.5 259.7,328.5 268,337.5 "/>
<polygon class="st2" points="375.8,337.5 384.2,328.5 392.5,337.5 "/>
<polygon class="st2" points="418.8,337.5 427.2,328.5 435.5,337.5 "/>
<text transform="matrix(1 0 0 1 200.0405 332.7256)"><tspan x="0" y="0" class="st11 st32">segunda</tspan><tspan x="7.1" y="8.4" class="st11 st32">maior</tspan></text>
<text transform="matrix(1 0 0 1 246.5571 332.7256)"><tspan x="0" y="0" class="st11 st32">tera</tspan><tspan x="1.1" y="8.4" class="st11 st32">maior</tspan></text>
<text transform="matrix(1 0 0 1 370.4629 332.7256)"><tspan x="0" y="0" class="st11 st32">sexta</tspan><tspan x="1.1" y="8.4" class="st11 st32">maior</tspan></text>
<text transform="matrix(1 0 0 1 409.521 332.7256)"><tspan x="0" y="0" class="st11 st32">stima</tspan><tspan x="2.6" y="8.4" class="st11 st32">maior</tspan></text>
<polygon class="st2" points="212.3,435 220.7,426 229,435 "/>
<polygon class="st2" points="251.3,435 259.7,426 268,435 "/>
<polygon class="st2" points="375.8,435 384.2,426 392.5,435 "/>
<polygon class="st2" points="418.8,435 427.2,426 435.5,435 "/>
<text transform="matrix(1 0 0 1 200.0405 430.2256)"><tspan x="0" y="0" class="st11 st32">segunda</tspan><tspan x="5.4" y="8.4" class="st11 st32">menor</tspan></text>
<text transform="matrix(1 0 0 1 246.5571 430.2256)"><tspan x="0" y="0" class="st11 st32">tera</tspan><tspan x="-0.6" y="8.4" class="st11 st32">menor</tspan></text>
<text transform="matrix(1 0 0 1 370.4629 430.2256)"><tspan x="0" y="0" class="st11 st32">sexta</tspan><tspan x="-0.5" y="8.4" class="st11 st32">menor</tspan></text>
<text transform="matrix(1 0 0 1 409.521 430.2256)"><tspan x="0" y="0" class="st11 st32">stima</tspan><tspan x="0.9" y="8.4" class="st11 st32">menor</tspan></text>
<g>
	<text transform="matrix(1 0 0 1 219.1226 529.667)" class="st16 st27">&amp;</text>
	<path class="st28" d="M214,514.3h50.8 M214,519.4h50.8 M214,524.5h50.8 M214,529.7h50.8 M214,534.8h50.8 M248.8,518.6v-12"/>
	<text transform="matrix(1 0 0 1 242.6069 519.4248)" class="st16 st27"></text>
	<line class="st28" x1="243" y1="533.1" x2="243" y2="545"/>
	<text transform="matrix(1 0 0 1 242.6069 532.2295)" class="st16 st27"></text>
</g>
<g>
	<text transform="matrix(1 0 0 1 292.0859 534.4248)" class="st16 st27">&amp;</text>
	<g>
		<defs>
			<rect id="SVGID_1_" x="281" y="497.6" width="64" height="67"/>
		</defs>
		<clipPath id="SVGID_00000145757818799048066390000003319245220025967286_">
			<use xlink:href="#SVGID_1_"  style="overflow:visible;"/>
		</clipPath>
		
			<path style="clip-path:url(#SVGID_00000145757818799048066390000003319245220025967286_);fill:none;stroke:#000000;stroke-width:0.7474;stroke-miterlimit:10;" d="
			M287,519.1h50.8 M287,524.2h50.8 M287,529.3h50.8 M287,534.4h50.8 M287,539.6h50.8 M324.9,513.1v-12 M317.5,513.9h9.2"/>
	</g>
	<text transform="matrix(1 0 0 1 318.7812 513.9248)" class="st16 st27"></text>
	<line class="st28" x1="319.2" y1="530.2" x2="319.2" y2="547.2"/>
	<text transform="matrix(1 0 0 1 318.7812 529.3076)" class="st16 st27"></text>
</g>
<polyline class="st4" points="46,632 26.6,640.5 48.5,639.5 "/>
<g>
	<text transform="matrix(1 0 0 1 29.1846 677.9023)" class="st16 st34">&amp;</text>
	<path class="st35" d="M24.5,663.8H71 M24.5,668.5H71 M24.5,673.2H71 M24.5,677.9H71 M24.5,682.6H71 M64.3,665.4v-10.9"/>
	<text transform="matrix(1 0 0 1 58.6792 666.1846)" class="st16 st34"></text>
	<text transform="matrix(1 0 0 1 53.1992 666.1846)" class="st16 st34">b</text>
	<line class="st35" x1="59" y1="678.7" x2="59" y2="689.6"/>
	<text transform="matrix(1 0 0 1 58.6792 677.9023)" class="st16 st34"></text>
	<text transform="matrix(1 0 0 1 47.1543 677.9023)" class="st16 st34">#</text>
</g>
<text transform="matrix(1 0 0 1 457.2451 653.8057)"><tspan x="0" y="0" class="st9 st30">Colocando de</tspan><tspan x="12.2" y="8.8" class="st9 st30">volta o</tspan><tspan x="-5" y="17.6" class="st11 st30">sustenido</tspan><tspan x="42" y="17.6" class="st9 st30"> faz</tspan><tspan x="-5.1" y="26.3" class="st9 st30">o intervalo ainda</tspan><tspan x="-0.1" y="35.1" class="st11 st30">menor... </tspan><tspan x="38.5" y="35.1" class="st9 st30">uma</tspan><tspan x="-9.6" y="43.9" class="st11 st30">sexta diminuto!</tspan></text>
<g>
	<text transform="matrix(1 0 0 1 401.4082 677.9023)" class="st16 st34">&amp;</text>
	<path class="st35" d="M396.7,663.8h46.5 M396.7,668.5h46.5 M396.7,673.2h46.5 M396.7,677.9h46.5 M396.7,682.6h46.5 M436.5,665.4
		v-10.9"/>
	<text transform="matrix(1 0 0 1 430.9033 666.1846)" class="st16 st34"></text>
	<text transform="matrix(1 0 0 1 425.4238 666.1846)" class="st16 st34">b</text>
	<line class="st35" x1="431.2" y1="678.7" x2="431.2" y2="689.6"/>
	<text transform="matrix(1 0 0 1 430.9033 677.9023)" class="st16 st34"></text>
	<text transform="matrix(1 0 0 1 419.3789 677.9023)" class="st16 st34">#</text>
</g>
<text transform="matrix(1 0 0 1 331.0361 653.8057)"><tspan x="0" y="0" class="st9 st30">Colocando de</tspan><tspan x="-3.2" y="8.8" class="st9 st30">volta o </tspan><tspan x="25.6" y="8.8" class="st11 st30">bemol</tspan><tspan x="-2" y="17.6" class="st9 st30">faz o intervalo</tspan><tspan x="-1.5" y="26.3" class="st11 st30">menor,</tspan><tspan x="29.4" y="26.3" class="st9 st30"> ento</tspan><tspan x="3.8" y="35.1" class="st9 st30">agora  uma</tspan><tspan x="-4" y="43.9" class="st9 st30">sexta </tspan><tspan x="19.3" y="43.9" class="st11 st30">menor...</tspan></text>
<g>
	<text transform="matrix(1 0 0 1 275.2002 677.9023)" class="st16 st34">&amp;</text>
	<path class="st35" d="M270.5,663.8H317 M270.5,668.5H317 M270.5,673.2H317 M270.5,677.9H317 M270.5,682.6H317 M310.3,665.4v-10.9"
		/>
	<text transform="matrix(1 0 0 1 304.6943 666.1846)" class="st16 st34"></text>
	<text transform="matrix(1 0 0 1 299.2148 666.1846)" class="st16 st34">b</text>
	<line class="st35" x1="305" y1="678.7" x2="305" y2="689.6"/>
	<text transform="matrix(1 0 0 1 304.6943 677.9023)" class="st16 st34"></text>
</g>
<text transform="matrix(1 0 0 1 218.0557 653.8047)"><tspan x="0" y="0" class="st11 st30">Mi</tspan><tspan x="8.3" y="0" class="st9 st30"> est na</tspan><tspan x="0.4" y="8.8" class="st9 st30">escala de</tspan><tspan x="-2.5" y="17.6" class="st11 st30">Sol,</tspan><tspan x="16.8" y="17.6" class="st9 st30"> ento</tspan><tspan x="-4.7" y="26.3" class="st9 st30">sabemos que</tspan><tspan x="0.4" y="35.1" class="st9 st30">isso  uma</tspan><tspan x="-6.7" y="43.9" class="st9 st30">sexta </tspan><tspan x="16.6" y="43.9" class="st11 st30">maior.</tspan></text>
<g>
	<text transform="matrix(1 0 0 1 155.3936 677.9023)" class="st16 st34">&amp;</text>
	<path class="st35" d="M150.7,663.8h46.5 M150.7,668.5h46.5 M150.7,673.2h46.5 M150.7,677.9h46.5 M150.7,682.6h46.5 M190.5,665.4
		v-10.9"/>
	<text transform="matrix(1 0 0 1 184.8882 666.1846)" class="st16 st34"></text>
	<line class="st35" x1="185.2" y1="678.7" x2="185.2" y2="689.6"/>
	<text transform="matrix(1 0 0 1 184.8882 677.9023)" class="st16 st34"></text>
</g>
<polygon class="st36" points="180.4,662.1 183,660.1 181.6,663.8 183.8,665.2 181.1,666.7 181.3,670.3 179.3,668.4 177.3,671.7 
	177.5,667.9 174.9,668.2 177.1,665.4 175.8,662.6 178.4,662.8 179.4,659 "/>
<polygon class="st36" points="174.7,675 176.2,672 176.6,676 179.2,676.2 177.4,678.7 179.1,682 176.5,681.1 176.1,684.9 
	174.7,681.4 172.5,682.9 173.2,679.3 170.8,677.4 173.3,676.5 172.5,672.6 "/>
<text transform="matrix(0.2011 -0.9796 0.9796 0.2011 180.2664 669.264)" class="st37 st38 st39">puf!</text>
<text transform="matrix(0.4191 0.9079 -0.9079 0.4191 171.9644 676.0319)" class="st37 st38 st39">puf!</text>
<g>
	<rect x="0.3" y="712" class="st3" width="540" height="8"/>
	<text transform="matrix(1 0 0 1 26.4292 718.1138)"><tspan x="0" y="0" class="st9 st32">licenciado sob a </tspan><tspan x="59.2" y="0" class="st11 st32">creative commons BY-NC</tspan><tspan x="166.7" y="0" class="st9 st32"> - Traduo Portugus do Brasil por </tspan><tspan x="295.5" y="0" class="st11 st32">rafael barrera</tspan><tspan x="365" y="0" class="st9 st32"> - visite </tspan><tspan x="392.4" y="0" class="st11 st32">tobyrush.com</tspan><tspan x="453.7" y="0" class="st9 st32"> para mais</tspan></text>
</g>
<g>
	<rect x="0.3" class="st3" width="540" height="8"/>
	<text transform="matrix(1 0 0 1 128.2852 6.1133)"><tspan x="0" y="0" class="st11 st32">Teoria Musical para Msicos e Pessoas Normais </tspan><tspan x="214.2" y="0" class="st9 st32">por</tspan><tspan x="226.4" y="0" class="st11 st32"> Toby W. Rush</tspan></text>
</g>
</svg>
